<?xml version="1.0" standalone="no"?>
<!DOCTYPE svg PUBLIC "-//W3C//DTD SVG 1.1//EN" "http://www.w3.org/Graphics/SVG/1.1/DTD/svg11.dtd" >
<svg xmlns="http://www.w3.org/2000/svg" xmlns:xlink="http://www.w3.org/1999/xlink" version="1.1">
<metadata></metadata>
<defs>
<font id="modernline_-_personal_useRg" horiz-adv-x="2471" >
<font-face units-per-em="2048" ascent="1638" descent="-410" />
<missing-glyph horiz-adv-x="755" />
<glyph unicode="&#xd;" horiz-adv-x="1040" />
<glyph horiz-adv-x="0" />
<glyph horiz-adv-x="0" />
<glyph unicode=" "  horiz-adv-x="755" />
<glyph unicode="&#x09;" horiz-adv-x="755" />
<glyph unicode="&#xa0;" horiz-adv-x="755" />
<glyph unicode="!" horiz-adv-x="1009" d="M127 158q1 25 26.5 58.5t47.5 41.5q4 2 10 2q9 0 15.5 -5.5t6.5 -12.5v-4q-6 -39 -16 -65t-35 -44l-20 -10q-16 0 -25.5 11.5t-9.5 27.5zM260 449v4q17 79 189 407q14 29 63.5 122t125.5 230t148.5 238.5t104.5 101.5q6 0 12 -6q4 -4 4 -10q0 -8 -16 -35 q-54 -92 -166 -277.5t-197.5 -332.5t-156.5 -283q-5 -10 -21.5 -39.5t-24 -44.5t-17.5 -40t-15 -46q-3 -14 -14 -14q-19 0 -19 25z" />
<glyph unicode="&#x22;" horiz-adv-x="645" d="M217 1489v8q2 4 5 17t5 18q58 140 121 227q20 32 41 45q15 11 25 11q9 0 18 -9q8 -8 8 -20q0 -5 -4 -17q-10 -22 -37.5 -52.5t-36.5 -43.5q-25 -35 -60 -103.5t-44 -99.5q-3 -6 -16 -6q-25 0 -25 25zM330 1421q0 7 2 11q2 10 12 36q54 143 170 297q18 21 37 21 q12 0 19.5 -8.5t7.5 -20.5q0 -13 -11 -35q-8 -11 -34 -43t-34 -43l-28 -38.5t-31.5 -47t-28 -50t-32.5 -64.5q-16 -31 -33 -31q-16 0 -16 16z" />
<glyph unicode="#" horiz-adv-x="1142" d="M70 446v5q0 12 6.5 17t23 7t17.5 2q49 10 147 10q32 0 45 33q29 78 74 187l-190 -23h-15q-18 0 -20 18v7q0 15 28 24q87 26 160 29q38 2 60.5 18.5t37.5 55.5q15 38 48.5 95.5t58.5 86.5q8 12 16 12q4 0 8 -4q5 -5 5 -10q0 -7 -5 -17l-114 -225q178 0 262 -2q23 0 37 31 q79 188 143 276q7 11 17 11q9 0 16.5 -8t7.5 -17q0 -2 -1 -4.5t-1 -3.5q-8 -22 -45 -88t-68.5 -123.5t-31.5 -65.5q4 -8 16 -8h43q170 0 203 -16q10 -7 10 -15q0 -10 -10 -10h-4q-44 8 -97 8q-18 0 -54 -1t-54 -1h-45q-35 0 -49 -41q-8 -20 -39 -89t-45 -109q11 -9 33 -9h12 q3 0 50 -3t84.5 -6t43.5 -7q3 -1 8 -2t8.5 -1t6 -2.5t2.5 -6.5v-4q0 -11 -11 -11q-2 0 -7.5 1.5t-8.5 1.5q-96 8 -213 8q-27 0 -35 -25q-92 -244 -92 -313v-15q0 -16 -8 -16q-15 0 -15 35q0 13 7 45q14 74 67 238q1 4 4.5 11.5t5.5 14t2 12.5v5q-9 6 -16 6q-2 0 -6 -1t-6 -1 q-210 -10 -252 -11q-25 0 -37 -30q-47 -120 -63 -195q-3 -20 -11 -20q-10 0 -10 14q2 37 15.5 87t26.5 86.5t13 41.5v2q-5 8 -12 8q-1 0 -4.5 -1t-5.5 -1q-15 -1 -40 -2.5t-46 -2.5t-39 -1q-4 0 -15 -1t-16 -1q-20 0 -22 20zM338 496q8 -4 10 -4h268q19 0 27 22 q13 34 39.5 100.5t40.5 100.5v16q-1 0 -3 1t-3 1q-154 -3 -264 -16q-23 -3 -35 -27q-20 -51 -66 -149q-14 -28 -14 -41v-4z" />
<glyph unicode="$" horiz-adv-x="1202" d="M23 317q0 13 4 41q11 85 75 172q7 7 11 7q10 0 10 -11q0 -4 -2 -8q-26 -44 -36.5 -63.5t-22 -55.5t-11.5 -71q0 -13 4 -45q12 -72 70.5 -124t130.5 -57h18q15 0 20 5.5t13 27.5q88 280 230 656q-8 7 -30.5 13.5t-53 13.5t-47.5 13q-105 40 -105 134q0 78 68 153 q170 196 372 219q23 2 41 31q23 49 50 99.5t74.5 115t80.5 70.5h10q15 0 25 -8.5t10 -20.5q0 -9 -6 -18q-10 -20 -12 -23q-27 -43 -125 -235q-8 -13 -8 -25q0 -10 8 -17.5t19.5 -13.5t26.5 -21.5t26 -37.5q14 -28 14 -66q0 -47 -29 -53h-6q-9 0 -13.5 5t-8.5 21l-5 15 q-10 31 -25.5 46t-53.5 34q-140 -278 -193 -401q20 -8 69.5 -17.5t94 -20.5t90.5 -30.5t74 -57.5t28 -92q0 -25 -10 -67q-17 -68 -65 -125q-223 -269 -533 -348q-53 -13 -67 -64q-62 -219 -72 -327q-3 -35 -21 -35q-14 0 -18 16v17q0 60 21.5 174t41.5 168q1 3 2 7t2 6.5 t1 4.5q0 11 -7.5 15t-28 6.5t-32.5 5.5q-84 23 -136 92t-52 155zM358 117q3 0 9 -1t8 -1q12 0 47 10q253 83 446 291q38 41 63 93.5t25 100.5q0 101 -114 135q-47 13 -174 31q-10 1 -22.5 3.5t-16.5 2.5q-8 0 -12.5 -7t-16.5 -34q-145 -342 -242 -624zM362 956 q0 -18 8.5 -32.5t18.5 -23.5t31 -18t33 -12.5t38 -10.5t33 -9q6 -2 17 -2q18 0 28 29q53 147 146 352q4 8 4 12q0 2 -4 10h-10q-202 -44 -326 -239q-5 -4 -8 -15q-9 -24 -9 -41z" />
<glyph unicode="%" horiz-adv-x="1415" d="M-96 82q0 12 6 24q12 27 43 62q34 40 116 137t128 151t115 132.5t128 142.5q259 283 468.5 484.5t463.5 400.5q36 27 49 49q-96 -10 -211 -28t-179.5 -29.5t-215 -40t-186.5 -35.5q2 -4 2 -14v-11q6 -21 6 -41q0 -69 -64 -130t-139 -93q-30 -12 -53 -12q-25 0 -39 13 t-14 36q0 27 20 63q24 42 78 102.5t57 67.5q-2 3 -10.5 11t-12 14t-3.5 12q0 5 4 13q15 30 47 30h8q16 -4 23 -4q27 0 76.5 36.5t89.5 51.5q18 6 30 6q27 0 27 -14q0 -9 -14 -12q-11 -2 -20.5 -6t-20.5 -11.5t-17 -12t-19.5 -15.5t-17.5 -15q16 -4 23 -4t31 6 q568 113 747 117h4q21 0 33 -11.5t12 -29.5q0 -19 -14 -39q-17 -21 -102 -96t-184 -159.5t-118 -102.5q-72 -63 -147 -133.5t-159.5 -157t-146.5 -151t-159.5 -171t-143.5 -157.5t-153 -170t-137 -152q-2 -2 -9.5 -10.5t-11.5 -13t-10 -14.5t-10 -21q12 6 23 12.5t22.5 13 t17.5 9.5q622 387 861 549q20 14 34 14q8 0 13.5 -7.5t5.5 -15.5q0 -6 -4 -14q-4 -5 -47.5 -46.5t-65.5 -70.5q1 -8 4.5 -11.5t12.5 -6t10 -2.5q69 -35 69 -121q0 -70 -39 -125q-48 -66 -128 -135.5t-142 -85.5q-20 -4 -27 -4q-59 0 -59 76q0 42 23 96q39 82 114 194 q2 3 13 16t14 21q1 2 9.5 11.5t8.5 15.5q0 4 -6 10t-12 6t-15.5 -7.5t-11.5 -8.5q-108 -66 -333 -213.5t-347 -220.5q-45 -27 -75 -27q-37 0 -37 33zM412 1317q88 32 137 98q18 24 18 45q0 19 -14 41q-101 -109 -141 -184zM612 154q0 -19 19 -19q13 0 41 17q51 29 99.5 68.5 t91 96.5t46.5 109v4q0 40 -22 66t-49 26q-20 0 -33 -16q-37 -50 -74 -104t-78 -131.5t-41 -114.5v-2z" />
<glyph unicode="&#x26;" horiz-adv-x="1017" d="M100 383v16q6 67 42.5 131.5t90.5 114.5q113 104 351 201q20 9 30 16q-9 1 -59 4t-68 11q-49 22 -49 69q0 46 39 80q63 55 182 104q37 12 48 50q15 42 64 123t79 114q7 10 18 10q17 0 17 -20q0 -10 -17 -49q-5 -11 -49 -98.5t-51 -106.5q4 -2 12 -2q4 0 16.5 1t20.5 1 q22 0 41 -8q27 -12 27 -60q0 -39 -21 -57h-4q-16 0 -22.5 7.5t-6 16.5t-4 17.5t-18.5 9.5q-2 0 -7 1t-7 1q-9 0 -19.5 -2t-23.5 -5.5t-19 -4.5q-6 -2 -11.5 -17.5t-12.5 -15.5t-15 8q-5 5 -12 5q-6 0 -10 -2q-1 0 -21.5 -8.5t-26 -11.5t-24 -11.5t-27 -14.5t-21.5 -15 t-21 -18.5t-13 -19.5q-2 -4 -2 -10q0 -16 33 -25q23 -6 67.5 -10.5t53.5 -5.5q15 -1 23.5 -11t8.5 -22q0 -19 -22 -30q-62 -31 -76 -35q-141 -55 -227.5 -110.5t-159.5 -151.5q-57 -77 -57 -150q0 -46 27 -74t81 -28q32 0 76 12q40 11 79 24.5t86.5 36t71 34.5t83 44 t73.5 39q50 27 66 27q10 0 16 -6q2 -2 2 -7q0 -6 -9.5 -16t-22 -20t-13.5 -11q-61 -39 -172 -90t-188 -78q-23 -11 -29 -24q-107 -237 -147 -354l-29 -91q-3 -8 -10 -8q-4 0 -8 4q-13 10 -13 29v4q32 152 142 395v7q0 8 -9 8h-6q-2 0 -7 1t-7 1q-7 0 -25 -2t-28 -2 q-26 0 -50 8q-43 15 -66.5 50.5t-23.5 82.5z" />
<glyph unicode="'" horiz-adv-x="362" d="M166 1516v10q2 4 5 12t5 12q44 112 131 230q17 20 35 28q4 2 12 2q10 0 18 -7.5t9 -20.5q0 -14 -19 -33q-92 -105 -153 -231q-1 -1 -2 -3.5t-2 -3.5q-6 -16 -21 -16q-4 0 -8 2q-10 5 -10 19z" />
<glyph unicode="(" horiz-adv-x="1124" d="M80 -285q2 160 63 467q167 840 764 1596q145 185 330 344q76 63 182 119q16 8 33 8t21 -11v-4q0 -19 -46 -51q-102 -70 -204.5 -163t-182.5 -187q-347 -412 -585 -924q-245 -533 -320 -1093q-10 -78 -10 -140q0 -35 2 -51q7 -104 63 -157q2 -4 7 -9q6 -9 6 -14 q0 -8 -6 -14q-4 -4 -9 -4q-4 0 -9 2.5l-7 3.5q-31 22 -51 63q-34 57 -41 158v61z" />
<glyph unicode=")" horiz-adv-x="1161" d="M-47 -539q0 11 12 17q33 14 63.5 40.5t47 46.5t45.5 58q325 428 518.5 828t300.5 897q53 248 53 413q0 226 -92 350q-18 24 -41 47t-33 37q-10 13 -10 29q0 14 12 23q9 6 17 6q14 0 33 -19q182 -173 194 -411q4 -70 4 -97q0 -78 -10.5 -165t-21.5 -142.5t-33 -154.5 q-102 -465 -318 -871.5t-549 -816.5q-106 -131 -170 -131q-22 0 -22 16z" />
<glyph unicode="*" horiz-adv-x="800" d="M197 1741q0 7 14 18q68 52 103 74.5t112 64.5q18 12 18 25q0 6 -8 31.5t-12 52.5q-4 12 -4 18q0 11 10 13h2q20 0 37 -64q1 -1 10 -24q8 6 28.5 37t43.5 57.5t41 26.5q6 0 16 -7q10 -10 10 -16q0 -10 -14 -32.5t-16 -33.5q4 0 24 4.5t31 4.5q30 0 35 -21v-6q0 -4 -1 -7 t-4.5 -6t-5 -4.5t-6.5 -4.5t-6 -3q-19 -7 -57.5 -22.5t-58.5 -22.5q-21 -8 -29 -15t-8 -19q0 -13 6 -31q4 -13 14 -47.5t18 -58t17 -44.5q2 -2 2 -8q0 -10 -6 -10q-12 0 -31 45q-7 19 -21.5 56.5t-21.5 56.5h-2q-5 0 -8.5 -2.5t-6.5 -8.5l-3 -6q-86 -133 -97 -151 q-14 -23 -14 -33q0 -16 -16 -16q-7 0 -13 5.5t-6 16.5q0 18 11 37q12 23 36.5 68.5t36.5 68.5q16 26 17 37q-56 -21 -183 -102q-17 -11 -18 -11q-6 0 -12 9q-4 8 -4 10z" />
<glyph unicode="+" horiz-adv-x="894" d="M135 635q0 22 45 41q49 20 138 36t157 21q28 0 37 27q79 181 123 233q5 8 16 8q8 0 14.5 -6t6.5 -16v-6q-8 -41 -53 -130t-46 -100q1 -1 74.5 -5t132.5 -31q19 -9 19 -19q0 -6 -2 -8q-3 -8 -13 -8q-4 0 -16 4q-53 22 -131 22q-43 0 -66 -2q-24 0 -34 -20 q-92 -217 -122 -316q-11 -39 -20 -77q-6 -24 -6 -41q0 -10 2 -22t2 -15q0 -7 -10 -10h-4q-23 0 -23 61v20q5 36 13.5 73.5t22.5 81t23 70.5t28.5 79.5t25.5 70.5q8 16 8 25q0 1 -1 4.5t-1 5.5q-216 -29 -307 -68q-4 -2 -10 -2q-8 0 -15.5 6t-7.5 13z" />
<glyph unicode="," horiz-adv-x="374" d="M55 -55q0 11 11 22q24 31 43 58q58 72 73 139l6 18q14 21 27 21q15 0 25 -19q10 -20 10 -34v-9q0 -31 -21 -63q-46 -73 -108 -129q-10 -13 -25 -19q-9 -6 -18 -6q-12 0 -19 10q-4 8 -4 11z" />
<glyph unicode="-" horiz-adv-x="1136" d="M203 625q0 4 2 7.5t5 5.5t5.5 3.5t8 2.5t8 1.5t9 1t7.5 0.5q49 6 98 6q145 2 436 2q37 0 68 -8q22 -4 22 -16v-2q-2 -15 -26 -15q-7 1 -21.5 2t-19.5 2q-58 -3 -346 -18q-74 -4 -113 -4q-50 0 -100 6q-2 0 -10.5 1t-12 1.5t-9.5 3t-8.5 6.5t-2.5 11z" />
<glyph unicode="." horiz-adv-x="618" d="M80 92q0 5 4 17q26 57 72 92q12 12 26 12t25 -8q20 -11 20 -39v-8q0 -10 -6 -19q-23 -44 -78 -80q-16 -8 -22 -8q-12 0 -25 10q-16 13 -16 31z" />
<glyph unicode="/" horiz-adv-x="1617" d="M150 -152q0 16 16 48q102 204 260 436q297 437 583.5 809.5t639.5 787.5q23 29 41 29q20 0 20 -27q-6 -55 -205 -295q-158 -191 -255 -309.5t-283.5 -353.5t-312 -404.5t-258 -367.5t-203.5 -338q-2 -2 -6 -9.5t-7 -11.5t-7.5 -8t-8.5 -4q-2 2 -4 2q-10 2 -10 16z" />
<glyph unicode="0" horiz-adv-x="792" d="M-172 199q0 147 66 357t145 390q38 88 109 227t110 187q19 23 34 27t25.5 4.5t20.5 15.5q77 130 147 174q35 21 68 21q61 0 96 -72q25 -53 25 -162q0 -126 -58 -324q-80 -281 -288 -616q-231 -366 -383 -397q-8 -2 -23 -2q-75 0 -92 121q-2 16 -2 49zM-127 164 q0 -101 55 -101q15 0 33 9q56 21 118.5 80.5t106.5 121.5q294 402 414 834q38 150 41 283v8q0 24 -4 50.5t-13 55.5t-28 47.5t-45 18.5q-17 0 -27 -4q-19 -7 -41 -24.5t-36 -31.5t-36.5 -44.5t-28 -38.5t-26.5 -39q-4 -6 -4 -15q0 -3 3 -14t3 -21q0 -36 -26 -82 q-8 -14 -17 -14q-3 0 -8 3t-8 3q-8 0 -16 -14q-2 -4 -18 -30.5t-22.5 -37.5t-22 -38t-23.5 -42t-20.5 -39.5t-19.5 -41t-14 -35t-10 -33.5q-7 -13 -8 -14q-6 -4 -11.5 -10t-8 -11t-6 -14t-5.5 -12q-148 -321 -205 -586q-16 -72 -16 -127z" />
<glyph unicode="1" horiz-adv-x="573" d="M-205 78q0 21 4 35q45 186 391 956q127 287 156 346q1 2 2 6t2 6q-1 2 -14.5 10t-13.5 17q0 8 4 14q41 66 96 103q16 8 24 8q17 0 29 -13.5t12 -33.5v-4q-1 -15 -16.5 -55.5t-42.5 -97.5t-49 -101.5t-50.5 -100.5t-31.5 -61q-267 -536 -416 -889q-42 -97 -49 -144l-2 -20 q0 -16 -16 -16q-19 0 -19 35z" />
<glyph unicode="2" horiz-adv-x="1196" d="M-313 115q0 19 24 32q34 22 115.5 69.5t118.5 72.5q207 134 390.5 319t330.5 398q66 98 98.5 182t48.5 184q0 4 1 12t1 11q0 98 -108 98h-7q-77 -2 -182 -47q-50 -20 -108 -62q-77 -53 -103 -120q-9 -27 -35 -27h-6q-28 9 -28 43q0 14 8 25q10 14 12 16q176 176 363 221 q45 10 81 10h19q64 -3 102.5 -40.5t44.5 -100.5v-20q0 -63 -28 -142q-42 -112 -131 -248q-321 -486 -809 -780q-7 -3 -35.5 -22.5t-42.5 -26.5q27 2 80 2q168 0 460 -40.5t414 -47.5h2q7 0 25 28.5t39 28.5q30 0 30 -41v-6q0 -19 -10.5 -32t-32.5 -13h-22q-74 0 -242 21 q-1 0 -83.5 12t-128 17.5t-126.5 15t-150.5 14t-129.5 4.5q-160 0 -213 -35q-12 -6 -23 -6q-10 0 -17 6t-7 15z" />
<glyph unicode="3" horiz-adv-x="1247" d="M-166 403q0 98 86 195q2 2 4 2q10 0 10 -8q0 -2 -2 -4q-2 -4 -11.5 -19t-12.5 -19.5t-10.5 -17.5t-10.5 -19.5t-8.5 -18.5t-7.5 -21t-5 -21t-4 -24t-1 -25v-18q4 -41 12 -61q45 -139 154.5 -224.5t246.5 -85.5q36 0 93 11q355 79 530 407q49 93 49 186q0 135 -106 193 q-91 49 -215 49q-56 0 -121 -14q-16 -4 -25 -4q-15 0 -20 10q0 1 -1 3t-1 3q0 7 6 15t12 13.5t18.5 14.5t16.5 12q181 130 257 197q143 127 175 225q8 21 8 47q0 50 -51 84q-53 37 -145 37q-100 0 -198 -46.5t-148 -123.5q-8 -14 -21 -14q-12 0 -22.5 12t-10.5 23q0 6 2 8 q8 16 23 31q166 163 369 163q21 0 67 -4q79 -11 135 -56.5t56 -113.5q0 -26 -9 -53q-13 -46 -48 -96.5t-72.5 -89.5t-95.5 -86.5t-93.5 -74t-89.5 -64.5q-22 -13 -29 -25h35q57 0 107.5 -7.5t101 -26.5t86.5 -48.5t58 -77.5t22 -110v-21q-6 -113 -66 -215 q-186 -313 -534 -395q-53 -12 -103 -12q-110 0 -202 51q-198 107 -236 334q-4 24 -4 38z" />
<glyph unicode="4" horiz-adv-x="1255" d="M-102 754q0 34 41 75q19 18 54 53t54 52q94 84 192.5 177.5t229 219t188.5 180.5q56 56 74 60h6q9 0 15 -6.5t6 -14.5t-2 -10q-11 -17 -27 -37.5t-39 -45.5t-37.5 -40.5t-42.5 -44t-32 -33.5q-342 -345 -584 -542q-25 -17 -31 -31q4 -4 10 -5.5t14 -1.5t11 -1 q37 -2 113 -2q69 0 212 4t212 4q77 0 114 -2q29 0 39 24q169 367 252 531q13 26 25.5 69t20.5 75t25 59.5t42 33.5q4 2 14 2q15 0 24 -8t9 -22q0 -11 -2 -15q-7 -25 -36.5 -90t-80 -164.5t-85.5 -168.5t-92 -177.5t-61 -117.5q-10 -13 -10 -27v-4q18 -3 62.5 -7.5t77 -12 t59.5 -23.5q-3 -8 -8 -8q-1 0 -3 1t-3 1q-11 4 -22.5 7.5t-26 6t-23 4t-26 3t-22.5 2t-26 2t-24 1.5h-7q-25 0 -39 -26q-22 -47 -75.5 -160t-87.5 -186t-75 -170t-65 -168q-2 -6 -5 -15.5t-4.5 -15t-5 -10t-7.5 -4.5h-2q-10 2 -10 14q0 7 10 37q28 96 77 215.5t118.5 272.5 t95.5 214q-12 6 -68 6q-85 0 -329.5 -15t-288.5 -15h-37q-45 5 -45 41z" />
<glyph unicode="5" horiz-adv-x="1089" d="M-358 184q0 26 12 80q0 6 8 6q6 0 6 -8l-6 -37q-2 -10 -2 -30q0 -60 32 -102.5t93 -61.5q67 -21 137 -21q83 0 154 29q447 179 604 602q29 82 29 154q0 102 -53.5 174t-163.5 88q-20 4 -64 4q-142 0 -379 -96q-47 -19 -57 -21q-2 0 -5 -1t-5 -1q-14 0 -22.5 9t-8.5 22 q0 2 1 5t1 5q2 19 24 59q98 170 115 205q90 179 117 230q6 12 6 14q0 4 -2 8h-88q-24 0 -29 19v4q0 8 6 14t17 10t23 7t27.5 4.5t26 2.5t23 2t14.5 1q19 0 28 8t19.5 24.5t26.5 28.5q9 6 19 6q22 0 22 -20q0 -3 -4 -15q-10 -15 -10 -24v-6q6 -2 47 -2q17 0 77.5 1t100.5 1 q331 0 393 -60q9 -9 9 -14q0 -10 -11 -10q-4 0 -12 4q-46 33 -145 37q-90 4 -134 4q-102 0 -342 -17q-20 -2 -32 -24q-166 -328 -260 -467q-12 -18 -13 -23q1 0 3 -1t3 -1q9 0 21 8q85 31 128 45.5t119.5 32t137.5 17.5q87 0 160 -33q161 -72 161 -262q0 -106 -47 -219 q-111 -264 -370 -449q-105 -73 -198.5 -111t-192.5 -38q-71 0 -134 16q-84 21 -127 80q-34 45 -34 104z" />
<glyph unicode="6" horiz-adv-x="1052" d="M-293 326q0 2 2 4q23 37 160 164q20 15 31 47q213 609 694 1026q99 82 147 82h9q41 -5 41 -41q0 -26 -22 -55t-38 -29q-9 0 -12 8q-3 12 -10 12q-3 0 -15 -6q-69 -31 -133 -92q-373 -359 -561 -813q-8 -12 -8 -21q0 -1 1 -4t1 -4q12 2 29 19q126 95 274.5 184.5 t247.5 107.5q20 5 51 5q92 0 156 -54t67 -149v-15q0 -83 -31 -165q-133 -329 -389 -498q-127 -82 -243 -82q-83 0 -162 43q-72 41 -105.5 124.5t-33.5 182.5q0 52 10 107q2 6 3.5 13t3.5 16.5t3 15.5q-24 -11 -87 -74.5t-69 -65.5h-2q-10 0 -10 7zM-88 295q0 -238 178 -283 q42 -10 74 -10q159 0 325 162q143 137 238 342q42 88 45 194q0 84 -53 129t-131 45q-29 0 -56 -6q-103 -21 -263 -118.5t-289 -196.5q-16 -12 -21 -27q-47 -129 -47 -231z" />
<glyph unicode="7" horiz-adv-x="1292" d="M-129 -49q0 13 25.5 55t70.5 104t100.5 134.5t122.5 156.5t128.5 160t125.5 154.5t107.5 130.5t81 97.5t39.5 47.5q26 31 206.5 239t221.5 265q16 29 16 47q0 28 -49 31h-158q-79 0 -258 -17q-132 -12 -137 -12q-40 0 -90 21q-13 6 -24 25.5t-11 37.5q0 21 14 29 q9 6 19 6t21.5 -9.5t22.5 -21t37.5 -21t61.5 -9.5q3 0 12 1t13 1q42 4 101 10t91.5 9.5t76.5 6t85 2.5q62 0 148 -6q44 -3 65 -24.5t21 -53.5q0 -46 -33 -84q-129 -155 -217 -250q-309 -338 -776 -915q-68 -85 -95 -119t-71 -94.5t-86 -124.5q-9 -18 -19 -18q-6 0 -8 2t-2 6 z" />
<glyph unicode="8" horiz-adv-x="1114" d="M-262 190q0 116 108 299q190 321 428 545q13 9 17 19q-4 6 -85 55t-110 84q-30 37 -30 76q0 120 264 266q254 137 422 137q33 0 63 -6q61 -10 91 -46t30 -91q0 -28 -6 -58q-55 -238 -228 -417q-57 -62 -98 -62h-2q-26 0 -38.5 14.5t-12.5 34.5q0 13 6 22t16 9q7 0 11 -2 q8 -4 12 -4q9 0 27 18q131 142 239 357q20 38 23 98q0 84 -133 84h-25q-120 -9 -301 -93.5t-268 -170.5q-52 -52 -52 -92q0 -21 11.5 -39.5t34.5 -36.5t45 -31.5t55 -33t53 -33.5q9 -9 19 -9q7 0 22 11q79 69 195 133q6 3 14.5 8t13.5 7.5t9 2.5q5 0 8 -6q2 -2 2 -6 t-4.5 -7.5t-10.5 -6.5t-8 -5q-45 -24 -124 -77t-89 -74q67 -50 94 -71t72 -64.5t78 -89.5q96 -134 96 -279q0 -79 -26 -156q-121 -361 -488 -446q-65 -14 -112 -14q-104 0 -193 45q-135 66 -135 202zM-223 193q0 -101 88 -156q83 -53 209 -53q5 1 29 2.5t38 3.5 q353 71 482 403q32 82 32 166q0 72 -25 139t-71 125.5t-99.5 106.5t-123.5 96q-9 6 -17 6q-6 0 -26 -20q-253 -241 -438 -582q-78 -144 -78 -237z" />
<glyph unicode="9" horiz-adv-x="997" d="M-84 840v8q0 92 109 266q312 474 555 506q8 2 24 2q70 0 110 -54.5t42 -125.5l92 100q8 8 20 8q10 0 18.5 -6t8.5 -16q0 -4 -4 -12q-8 -24 -23 -54q-112 -204 -250 -532q-33 -79 -102.5 -226t-77.5 -165q-71 -148 -174 -463q-4 -13 -14 -39.5t-16.5 -48t-10.5 -41.5 q0 -15 -10 -15t-10 15v4q31 199 246 719q192 468 315 723q2 2 2 6q0 6 -2 10q-11 -12 -66.5 -71t-87 -92t-94.5 -96.5t-106.5 -104t-104.5 -94t-107.5 -87t-96 -61t-87.5 -37.5q-20 -4 -28 -4q-67 0 -70 78zM-49 842q0 -45 35 -45h6q38 3 94 33t114.5 74.5t99 79t77.5 67.5 q91 86 334 338q20 20 26 32h-8q-28 0 -47 35q-6 10 -16 30t-15 27.5t-14 18.5t-19.5 14.5t-25.5 3.5h-14q-66 -8 -140.5 -54t-137.5 -108.5t-125 -140.5t-105 -143.5t-76 -124.5q-14 -25 -28.5 -66t-14.5 -71z" />
<glyph unicode=":" horiz-adv-x="512" d="M59 342q0 15 9 29t22 18q24 6 47 6q25 0 25 -20v-4q-7 -45 -39 -70q-6 -4 -19 -4q-36 0 -43 33q-2 4 -2 12zM217 715q0 18 11 31.5t28 13.5h2q15 0 32 -12t17 -23v-2q-1 -20 -17.5 -36.5t-33.5 -16.5h-2q-17 1 -27 13.5t-10 31.5z" />
<glyph unicode=";" horiz-adv-x="675" d="M143 195q0 9 11 24q61 69 94 115q10 16 26 16q7 0 11 -2q18 -9 22 -41q-3 -34 -26 -51q-18 -16 -95 -74q-12 -8 -20 -8q-10 0 -16 6q-7 7 -7 15zM360 700q0 17 10 32.5t25 21.5q6 2 17 2q20 0 32 -15q11 -11 11 -18q0 -12 -17.5 -35t-29.5 -26q-6 -3 -13 -3 q-14 0 -24 11.5t-11 29.5z" />
<glyph unicode="&#x3c;" horiz-adv-x="974" d="M125 571q0 45 106 97q23 12 160 87t237.5 124.5t157.5 66.5q24 8 37 8q9 0 21 -4q22 -8 22 -28q0 -7 -3.5 -13t-8.5 -6h-4q-6 2 -16 2q-6 0 -13.5 -2t-12 -4.5t-12.5 -7t-12 -6.5q-37 -20 -250.5 -140t-314.5 -167q-10 -5 -12 -13q7 -8 38.5 -29.5t71 -45.5t93.5 -56 t92.5 -54t82 -47t48.5 -28q4 -2 13 -7.5t14.5 -8.5t12 -8t10 -9.5t3.5 -9.5q0 -6 -2 -8q-7 -10 -14 -10q-11 0 -23 8q-8 4 -76.5 38.5t-121 61.5t-120 63t-114 63.5t-63.5 43.5q-27 24 -27 49z" />
<glyph unicode="=" horiz-adv-x="997" d="M-158 461v2q0 7 2 11.5t7.5 7.5t9 5t11.5 4t11 3q41 9 84 12q175 10 209 10q20 -1 70.5 -3t77.5 -3.5t68.5 -5t77 -9.5t69.5 -14q15 -4 67 -22q17 -9 17 -17v-6q-5 -10 -15 -10q-8 0 -12 2q-54 18 -150 29q-73 8 -170 8q-86 0 -172 -6q-21 -1 -97.5 -8t-119.5 -7 q-3 0 -11.5 -1t-12.5 -1q-18 0 -21 19zM-76 672q0 12 25 24q29 12 104 21q100 10 307 14h43q121 0 203 -14q2 0 10.5 -1t12.5 -1.5t10 -3t9 -6.5t3 -11v-4q-2 -12 -16 -12q-5 0 -35 6q-52 8 -117 8q-23 0 -48 -1t-55.5 -2.5t-47.5 -2.5q-108 -5 -359 -35q-2 0 -6 -1t-6 -1 h-10q-20 0 -25 15q0 1 -1 4t-1 4z" />
<glyph unicode="&#x3e;" horiz-adv-x="944" d="M139 303q0 4 4 12q36 35 262 179t267 174q3 2 9 5.5t10 6t8 7.5t6 11q-64 29 -125 52t-90 32.5t-112 33t-114 32.5q-15 5 -59 24q-17 10 -17 25q0 22 29 25q36 0 94 -15q246 -56 420 -145q57 -31 57 -62q0 -28 -47 -63q-74 -54 -278 -170t-283 -170q-12 -10 -24 -10 q-17 0 -17 16z" />
<glyph unicode="?" horiz-adv-x="1515" d="M129 94v4q0 19 15 34.5t34 17.5h4q17 0 28 -12.5t11 -31.5q0 -23 -14 -38t-35 -15q-17 0 -30 12t-13 29zM268 385q0 3 1 6t2.5 6.5t2.5 5.5q23 66 68 129q77 117 239 298.5t271 275.5q40 33 89.5 78.5t113 112t115.5 131.5t91.5 136.5t47.5 127.5q4 28 4 41 q0 64 -36 112.5t-101 71.5q-53 20 -115 20q-52 0 -111 -16q-175 -50 -327 -186q-19 -15 -48 -56q-14 -14 -14 -24q0 -13 14 -21q11 -11 11 -16q0 -14 -17 -21q-29 -8 -41 -10q-23 0 -37 14t-16 37v7q0 21 14 49q31 57 72 90q189 158 400 207q11 2 23.5 3t28 1.5t23.5 1.5 q72 0 142 -25q192 -62 192 -243q0 -18 -4 -54q-10 -62 -59 -142.5t-123 -163.5t-143 -151.5t-144 -134.5q-97 -86 -256 -245q-142 -145 -256 -297q-58 -79 -86 -144v-2q-2 -2 -3.5 -6.5t-3 -7.5t-4 -5.5t-5.5 -2.5q-1 0 -3.5 1t-3.5 1q-8 3 -8 10z" />
<glyph unicode="@" horiz-adv-x="1466" d="M102 379q0 28 4 82q21 214 146 399q168 239 471 277q27 4 80 4q144 0 270 -60q95 -44 147 -120.5t52 -167.5q0 -85 -41 -160q-123 -231 -352 -316q-40 -16 -76 -16h-10q-40 0 -67.5 24.5t-31.5 65.5q0 3 -1 9.5t-1 9.5q0 26 17 79q6 17 18 47t16 39q-16 -2 -32 -18 q-82 -58 -125 -80q-32 -16 -66 -16q-32 0 -51.5 19t-19.5 50v9q6 39 26 67q72 106 184 174q47 24 86 27h9q54 0 86 -37q34 -40 34 -53t-22 -55q-56 -98 -86 -168q-23 -52 -23 -80v-11q0 -63 58 -63q2 0 7.5 1t8.5 1q33 4 84 27q211 88 297 288q25 55 31 111q0 5 1 14.5 t1 14.5q0 153 -133 227q-138 78 -285 78q-41 0 -84 -6q-390 -56 -528 -451q-49 -131 -49 -266q0 -91 24 -182q5 -18 23 -62q74 -160 252 -172q7 0 20.5 -1t20.5 -1q80 0 208 33q240 68 404 190q11 11 14 11l10 -5q-1 -6 -4 -11.5t-6.5 -8t-9.5 -6.5t-8 -6q-96 -73 -236 -135 q-194 -86 -344 -103q-14 -2 -45 -2q-67 0 -131 21q-137 44 -192 186q-50 117 -50 254zM530 535q51 10 133.5 68t104.5 97q-4 2 -14 2q-52 0 -120.5 -51t-103.5 -116z" />
<glyph unicode="A" d="M31 483q0 20 11.5 36t29.5 16q1 0 16 -5q12 -4 18 -4q12 0 27 6q405 144 780 207q41 8 60 43q325 549 848 1170q54 64 126.5 140.5t172.5 173t200 165t168 80.5q20 4 31 4q66 0 102 -54.5t39 -129.5v-27q0 -105 -36.5 -249.5t-104 -313.5t-125.5 -300.5t-139.5 -305.5 t-108.5 -234q16 -4 23 -4q15 0 35 4q288 21 413 21h58q22 0 24 -17q0 -18 -20 -18q-4 0 -12 1t-11 1q-48 -1 -96 -3t-108.5 -7t-91 -7.5t-108 -10t-95.5 -9.5q-23 -2 -45 -15t-31 -32q-105 -220 -361.5 -746t-429.5 -901q-8 -16 -41.5 -78.5t-50.5 -99.5q-1 -3 -4.5 -10 l-5 -10t-5 -8t-6 -7t-6.5 -4t-8 -2t-16 4q-12 6 -12 23q0 23 18 53l131 221q162 349 394.5 835t346.5 728q9 18 9 26v5h-9q-74 0 -446 -61.5t-504 -88.5q-45 -9 -65 -43q-77 -121 -189 -318.5t-162 -308.5q-8 -19 -8 -28q0 -10 11.5 -21t11.5 -28t-4 -29q-21 -79 -99 -154 q-23 -20 -55 -20t-57 22.5t-25 57.5q0 14 6 32q29 82 168 325t248 423q20 30 23 43q-12 4 -15 4q-2 0 -26 -6q-323 -72 -625 -178q-90 -31 -121 -31q-14 0 -20 2q-41 14 -41 55zM1090 772q559 75 946 115q33 3 43 33q14 30 90.5 191t116 248t101.5 227t102 250t63 196 q45 164 45 274q0 141 -82 141q-33 0 -92 -30q-105 -60 -245 -192.5t-259 -266.5q-404 -450 -735 -1010q-65 -109 -94 -176z" />
<glyph unicode="B" horiz-adv-x="2805" d="M59 -430q0 60 23 131q35 105 101 205.5t151 185t175 154.5t191 131q40 21 62 72q275 682 524 1222q22 47 44.5 94t49.5 100.5t46 91t52 99.5t48 90t53 99t49 92q4 8 4 12q0 8 -12 17t-12 18q0 7 6 22q46 77 112 121q11 8 31 8q26 0 44 -16.5t18 -48.5q0 -28 -21 -72 q-27 -52 -126.5 -235t-147.5 -277q1 0 3 -1t3 -1q54 59 119 121.5t157.5 140.5t179.5 137.5t181 100.5t166 41h14q90 -5 90 -101q0 -34 -16 -92q-25 -77 -79.5 -164t-112 -158t-143.5 -158t-143.5 -140t-142.5 -129q-5 -4 -15.5 -14.5t-17.5 -16.5q1 0 5 -1t6 -1 q7 0 96 14.5t166 14.5q134 0 264 -41q145 -45 227 -157.5t82 -262.5q0 -31 -2 -45q-18 -198 -141 -432q-327 -630 -930 -1026q-235 -157 -489.5 -257t-495.5 -100q-85 0 -164 15q-144 23 -238 137.5t-94 259.5zM117 -432q0 -118 74.5 -213.5t189.5 -120.5q73 -16 172 -16 q279 0 577 135q862 399 1297 1237q127 244 127 432q0 59 -14 108q-57 210 -275 265q-121 28 -227 28q-225 0 -432 -110q-42 -21 -52 -21q-14 0 -26 15q-6 9 -6 20q0 21 28 41q27 23 103 87.5t118 100.5t116.5 103t121.5 114t109 114t102.5 122t78.5 119t60 123q17 45 17 69 q0 36 -29 39h-14q-68 0 -162.5 -46.5t-187 -115.5t-186 -153t-161.5 -155t-112 -124q-193 -236 -295 -454q-135 -286 -381 -826q0 -1 -3 -7t-3 -9q0 -6 2 -10q161 69 269 100t284 59q323 48 501 48q70 0 105 -2q59 -4 86.5 -7t74.5 -13.5t81 -27.5q12 -6 12 -22 q0 -15 -10 -25q-8 -8 -21 -8q-8 0 -14 6q-3 3 -11 19t-14 18q-125 29 -282 29q-214 0 -508 -53q-304 -57 -563 -191q-44 -19 -60 -59q-132 -342 -194 -609q-2 -3 -10.5 -7.5t-16.5 -4.5q-18 0 -29 19q0 1 -1 3t-1 3q0 8 4 20t9.5 26t7.5 21q15 64 70 242t81 246q1 2 2.5 6 t2.5 7t1 5l-2 2q-6 0 -10 -4q-94 -62 -176.5 -129t-165 -151.5t-140.5 -182.5t-81 -198q-8 -33 -8 -76z" />
<glyph unicode="C" horiz-adv-x="2871" d="M139 -16q0 233 75.5 492t197.5 490t278 450.5t315.5 390t311.5 292.5q99 84 203 156t228 140t257.5 107.5t255.5 39.5q71 0 139 -15q99 -22 164.5 -101.5t65.5 -178.5q0 -23 -2 -35q-15 -142 -66 -266q-104 -249 -258 -457q-37 -51 -72 -51q-23 0 -38 18.5t-17 40.5v4 q0 34 20.5 69.5t47.5 53.5q52 35 126.5 166.5t108.5 218.5q38 97 53 199q2 12 2 37q0 82 -49 138t-135 68q-54 7 -94 7q-322 0 -746 -304q-185 -132 -371 -317.5t-354 -412.5t-298.5 -467.5t-207.5 -500t-77 -491.5q0 -116 16 -207q56 -344 408 -446q122 -29 229 -29 q119 0 246.5 29t247 77t247.5 121t240.5 150t235 177t221.5 188.5t209 196.5t189.5 190t170.5 180q20 20 33 20q8 0 8 -8q0 -16 -27 -43q-32 -32 -137 -151q-152 -165 -305 -313t-356 -311t-396 -279.5t-412.5 -192.5t-416.5 -76q-167 0 -307 49q-321 115 -385 455 q-23 131 -23 242z" />
<glyph unicode="D" horiz-adv-x="2465" d="M18 -139q0 155 68 291q70 142 162.5 266t207 229.5t228 190.5t260.5 178q8 5 31 17.5t38 22.5t27 23q10 12 18.5 27.5t19.5 42t14 33.5q223 455 481 792q40 54 62 66q11 6 20 6q10 0 16 -4q15 -9 15 -29q0 -12 -5.5 -28t-10.5 -25t-16 -28.5t-12 -20.5l-405 -686 q-16 -32 -18 -35q4 -2 8 -2q5 0 10.5 3.5t7.5 4.5q73 39 107.5 56.5t90 39.5t113.5 37q1 0 3.5 1t3.5 1q6 0 11 -3.5t5 -8.5q0 -10 -25 -16q-60 -17 -131 -50.5t-105.5 -53.5t-121.5 -71q-17 -9 -33 -36q-82 -148 -201.5 -406t-230.5 -549t-129 -432q-3 -31 -20 -31 q-8 0 -13.5 6t-5.5 13v8q0 218 433 1265q4 10 6.5 16t5.5 14t6 14q-9 -3 -21 -9q-116 -76 -206 -141t-192 -150.5t-180.5 -169.5t-152.5 -188.5t-127 -216.5q-63 -135 -63 -287q0 -54 10 -122q17 -108 80 -180.5t148 -103t188 -30.5q80 0 174 23q384 95 671 325 q451 365 707 742q222 327 328 657q61 186 61 422q0 229 -61 412q-56 161 -185 256.5t-295 95.5h-4q-530 0 -1011 -342q-23 -17 -32 -34.5t-8 -29t-5 -24.5t-25 -23q-2 -1 -18.5 -10t-27 -14t-26.5 -10t-28 -5q-27 0 -39 23q-6 12 -6 25q0 12 10 27t16 21t23 21 q87 79 276 195q208 125 414.5 186t450.5 72h22q168 0 330.5 -107t224.5 -284q53 -143 66 -330q4 -74 4 -111q0 -362 -185 -735q-259 -518 -723 -940q-122 -110 -229 -191.5t-231.5 -156t-261.5 -123.5t-287 -74q-44 -8 -99 -8q-95 0 -190 31q-201 65 -254 268 q-27 102 -27 199z" />
<glyph unicode="E" horiz-adv-x="3012" d="M33 -115q0 24 4 70q15 163 81 314t162 269.5t227 226.5t262 187t282 150q111 52 286 100q62 18 80 29q-29 6 -96 15.5t-113.5 18.5t-104 25t-103 42.5t-76.5 62.5q-52 60 -52 135q0 87 70 196q105 165 234 283q324 292 704 457q153 65 313 65q112 0 205 -37 q79 -31 116.5 -94t37.5 -143q0 -52 -17 -115q-59 -207 -239 -463q-104 -145 -185 -145q-28 0 -43.5 17t-15.5 42q0 9 4 25q8 23 22 50t38.5 55t46.5 28q6 0 10 -2q2 0 5 -1t5 -1q18 0 31 20q237 331 237 508q0 107 -90 144q-77 32 -178 32q-162 0 -323 -77 q-255 -117 -492 -299.5t-371 -391.5q-55 -86 -55 -155q0 -47 27 -84t66 -60.5t100 -42t109.5 -27.5t113.5 -18q129 -11 133 -12q6 -1 23 -1.5t25.5 -2t17.5 -10t10 -23.5v-6q0 -9 -3.5 -16t-12 -12t-14.5 -7t-18 -5.5t-16 -4.5q-94 -35 -147 -47q-284 -74 -606 -281 q-169 -108 -291.5 -223t-197.5 -235t-114.5 -238.5t-54.5 -253.5q-2 -16 -2 -51q0 -77 20.5 -154t71 -157.5t126 -141.5t197.5 -100t273 -39q75 0 140 8q325 33 623.5 172.5t592.5 364.5q88 67 178 142.5t193.5 169.5t165 150.5t181 169.5t152.5 144q15 18 33 18 q12 0 12 -10t-18 -31q-512 -492 -877 -782q-306 -244 -614.5 -392t-632.5 -173q-70 -4 -100 -4q-153 0 -281 36t-218 98t-153 146.5t-92.5 181t-29.5 201.5z" />
<glyph unicode="F" horiz-adv-x="1863" d="M10 2034q0 21 19 37q11 10 32 20t40.5 16.5t51.5 14t48.5 10.5t49 9t36.5 7q366 70 667.5 109t589.5 39h43q22 0 35 20q25 39 65.5 94t59.5 68q13 10 33 10q23 0 39 -17t16 -40q0 -2 -1 -6t-1 -6q-2 -12 -12 -30.5t-19 -32t-25 -35t-20 -27.5q18 -6 45 -6 q854 -39 1319 -164q5 0 12 -1.5t16 -8.5t9 -19q0 -2 -1 -5t-1 -5q-5 -19 -31 -19q-25 0 -51 13q-48 22 -152 51q-156 45 -456 72q-383 33 -703 41h-6q-29 0 -42.5 -9.5t-35.5 -40.5t-47 -55q-39 -39 -330 -556.5t-356 -645.5q-8 -8 -8 -18q0 -1 1 -4.5t1 -4.5h16q29 0 41 2 q266 23 486 23q60 0 174 -4q35 -2 66.5 -7t49 -11t17.5 -11q0 -16 -117 -16h-51q-182 0 -500 -31q-34 -3 -101 -11.5t-101 -11.5q-30 -3 -41 -28q-9 -18 -29.5 -58.5t-33.5 -66.5t-27.5 -61.5t-20.5 -63.5q-74 -339 -170.5 -609t-249.5 -585q-69 -117 -112 -147 q-26 -15 -41 -15q-26 0 -44 25t-18 69q0 3 1 11t1 12q6 75 45 207q36 117 68 204.5t53.5 138t85.5 195.5q48 107 92.5 196t106.5 206t100 190q39 80 39 131v6q0 11 -16 11q-11 0 -29 -6q-8 -1 -107 -20.5t-122 -20.5h-7q-22 0 -35.5 8.5t-13.5 21.5q0 25 35 39 q41 20 132 38.5t159 25.5q9 2 11.5 2.5t11 14.5t14.5 42q35 171 35 369q0 182 -36.5 322t-119.5 190q-86 52 -189.5 83.5t-178.5 39t-141.5 17t-88.5 24.5q-29 19 -29 45zM121 2040q34 -7 110.5 -20.5t113 -21.5t95.5 -24.5t109 -39.5t102 -56q201 -122 201 -573v-15 q0 -100 -10 -207.5t-27 -162.5q1 3 4 8t4 8q111 221 354 644.5t382 639.5l4 5q4 5 4 9q0 1 -4 9q-221 0 -530 -36.5t-558 -84.5q-252 -49 -307 -64q-32 -5 -47 -18zM229 -657q60 59 156.5 280t169 427t109.5 335q-19 -6 -127.5 -240t-143.5 -321q-164 -418 -164 -481z" />
<glyph unicode="G" horiz-adv-x="3299" d="M31 164q0 524 356 1073q270 418 664.5 738t851.5 470q219 72 428 72q183 0 327 -55q134 -51 223.5 -174t90.5 -258q0 -72 -35.5 -164.5t-100 -168.5t-133.5 -89q-6 -2 -16 -2q-28 0 -44.5 16.5t-16.5 44.5q0 10 2 16q2 13 6.5 26.5t11.5 27.5t12 23t15.5 25.5t13.5 22.5 q8 13 25 13h22q25 0 37 22q63 108 63 197q0 88 -61 190q-37 63 -112.5 104t-148 55.5t-153.5 16.5h-41q-215 0 -442 -79q-400 -142 -780.5 -440t-640.5 -683q-172 -255 -263.5 -543.5t-91.5 -574.5v-27q3 -215 98 -380t283 -238q122 -47 254 -47q153 0 305 55.5t332 153.5 q240 164 512 461.5t418 547.5q19 24 58.5 120t45.5 108q-197 -14 -269 -20t-210.5 -27t-267.5 -54q-6 -2 -21 -2q-21 0 -34 9t-13 24q0 16 15.5 33.5t48.5 36.5t94 37.5t143 31.5q188 31 535 31q49 0 67 35q39 75 74 108t60 33q19 0 30 -14t11 -33q0 -8 -3 -14 q-8 -27 -51 -111q8 -8 27 -8h16q444 -28 607 -115q22 -13 22 -33q0 -22 -27 -22q-10 0 -16 2q-1 0 -72 23q-81 23 -175.5 35t-162 14t-176.5 2h-78q-27 0 -38 -17q-97 -151 -343.5 -707.5t-265.5 -666.5q-2 -10 -17.5 -79t-26.5 -129.5t-11 -96.5q0 -15 4 -31q0 -1 1 -3.5 t1 -4.5q0 -12 -16 -12q-11 0 -22.5 13.5t-12.5 39.5v18l6 105q20 239 151 586t273 610q-118 -215 -367 -476t-495 -425q-360 -221 -674 -221q-144 0 -272 43q-83 27 -150.5 77.5t-113 113.5t-78.5 142t-50.5 157.5t-25.5 164.5q-6 61 -6 121z" />
<glyph unicode="H" horiz-adv-x="2824" d="M49 303q0 43 45 68q83 51 177.5 92t209.5 74t189 51t204 47q207 47 404 84q42 9 55 47q140 342 339.5 746t365.5 655q153 227 209 272q24 17 43 17q25 0 41 -18.5t16 -47.5q0 -61 -68 -129q-16 -16 -24 -16q-2 0 -6 1t-6 1q-15 0 -45 -39q-175 -232 -396 -644t-383 -769 q-14 -33 -16 -50q23 0 61 7t47 8q248 42 409.5 60t354.5 18h23q26 0 26 -17v-2q-2 -20 -28 -20q-242 -15 -375 -33.5t-391 -71.5q-16 -3 -61.5 -13t-71.5 -13q-39 -5 -56 -47q-90 -207 -190 -467t-145 -424q-29 -104 -29 -203q0 -35 6 -53q2 -4 2 -15q0 -14 -10 -23t-21 -9 q-26 0 -32 28q-7 28 -7 51q0 7 5 37q20 90 32 135q108 391 312 912q14 37 14 41q0 8 -8 8q-4 0 -8 -2q-58 -16 -163.5 -42.5t-148.5 -37.5q-249 -65 -739 -250q-29 -11 -33 -23.5t-20 -23.5q-26 -16 -49 -16q-26 0 -43 17t-17 42zM1753 -1300q40 177 86 331 q205 729 619 1821q123 327 376.5 888.5t387.5 745.5q25 36 39.5 47.5t46.5 20.5q57 0 57 -57q0 -26 -15 -55.5t-38 -49.5q-19 -15 -43 -55q-26 -46 -120.5 -200t-139.5 -245q-333 -682 -488 -1063q-145 -362 -341 -897t-308 -909q-73 -247 -88 -334q-3 -10 -19 -10 q-12 4 -12 16v5z" />
<glyph unicode="I" horiz-adv-x="1161" d="M25 1444q0 12 2 20q19 76 77 150q179 242 353 421.5t391 319.5q248 156 391 156h8q98 -3 166.5 -69t79.5 -167q2 -16 2 -45q-1 -77 -26 -178.5t-72 -219t-96 -227t-119 -242.5t-118.5 -223.5t-116.5 -212.5t-93 -169q-357 -654 -610 -1231q-72 -165 -113 -287 q-8 -24 -18 -24q-4 0 -7.5 4.5t-3.5 9.5v4q23 105 179 465q256 604 700 1431q181 337 263 517q177 391 177 579q0 19 -4 51q-13 72 -60.5 114t-115.5 42q-11 0 -39 -4q-109 -19 -261.5 -119t-272.5 -205q-224 -195 -439 -481q-63 -82 -65 -147q-3 -36 -30 -58t-58 -22 q-51 0 -51 47z" />
<glyph unicode="J" horiz-adv-x="2099" d="M4 -621q0 135 47 259q137 349 310.5 589.5t457.5 458.5q408 313 793 518q170 91 428 197q39 13 53 55q27 73 42 117t36.5 117.5t32 140t10.5 127.5q0 119 -43 201q-73 149 -250 149q-61 0 -158 -22q-161 -41 -368 -140.5t-363 -203.5q-182 -120 -393 -363 q-96 -108 -141 -219q-24 -74 -58 -74q-8 0 -12 2q-31 11 -31 45q0 20 15 60q52 125 139 231q103 122 267 250t347 233.5t380.5 176t355.5 77.5h20q90 0 158 -33t108.5 -91t60 -130.5t19.5 -158.5q0 -22 -4 -72q-18 -159 -90 -373q-14 -33 -14 -51v-6q43 17 124.5 36 t116.5 31q24 9 41 9q41 0 41 -35q0 -17 -10 -27q-8 -8 -14 -8t-13 15.5t-18 15.5h-2q-36 -4 -124 -30.5t-138 -45.5q-29 -10 -39 -33q-115 -284 -338 -673t-414 -646q-75 -101 -146.5 -189t-160.5 -185.5t-176 -177.5t-189 -155.5t-204 -129.5q-156 -82 -254 -82 q-40 0 -84 12q-145 43 -154 203v28zM47 -618q0 -24 4 -56q10 -71 60 -106t120 -35h23q82 5 204.5 71.5t213.5 135.5q144 110 291.5 263.5t277.5 324t240.5 338.5t208.5 341q5 9 35.5 62.5t38 66.5t34.5 61.5t37 66.5t34 62t36 67.5t32 63t34 68t30.5 64t30.5 68.5 q18 31 18 49h-4q-19 0 -35 -12q-699 -300 -1255 -762q-237 -198 -384.5 -413t-271.5 -521q-23 -54 -38 -129t-15 -139z" />
<glyph unicode="K" horiz-adv-x="1841" d="M20 -725q0 21 15 66q21 87 49 181t67 205t65.5 182t77.5 203.5t68 178.5q6 18 7 24q-54 4 -76 4q-63 0 -103 -30q-54 -43 -92 -43q-37 0 -37 30q0 24 29.5 50.5t85.5 44.5q34 10 55 26q200 133 201 133q32 19 47 60q272 674 645 1378q139 260 322 483q30 43 65 43 q15 0 33 -12q19 -14 19 -39q0 -23 -21 -51q-93 -125 -179 -259t-176.5 -299t-143.5 -266t-154 -300q-184 -361 -293 -604q3 -3 6 -9q7 5 20.5 15.5t20.5 15.5q308 240 887 715q504 413 708 594q8 7 79.5 73.5t124.5 112.5t77 60q15 10 35 10q24 0 38.5 -16.5t14.5 -39.5 q0 -41 -39 -55q-30 -12 -63 -45q-149 -142 -311 -276.5t-388 -311.5q-119 -94 -386.5 -310.5t-470.5 -375.5t-394 -297q-37 -25 -49 -59q-8 -23 -18 -44t-14.5 -31t-4.5 -15q0 -9 20 -13.5t90 -26t158 -63.5q151 -72 266 -132t262 -146t268.5 -181t207.5 -192q22 -22 22 -35 q0 -4 -4 -8q-2 -2 -8 -2q-10 0 -22 16q-292 323 -1098 660q-74 32 -164 51q-6 2 -14 2q-17 0 -25 -20q-9 -21 -43 -103t-45 -109t-41.5 -101t-44.5 -109.5t-39.5 -102t-41 -110.5t-36 -103t-37.5 -112.5t-32 -106.5l-5 -20t-5 -19.5t-6 -15.5t-7.5 -12t-9.5 -4h-6 q-9 3 -9 18zM301 371q70 0 85 7.5t30 49.5q-3 -2 -32 -15t-53.5 -25t-29.5 -17z" />
<glyph unicode="L" horiz-adv-x="1501" d="M27 -549q0 289 272 907q141 320 467 922q17 31 85 158t109 203t115.5 204t130.5 213t125 174.5t127 141.5q46 41 76 41q16 0 24.5 -10t8.5 -25q0 -16 -11 -31q-6 -8 -20 -22q-44 -46 -88 -100.5t-92 -126.5t-80 -120.5t-85 -141t-72 -125.5t-76 -136.5t-64 -116.5 q-141 -252 -236 -430t-223 -432t-223 -486t-154 -434q-43 -141 -43 -235q0 -166 142 -166h4q163 2 473 156q388 188 831 270q142 23 222 23q53 0 106 -9q2 0 9 -1t11 -1.5t9 -1.5t7.5 -4.5t2.5 -7.5v-2q-2 -8 -12 -8h-7q-49 8 -112 8q-73 0 -160 -13.5t-144 -27.5t-157 -41 q-309 -86 -592 -229q-314 -161 -485 -172h-19q-82 0 -135.5 48.5t-62.5 131.5q-4 32 -4 55z" />
<glyph unicode="M" horiz-adv-x="2506" d="M2 -317q1 87 53 222.5t109 237.5q420 746 729 1209q90 132 208 277t206 202q26 16 43 16q23 0 51 -28q6 4 10.5 9t9 13.5t6.5 11.5q400 612 422 637q17 17 41 17q20 0 34.5 -16t14.5 -46q0 -28 -10 -57q-33 -97 -147 -371q-28 -70 -159.5 -387t-195.5 -491 q-172 -458 -317 -981q-90 -315 -90 -377v-2q15 4 33 26q101 116 223 287q383 529 799 1149q302 451 579 830q39 53 115 175.5t129 188.5q28 35 55 35q12 0 20.5 -9.5t8.5 -21.5t-4 -18q-32 -63 -74 -138.5t-70.5 -123.5t-84.5 -141t-76 -126q-177 -299 -299 -604 q-7 -16 -61 -144t-81 -196q-17 -44 -35.5 -97t-30 -90t-32 -101.5t-29.5 -94.5q-46 -151 -112 -444q-29 -128 -58 -359t-37 -378q-4 -78 -4 -140q0 -236 76 -325q10 -10 10 -25q0 -8 -5 -13t-13 -5q-16 0 -27 14q-99 102 -104 373v82q0 418 63 753q81 433 209 782.5 t348 794.5q1 2 8 17t13 26q-15 -10 -41 -47q-329 -469 -668 -987q-69 -107 -140 -215t-202.5 -302.5t-237 -332t-153.5 -172.5q-27 -18 -51 -18q-27 0 -45 19.5t-21 53.5v23q0 110 73.5 399t138.5 498.5t116 361.5q56 165 139 373.5t133.5 326t159.5 369.5q-12 -8 -33 -34 q-747 -1093 -1267 -1979q-216 -370 -260 -417q-26 -29 -56 -29q-24 0 -39.5 18.5t-15.5 50.5v5zM186 -57v-6l217 360q125 202 277.5 433.5t338 506.5t288.5 432q16 20 16 35q0 10 -4 16q-17 -9 -35 -30q-302 -326 -887 -1342q-122 -208 -196 -364q-15 -25 -15 -41z" />
<glyph unicode="N" horiz-adv-x="2805" d="M14 -872q0 24 11 63q39 102 86 246q142 418 440.5 984.5t581.5 997.5q73 111 165 242t227.5 314t261 317.5t200.5 167.5q27 12 53 12q37 0 62.5 -25t31.5 -69q4 -32 4 -47q0 -51 -14 -119q-41 -217 -120.5 -492.5t-178.5 -590t-148 -496.5q-115 -424 -180 -830 q-20 -118 -20 -219q0 -134 41 -207q17 -32 38 -32q12 0 27 6q54 17 123 85.5t129.5 154t123.5 189t102 176.5t67 130q234 487 559 1284q55 133 156.5 376t134.5 322q10 23 47 116t53.5 130t52.5 102t74 115q27 37 51 37q9 0 15 -7t6 -17q0 -19 -19 -35q-33 -26 -61.5 -64 t-44.5 -68.5t-39 -80.5q-119 -271 -354 -866q-312 -802 -480 -1197q-49 -114 -106.5 -232t-142.5 -272.5t-180.5 -276t-180.5 -171.5q-65 -39 -117 -39q-51 0 -89.5 34.5t-59 89.5t-30 113.5t-9.5 117.5v16q0 31 2.5 66.5t5 60t8.5 68t8.5 59.5t10.5 67.5t10 61.5 q51 297 132.5 602t197.5 672q196 625 252 879q32 141 32 204q0 27 -20 27q-21 0 -55 -23t-50 -39q-227 -220 -364 -405q-158 -222 -260 -375q-32 -46 -68 -103t-57.5 -93t-65.5 -110.5t-59 -98.5q-161 -269 -297 -527q-30 -58 -62 -122t-71.5 -147t-58.5 -122 q-125 -252 -162 -346q-69 -165 -143 -386t-101 -362q-6 -33 -20.5 -47t-42.5 -14h-7q-45 3 -45 68z" />
<glyph unicode="O" horiz-adv-x="2097" d="M29 -256q0 153 57 368.5t122 380.5t142 330l117 246q12 21 12 49q0 13 -2 19q-12 83 -12 163q0 298 127 595t313 485q246 246 586 264q6 0 17.5 1t17.5 1q176 0 334 -139q72 -64 119.5 -137.5t71.5 -156.5t33 -162.5t9 -180.5v-41q-3 -181 -56 -402t-140 -438 t-179.5 -407t-193.5 -365q-70 -122 -126.5 -212.5t-133 -195.5t-151.5 -186t-171.5 -162t-202.5 -145q-161 -100 -313 -100q-163 0 -269 121.5t-126 338.5q-2 23 -2 68zM106 -283q0 -196 97 -325q85 -111 221 -111q101 0 212.5 53t209.5 129q97 75 190 172t165.5 189.5 t151 214.5t133 216.5t126.5 225.5q232 430 352 856q76 270 76 529q0 97 -8 176q-26 276 -256 459q-112 90 -271 90q-83 0 -200 -31q-133 -37 -251 -122t-206 -199t-153.5 -238t-110.5 -260q-78 -241 -78 -443q0 -28 4 -90v-10q0 -11 10 -16l119 223q108 190 287 412 q21 24 34 37.5t37 28.5t45 15t43 -16q29 -23 29 -55q0 -39 -47 -107q-8 -14 -20 -14q-8 0 -21 11.5t-16 11.5h-4q-20 -16 -62 -68q-205 -255 -393 -637q-6 -15 -6 -29q0 -12 2 -20q33 -104 100 -168q173 -162 381 -162q55 0 102 8q6 2 17 2q10 0 14 -4q-35 -28 -131 -28 q-47 0 -86 8q-310 56 -428 315q-5 -4 -8.5 -8.5t-7 -13t-4.5 -11.5q-73 -153 -109 -231.5t-89.5 -206t-90 -241.5t-64.5 -234q-37 -166 -37 -283z" />
<glyph unicode="P" horiz-adv-x="1970" d="M29 -586q0 21 3.5 45t10.5 54t8 34q46 202 113 387.5t160.5 409t144.5 365.5q260 713 700 1519q9 15 9 27q0 7 -3.5 23t-3.5 26q0 24 19 61q18 35 57 84.5t66 61.5q12 6 24 6q19 0 32 -11.5t13 -31.5q0 -10 -2 -14q-6 -33 -34 -90q-608 -1186 -617 -1272q7 5 12 10.5 t10.5 15t6.5 11.5q419 709 903 1136q219 194 352 205h17q160 0 182 -248q2 -29 2 -86q0 -243 -88.5 -526t-225 -528.5t-298.5 -436.5q-58 -68 -126.5 -134.5t-162.5 -131t-166 -76.5q-37 -6 -74 -6q-153 0 -278 113q-78 70 -78 200q0 33 8 95q4 26 18 26h2q15 -3 15 -24 q-4 -36 -4 -76q0 -164 137 -225q97 -43 178 -43q39 0 72 8q68 16 150.5 72.5t143 114.5t115.5 122q164 192 299.5 436t220.5 519t85 511v46q-9 227 -136 227h-6q-113 -7 -317 -184q-242 -212 -481 -525.5t-420.5 -630t-317.5 -632.5q-114 -264 -155 -383q-21 -62 -41 -129 q-52 -183 -133 -494q-1 -3 -3.5 -14t-4 -16t-4.5 -15.5t-5.5 -16t-6.5 -14.5t-8.5 -13.5l-10 -10t-12 -7.5t-13.5 -2h-10q-43 8 -43 76z" />
<glyph unicode="Q" horiz-adv-x="2562" d="M29 -514q0 31 17 57t46 33q4 2 14 2q32 0 44 -37q4 -18 20 -18h12q146 23 271 31h4q21 2 23 9l1 5q0 10 -2 16q-24 114 -24 238q0 146 29.5 311t79.5 323t107 298t122 270q49 99 69 229q99 743 477 1106q135 131 306.5 210t347.5 79q65 0 129 -12q137 -25 246 -120 t168.5 -222.5t72.5 -268.5q4 -70 4 -106q0 -158 -35 -337.5t-95 -352.5t-128.5 -328t-148.5 -301q-281 -512 -625 -911q-16 -18 -46.5 -51.5t-45.5 -51.5l-7.5 -7.5t-8.5 -8t-6.5 -8t-4.5 -11.5q22 -7 63 -11t48 -5q291 -38 514 -141q43 -16 43 -33q0 -6 -2 -8 q-6 -17 -21 -17q-3 0 -30 11q-258 118 -664 139h-6q-21 0 -39 -18q-297 -275 -512 -275q-155 0 -266 139q-23 29 -38.5 56t-20 39t-11.5 19t-20 7q-3 0 -9.5 -1t-9.5 -1q-7 -1 -101 -15.5t-163 -23t-102 -8.5h-11q-38 4 -56.5 27t-18.5 55zM539 -211q0 -99 14 -176 q2 -7 3.5 -17t2.5 -13.5t2.5 -9t3 -7t4.5 -3.5t7 -2.5t10 -0.5q3 0 13.5 1t18.5 1q182 10 328 10q99 0 299 -8q75 -6 76 -6q23 0 33 4q15 5 27 15.5t31.5 35.5t21.5 27q181 200 343.5 421t307.5 465.5t253.5 509t160.5 514.5q43 198 43 357q0 316 -166 501 q-150 168 -385 168q-180 0 -367 -96q-459 -238 -649 -962q-37 -137 -51 -230q8 5 13 10.5t10.5 17t6.5 13.5q83 142 163 253t142 178.5t118.5 112t96 61t70.5 16.5q32 0 50 -16t18 -40q0 -19 -17 -43q-16 -22 -52 -48t-80.5 -55t-92.5 -63.5t-100.5 -85.5t-93.5 -110 q-131 -189 -277 -467q-16 -36 -16 -121q0 -36 6 -123q9 -76 28 -130.5t36.5 -76t31.5 -36t14 -21.5q0 -4 -6 -10q-8 -4 -10 -4q-4 0 -8.5 2.5t-10 7t-9.5 8t-9.5 9.5t-7.5 8q-21 24 -36.5 52.5t-25 52.5t-17 60.5t-10.5 57t-8 62.5t-7 59q-15 -22 -15 -23 q-114 -249 -197 -537.5t-83 -529.5zM598 -537q42 -91 109.5 -145.5t154.5 -54.5q35 0 66 8q135 32 334 201q8 4 8 12q0 4 -2 8h-109q-285 0 -561 -29z" />
<glyph unicode="R" horiz-adv-x="2199" d="M18 541q0 22 12.5 36.5t37.5 14.5q33 0 77 -33q119 -86 316 -100q5 0 12 -1t10 -1q13 0 18 6t15 29q177 456 399 936t426 808q11 16 11 27q0 6 -4.5 15t-4.5 14q0 8 13 24q160 212 192 230q18 12 37 12q25 0 42.5 -18.5t17.5 -47.5v-10q-2 -23 -25 -57 q-76 -116 -121 -193q-290 -461 -565 -1030q-8 -12 -8 -20q0 -1 1 -3.5t1 -4.5q183 245 327.5 412.5t333.5 338.5q51 47 108.5 96.5t145 117t166.5 118t164 86.5t147 37h4q97 0 156.5 -74t69.5 -176q2 -18 2 -57q0 -140 -59 -300t-144 -292q-398 -606 -1016 -918 q-362 -184 -753 -196q-19 0 -31 -7q-10 -10 -10 -22q0 -19 16 -27q109 -72 145.5 -96t151 -96.5t175 -107t168 -93t182 -91t165.5 -65t168 -47.5q102 -20 184 -20q26 0 80 4q4 0 15 1t16 1q27 0 29 -16v-4q0 -4 -1.5 -7t-4.5 -5l-6 -4t-8.5 -3.5t-9.5 -2t-11 -1t-11 -1 t-11.5 -1t-10.5 -0.5q-58 -4 -84 -4q-206 0 -449 92q-334 128 -731 375l-172 110q-18 11 -22 11q-6 0 -17 -23q-178 -422 -260 -676q-10 -30 -10 -33q0 -14 12 -24q4 -4 4 -8q0 -15 -17.5 -38.5t-33.5 -23.5q-1 0 -3 1t-3 1q-18 8 -18 35q0 9 6 45q45 195 260 754q8 28 8 29 q0 9 -24 24q-11 7 -43.5 26.5t-51 30.5t-46.5 26.5t-52.5 26.5t-46.5 19q-112 36 -139 78q-9 12 -9 31zM598 459q10 -2 31 -2q29 0 45 2q328 27 618 170q606 300 1002 899q135 211 176 440q12 58 12 117q0 61 -16 110q-45 125 -150 125q-88 0 -252 -100 q-177 -109 -357 -262.5t-340 -326.5t-300 -351t-260 -360q-15 -22 -55.5 -109t-88 -192.5t-55.5 -122.5q-10 -25 -10 -31v-6z" />
<glyph unicode="S" horiz-adv-x="2121" d="M29 -424q0 65 26 125q48 111 164.5 242t259.5 248t310 232.5t311.5 201.5t267.5 149q8 3 8 6q0 1 -12 13q-67 46 -165 86t-199 70t-203 61.5t-204 76.5t-177 101q-158 116 -158 252q0 111 109 235q91 106 213 199q449 339 903 467q205 59 340 59q59 0 108 -12 q146 -37 146 -170q0 -82 -58 -186q-98 -175 -299 -369q-4 -5 -18.5 -19.5t-22 -25.5t-12.5 -25q-6 -18 -28.5 -32.5t-45.5 -14.5q-25 0 -41 19q-12 12 -12 32q0 37 45 72q50 43 109 104t121.5 136t106.5 155.5t50 141.5v10q0 92 -155 92q-114 0 -261 -41 q-612 -166 -1069 -581q-67 -58 -116 -134q-35 -57 -35 -112q0 -131 199 -242q83 -48 209 -95t235 -80t238.5 -85t222.5 -111q11 -8 24 -8q7 0 23 4q71 25 113 38.5t100.5 24.5t111.5 11q56 0 105 -8q50 -9 78.5 -28t40.5 -68h-2q-8 0 -13.5 7.5t-10 17.5t-19.5 21.5 t-39 18.5q-52 14 -115 14q-148 0 -328 -73q-8 -3 -8 -8q0 -3 2 -5q81 -68 114 -110q81 -100 81 -223q0 -178 -168 -406q-157 -211 -422 -410.5t-530 -271.5q-129 -33 -230 -33q-82 0 -162 21q-79 22 -118 83.5t-39 139.5zM68 -430q0 -71 35 -123t108 -70q57 -16 145 -16 q110 0 217 29q260 80 507 263t419 413q164 223 164 376q0 175 -195 312q-20 12 -34 12q-12 0 -21 -6q-145 -79 -331 -198.5t-384 -263.5t-361.5 -298.5t-227.5 -271.5q-41 -74 -41 -158z" />
<glyph unicode="T" horiz-adv-x="1339" d="M-164 2308q0 28 35 43l94 25q430 86 862 86l109 -2q330 -10 403 -11l269 -6q34 0 49 21q2 6 14 18q23 23 47 23q20 0 35 -15q16 -16 16 -34l-2 -9q13 -8 39 -8l103 -4q823 -21 1282 -84q12 -2 84 -2q63 0 63 -37q0 -22 -30 -22q-11 0 -15 2q-42 9 -133 22q-22 3 -60 10 t-53 9q-111 18 -333 26q-393 15 -486 17q-249 6 -360 6l-107 2q-25 0 -41 -25q-192 -375 -368 -680q-585 -1023 -1088 -2271q-51 -129 -98 -282q-2 -2 -2 -11q-6 -22 -14 -22h-7q-8 3 -8 12q0 10 2 16q1 2 2 6t2 5q76 275 185 538q623 1540 1257 2667q3 3 23 41q-15 6 -31 6 q-748 0 -1397 -92l-84 -13q-106 -20 -186 -20q-23 0 -31 2q-41 3 -41 47z" />
<glyph unicode="U" horiz-adv-x="2136" d="M31 -25q0 84 18 189t39.5 188t62.5 202t63 177.5t65 167.5q146 368 300 670.5t349 568.5q42 60 110 139t107 97q12 6 31 6q49 0 69 -27q8 -11 8 -29q0 -22 -18 -40q-4 -4 -17.5 -18.5t-20 -20.5t-18.5 -14.5t-24 -12.5q-5 -3 -9.5 -7t-10.5 -12.5t-7 -9.5 q-124 -149 -256 -360q-355 -564 -548 -1057q-211 -522 -211 -813q0 -100 26 -174q32 -84 111 -84q62 0 166 55q521 292 1554 1714q287 396 469 709q57 93 96 154q17 26 37 26q9 0 16 -7t7 -19q0 -9 -8 -29q-7 -16 -33 -66q-43 -79 -133.5 -247t-135 -251.5t-127.5 -240 t-129.5 -249t-120 -239.5t-120.5 -252t-109 -246t-108.5 -260t-96 -257t-92.5 -272q-53 -166 -82 -277.5t-47 -243.5q-2 -6 -2 -18q0 -16 5.5 -31.5t5.5 -17.5q0 -6 -7 -10q-3 -3 -8 -3q-13 0 -20.5 18.5t-7.5 39.5v6q0 154 114 545q51 178 99.5 328t86.5 263t95.5 249.5 t91.5 216t113.5 238.5t121.5 241t152 295q14 19 14 36q-35 -48 -120 -166.5t-147.5 -205t-163.5 -223t-182 -241t-189 -237.5t-198 -235t-195 -210.5t-195 -186.5t-183 -141.5t-172 -94.5q-68 -27 -120 -27q-89 0 -140 67.5t-65 186.5q-6 43 -6 90z" />
<glyph unicode="V" horiz-adv-x="1648" d="M0 -393q0 160 41 397q131 717 307 1266q39 124 85.5 263t129 368.5t163.5 396.5t136 209q20 14 39 14q33 0 56.5 -39.5t23.5 -81.5q0 -12 -2 -18q-2 -17 -32.5 -34.5t-31.5 -20.5q-40 -71 -98 -220q-125 -316 -186 -475t-155.5 -421t-160.5 -488.5t-120 -460.5 q-109 -472 -109 -725q0 -122 31 -182q11 -23 30 -23q11 0 23 6q147 74 603 759q4 7 6.5 10.5t6 8.5t5.5 9q441 664 567 846q227 330 592 780t633 721q41 44 104 101t102 81q2 2 9 2q12 0 12 -8q0 -9 -14 -20q-142 -109 -340 -340q-702 -807 -1268 -1692q-367 -571 -582 -879 q-79 -113 -187.5 -246.5t-180.5 -187.5q-49 -37 -95 -37q-73 0 -110 99q-15 40 -23 89t-9 81t-1 92z" />
<glyph unicode="W" horiz-adv-x="3262" d="M0 -199q0 184 53 418q37 170 99 337t155 380q287 646 778 1284q47 61 111 134t100 97q23 13 43 13q29 0 48.5 -19.5t19.5 -48.5q0 -8 -4 -24q-13 -36 -40.5 -76.5t-51.5 -40.5q-6 0 -8 2q-4 2 -15 2q-12 0 -33 -21q-99 -110 -200 -251q-337 -462 -537 -850 q-87 -172 -151 -311t-129 -308t-106 -337.5t-56 -330.5q-4 -54 -4 -75q0 -43 6 -86q18 -103 90 -103q22 0 59 13q71 25 170 103.5t171.5 151.5t136.5 146q95 105 200 237t175.5 227t183.5 251q225 313 381 590q32 55 99 154.5t93 142.5q15 24 35 24q12 0 20.5 -11t8.5 -26 q0 -6 -3 -12q-8 -32 -20 -61q-21 -57 -73.5 -199t-80 -218.5t-68 -193.5t-71.5 -215q-12 -38 -54 -169t-66.5 -211.5t-58.5 -197.5t-56.5 -213t-34.5 -173q-17 -107 -17 -189q0 -173 78 -295q52 -82 178 -82q77 0 172 35q53 18 119 57q319 185 565 488q182 224 304 440 q251 444 360 838q55 204 84 369.5t29 326.5q0 147 -31 311q-35 177 -186 398q-45 67 -101 117q-32 28 -59 28q-11 0 -17 -2h-4q-7 0 -12.5 5.5t-5.5 13.5q0 12 16 20q12 6 27 6q52 0 111 -59q240 -248 301 -531q28 -140 28 -272q0 -105 -14 -197q-71 -561 -361 -1149 q-216 -438 -495 -765q-209 -245 -506 -431q-177 -108 -336 -108q-21 0 -61 4q-78 10 -136 80t-81 155q-29 107 -29 222q0 78 12 161q34 272 154 738q105 400 270 760l51 129q-4 0 -4 4q-9 -17 -27.5 -47t-21.5 -35q-400 -673 -952 -1325q-101 -120 -234 -239t-239 -159 q-41 -16 -82 -16q-59 0 -97 42.5t-51.5 100t-13.5 127.5z" />
<glyph unicode="X" horiz-adv-x="1869" d="M10 -713q0 6 6 19t7 16q117 264 353 640.5t470 707.5q29 43 35 92q17 319 94 747.5t174 743.5q35 124 76 180q13 16 28 16q14 0 24.5 -10t10.5 -26v-7q-2 -17 -36 -161.5t-75.5 -316.5t-46.5 -193q-119 -489 -159 -877q5 2 9 4.5t7.5 6.5t5 6t5 7.5t3.5 6.5 q279 387 426 561q446 538 912 895q89 68 198 135t181 84q20 4 30 4q39 0 61.5 -22.5t22.5 -55.5q0 -51 -45 -84q-18 -12 -26 -12t-19 9.5t-20 9.5q-7 0 -21 -7q-390 -218 -964 -796q-416 -416 -760 -879q-19 -27 -25 -65q-4 -102 -4 -156q0 -104 15 -209q64 -454 323 -739 q235 -264 567 -264q94 0 207 22l131 29h2q15 0 15 -11q0 -12 -27 -20q-194 -53 -348 -53q-207 0 -377 102q-142 82 -255 217.5t-183 295t-106.5 329.5t-37.5 336v14q0 15 -4 23q-4 -1 -6.5 -3.5t-3.5 -4t-3 -5t-3 -4.5q-361 -490 -598 -884q-106 -174 -201 -371 q-16 -37 -28 -37q-5 0 -7 2q-10 3 -10 12z" />
<glyph unicode="Y" horiz-adv-x="1519" d="M8 719q0 31 2 45q14 163 101 398t188.5 431t202.5 353q3 5 29 46t43.5 68t51 77.5t59.5 87t61 84.5t65 82t61 66.5t58 52t49 25.5q8 2 22 2q26 0 41 -14t15 -37q0 -19 -8 -35q-3 -6 -8 -15t-7.5 -14t-6 -11t-6.5 -8.5t-5 -2.5q-7 0 -12 37q-16 -13 -33.5 -31.5t-38 -44 t-38.5 -47t-41.5 -54.5t-38.5 -53.5t-39.5 -56.5t-34 -50t-32.5 -48.5t-26 -38.5q-314 -481 -487 -944q-93 -255 -93 -381q0 -21 4 -49q8 -37 23.5 -54.5t44.5 -17.5q7 0 31 4q69 13 155.5 60t164 106t164 137t144.5 137t117 122q384 413 779 899q45 55 137.5 193.5 t144.5 199.5q28 31 49 31q10 0 17.5 -8t7.5 -19q0 -12 -6 -21q-83 -141 -88 -149q-22 -35 -60.5 -96t-70.5 -112t-58 -97q-30 -55 -97.5 -171.5t-100.5 -178.5q-246 -451 -371 -713q-48 -102 -144 -289.5t-135 -267.5q-143 -295 -334.5 -732t-224.5 -595q-6 -34 -6 -54 q0 -16 4 -31.5t4 -21.5q0 -9 -6 -15.5t-14 -6.5q-14 0 -24.5 19.5t-10.5 58.5q0 56 25 143q66 221 182 500q344 863 592 1357q208 413 420 785q14 24 16 35q-7 -1 -12 -5t-10 -11t-7 -9q-53 -62 -169 -201t-191.5 -228t-180.5 -206.5t-203 -214t-190 -174.5 q-93 -78 -203 -145.5t-202 -87.5q-20 -5 -45 -5q-83 0 -119.5 66t-36.5 164z" />
<glyph unicode="Z" horiz-adv-x="2398" d="M14 -885q0 19 11 45q20 46 26 56q150 241 334 381q62 48 121.5 74.5t95 31t67.5 12.5t48 25q940 969 1472 1583q61 69 122.5 143.5t157 200.5t165.5 234.5t122 224.5t52 192q0 3 -1 10.5t-1 10.5q-11 92 -142 92q-20 0 -42.5 -2.5t-42.5 -5.5t-44.5 -8.5t-41 -10 t-40 -11.5t-34.5 -10.5t-30 -10t-22 -7.5q-70 -25 -142.5 -54.5t-174 -76t-141 -64.5t-173 -82.5t-141.5 -68.5q-21 -12 -57 -12t-61 16t-25 48q0 22 12 49q21 43 54 43q14 0 26 -6q26 -13 49 -13q24 0 54 10q39 14 80.5 32.5t93 44.5t77.5 38q265 121 437 185 q137 53 282 71q16 2 47 2q82 0 158 -30q109 -44 119 -183v-14q0 -55 -26 -129.5t-54 -131t-85.5 -145t-78.5 -118t-74 -103.5q-36 -50 -72.5 -99t-82 -104t-76 -93t-87 -100.5t-80 -89t-90 -97.5t-82 -87.5t-91 -96.5t-84.5 -89q-425 -444 -1032 -1059q-26 -26 -31 -37 q215 -26 404.5 -71.5t420.5 -120.5q134 -44 270 -89.5t302.5 -104.5t257.5 -92t301 -109t268 -97q166 -63 297 -98q2 -1 10 -3t11.5 -4t7.5 -5t4 -8t-2 -9q-5 -10 -16 -10t-27 4q-115 30 -348 109q-1789 608 -2208 620q-48 0 -78 -30q-6 -6 -63 -64t-105 -106.5t-121 -118.5 t-129 -119t-109 -87.5t-79 -43.5q-6 -2 -18 -2q-25 0 -38.5 15t-13.5 38zM133 -817q57 44 124 104t100 91t123.5 121.5l105.5 105.5q-104 -25 -253.5 -164.5t-199.5 -257.5z" />
<glyph unicode="[" horiz-adv-x="1617" d="M70 -324q0 80 73 213q260 491 555 1190q235 551 492 989q3 6 14.5 26t17 28.5t17 25.5t20.5 26t21.5 20t26 16.5t28.5 7.5q165 23 209 23q23 0 35 -3q13 -3 21 -12t8 -20q0 -22 -25 -31l-184 -45q-60 -8 -92 -68q-23 -41 -91 -159.5t-113 -200.5t-85 -162 q-179 -359 -324 -688q-187 -420 -481 -993q-51 -95 -66 -144q-10 -30 -10 -45q0 -20 14.5 -27.5t49.5 -9.5q47 -2 137 -2h137v-6h115q135 0 196 15q3 0 9.5 1t9.5 1q15 0 20 -15v-2q0 -8 -5.5 -14t-10 -7.5t-14.5 -4.5q-50 -16 -97 -19q-214 -14 -403 -14q-112 0 -145 8 q-80 22 -80 102z" />
<glyph unicode="\" horiz-adv-x="1179" d="M0 1876q0 76 33 76h2q38 -3 41 -39q2 -13 12 -38.5t10 -41.5q0 -5 -4 -21v-2q0 -6 10 -26q366 -864 861 -1753q120 -208 192 -297q7 -7 10 -13q9 -13 9 -18q0 -9 -11 -16q-8 -4 -14 -4q-8 0 -18 10q-42 46 -66 78q-81 107 -180 280q-227 388 -565 1071q-24 50 -72.5 147 l-78.5 157t-68 145t-66 158q-37 97 -37 147z" />
<glyph unicode="]" horiz-adv-x="1681" d="M2 -520q0 4 1 7t3 4.5t3.5 3t5 2.5t5.5 1.5t6 1t5 0.5q241 31 370 60q167 41 242 190q21 41 41.5 86.5t48 111t37.5 87.5q58 138 124.5 305.5t109 279.5t119 317.5t108.5 289.5q136 358 252 606q63 138 82 217q6 21 6 31q0 8 -7.5 11.5t-31.5 8.5q-54 10 -127 10h-211 q-37 0 -56.5 12.5t-19.5 28.5q0 8 7 14.5t18 6.5q28 2 136.5 12t166.5 10q68 0 135 -12q46 -8 68 -29.5t22 -60.5q0 -19 -2 -31q-14 -77 -51 -159q-32 -70 -96 -208.5t-95 -207.5q-49 -108 -104.5 -239t-93.5 -225.5t-99 -248t-92 -231.5q-186 -459 -352 -815 q-92 -200 -321 -236q-245 -37 -328 -37h-4q-31 4 -31 23v2z" />
<glyph unicode="^" horiz-adv-x="854" d="M197 1407q0 4 1.5 7.5t5 6.5t6 5t8 5.5t7.5 4.5q38 31 93.5 87t85 88.5t103.5 117.5t77 88q13 14 19 20.5t18 13.5t24 7q11 0 19 -5q26 -13 26 -49q0 -10 -3.5 -31t-4.5 -26q-40 -191 -57 -361q0 -2 -0.5 -8t-1 -9t-2 -8t-4 -7t-7 -4t-10.5 -2h-2q-20 2 -20 22 q0 3 1 10.5t1 10.5q2 118 24 290q4 20 4 31q0 10 -2 14q-8 -4 -14 -9t-14 -13.5t-9 -9.5q-152 -171 -234 -241q-79 -69 -114 -69q-13 0 -20 11q-4 8 -4 12z" />
<glyph unicode="_" horiz-adv-x="1531" d="M-195 37q0 9 5.5 16.5t13.5 9.5q183 35 784 35q374 0 467 -14q19 -3 85 -8.5t104 -18.5q18 -7 18 -26q0 -15 -18 -15h-7q-79 12 -205 19t-219.5 9t-255.5 3t-210 2h-37q-245 0 -498 -35q-27 0 -27 23z" />
<glyph unicode="`" horiz-adv-x="559" d="M63 1718q0 3 3 6q3 9 12 18t16 9q23 -2 47 -20q36 -23 75 -51.5t87.5 -65t73.5 -55.5q4 -3 10 -12t8 -11q4 -8 4 -10q0 -6 -5 -11.5t-11 -5.5q-10 0 -27 13q-157 98 -260 164q-4 2 -22 14q-11 7 -11 18z" />
<glyph unicode="a" horiz-adv-x="972" d="M-96 420q0 6 4 18q11 35 26 72q47 96 138 178q49 43 114 43q36 0 67 -14.5t46 -40.5q2 -2 4 -2q4 0 14 6.5t15 7.5q1 0 4 1t4 1q11 0 18 -11t7 -26q0 -10 -3 -16q-4 -13 -31 -69t-49 -114.5t-22 -95.5q0 -55 53 -55h2q96 0 217.5 47t209.5 102.5t162.5 106.5t78.5 53h2 q2 0 2 -2t-2 -4q-104 -106 -315.5 -219t-341.5 -119h-13q-106 0 -106 109q0 80 43 164q-6 -4 -48 -31.5t-64 -42t-58.5 -36.5t-63.5 -35.5t-47 -20.5q-6 -2 -16 -2q-20 0 -35.5 13t-15.5 34zM18 477q0 -8 5 -8q2 0 10 4q51 31 76 47.5t58.5 42.5t68.5 60q-17 28 -46 28 q-15 0 -28 -8q-32 -16 -73.5 -59t-59.5 -76q-2 -2 -6.5 -13t-4.5 -18z" />
<glyph unicode="b" horiz-adv-x="1015" d="M-162 176q0 17 4 25q64 181 135 360q208 506 525 854q155 167 264 197q8 2 22 2q30 0 47 -21t17 -53q0 -31 -10 -51q-12 -33 -41 -78q-252 -414 -625 -758q-92 -83 -133 -190q-2 -6 -9.5 -26t-11.5 -33.5t-6 -28.5l226 205q33 28 77.5 49.5t83.5 21.5q32 0 56 -18 q25 -21 33.5 -50t8.5 -46t5 -17h4q119 43 226 62.5t249 29.5q14 2 33 2q6 0 6 -6q0 -4 -6 -4q-27 -4 -73 -9t-75 -9q-196 -31 -333 -90q-22 -10 -34 -22t-18 -34q-51 -174 -135 -294.5t-239 -278.5q-24 -27 -70 -49q-24 -15 -53 -15q-37 0 -62.5 26.5t-25.5 72.5 q0 85 90 194q118 141 205.5 217.5t238.5 175.5q12 9 12 15q3 15 3 37v14q-5 25 -18.5 40t-33.5 15q-17 0 -30 -8q-63 -29 -126 -78t-126 -119t-101 -117t-98 -126q-21 -27 -43 -27q-15 0 -25 12t-10 29zM-51 -100q0 -41 33 -41q40 0 98 55q219 206 334 463q7 17 20 61 q0 1 1 3t1 3q-2 2 -4 2q-6 0 -33 -20q-222 -144 -370 -350q-80 -111 -80 -176zM160 690q11 7 16 15q200 207 351 395t253 385q5 9 10 29.5t7 25.5q-10 5 -11 6l-19 -9.5t-24 -14.5q-74 -61 -96 -84q-295 -327 -487 -748z" />
<glyph unicode="c" horiz-adv-x="765" d="M-104 291v22q0 112 64.5 230.5t156.5 222.5q75 86 143 86q42 0 68 -31t26 -73q0 -52 -32 -80q-11 -11 -25 -11q-21 0 -27 25q-3 11 -7.5 34t-6.5 32q-5 -3 -13.5 -7t-14 -7t-9.5 -7q-87 -73 -169.5 -206t-86.5 -232v-10q0 -49 30 -73t77 -24q33 0 77 13q71 23 154 69.5 t179.5 118t148.5 112.5t143 115q4 4 8 4t4 -6q0 -4 -4 -8q-120 -125 -308 -261.5t-325 -180.5q-59 -17 -94 -17q-68 0 -110.5 39.5t-46.5 110.5z" />
<glyph unicode="d" horiz-adv-x="770" d="M-115 348q0 33 19 82q45 112 125 221t170 164q54 33 90 33q54 0 114 -57q21 30 60 82t70 94.5t55 81.5q157 262 228 363q81 116 171 216q22 22 31 25q8 2 22 2q37 0 37 -29q0 -10 -6 -22q-33 -52 -49 -72q-495 -636 -829 -1495q-16 -41 -52 -160q-12 -54 -12 -78 q0 -27 4 -39v-6q0 -7 -5 -12.5t-11 -5.5q-12 0 -21.5 17t-9.5 52q0 48 16 113q11 45 26 93.5t27 86.5t33.5 93.5t33 85t38 91.5t36 83.5t40 91t37.5 84.5q10 20 10 24q0 9 -12 21q-25 -28 -103 -128t-140.5 -167t-115.5 -98q-31 -17 -55 -17q-32 0 -52 23t-20 63zM-2 358 q61 44 112 95t128 143t96 113q-10 1 -23 3.5t-18 2.5q-18 0 -47 -23q-152 -120 -240 -303q-2 -3 -8 -31z" />
<glyph unicode="e" horiz-adv-x="829" d="M-102 371q0 51 18 94q89 219 311 311q24 12 56 12q31 0 48 -18.5t17 -46.5q0 -33 -18 -57q-42 -60 -70 -78q-41 -28 -182 -109q-29 -16 -60 -16q-17 0 -38 6q-35 -52 -35 -107q0 -50 34.5 -80t96.5 -30q36 0 69 8q143 35 351 143t335 205q6 6 13 6q4 0 4 -6q0 -4 -8 -12 q-128 -112 -382 -246t-399 -141h-12q-74 0 -111.5 47t-37.5 115zM14 526q66 20 144.5 82.5t85.5 100.5q-67 -21 -119.5 -66t-110.5 -117z" />
<glyph unicode="f" horiz-adv-x="929" d="M-754 -983q3 134 49 252q79 218 148 371q160 344 418 757.5t491 689.5q82 96 199 207q45 43 143 105q40 24 80 24q36 0 60 -19.5t24 -51.5q0 -15 -6 -33q-11 -30 -32.5 -53t-43.5 -23q-30 0 -49 47q-79 -58 -88 -67q-119 -115 -174 -176q-90 -101 -282.5 -363 t-278.5 -395q30 10 45 18q395 218 753 291q39 9 199 18h6q5 0 12 -1t15.5 -2.5t13.5 -2.5v-10q-3 -1 -10 -3.5t-10 -2.5q-5 0 -17 1t-18 1q-175 0 -429 -99t-439 -210q-69 -41 -185 -137q-47 -38 -47 -91q0 -18 6 -39q13 -50 13 -92q0 -49 -27 -186q-24 -126 -96 -270 q-96 -200 -187 -367q-24 -44 -110 -152q-15 -20 -38.5 -33.5t-45.5 -13.5q-62 0 -62 107v4zM-690 -991q0 -26 6 -47q8 7 23.5 19t21.5 18q8 10 26 30.5t31 36.5t23 33q160 268 256 512q23 58 42 146.5t19 160.5t-18 107q-3 -5 -13.5 -20t-15.5 -23q-165 -317 -243 -480 q-52 -104 -105 -251.5t-53 -241.5z" />
<glyph unicode="g" horiz-adv-x="1193" d="M-758 -987q0 77 33 172.5t74 165.5q148 248 440 509.5t641 477.5q22 9 70.5 107t48.5 133q0 12 -6 12q-25 -5 -402 -178q-67 -29 -116 -41q-18 -6 -37 -6q-34 0 -55 20t-21 55q0 22 10 52q26 71 102.5 146t173.5 124t175 49q84 0 125 -63q7 -12 12 -26.5t10 -35.5t8 -31 q9 0 15 -2q27 9 32 9q23 0 36.5 -16t13.5 -40q0 -3 -1 -8t-1 -8q-10 -49 -82 -207q7 3 61 28.5t64.5 30.5t59 27t65 28t61 24.5t67 25t63.5 20t71.5 20t69 14.5t75.5 13h6q15 0 15 -6q0 -5 -17 -8q-133 -27 -336.5 -106t-320.5 -146q-32 -14 -53 -63q-29 -54 -84 -164.5 t-102.5 -206.5t-117 -223t-133.5 -231t-144.5 -212.5t-156.5 -185t-163.5 -130t-172.5 -65.5q-28 -4 -41 -4q-135 0 -135 150zM-721 -981q0 -109 96 -109q14 0 29 3q85 13 168.5 61t153.5 115t143 165.5t129.5 192t121 216.5t110 218t103.5 217t95 193q-114 -68 -246 -162 t-283 -219.5t-290.5 -279t-226.5 -300.5q-34 -55 -68.5 -148t-34.5 -163zM25 469q44 0 198 57.5t199 89.5q-27 46 -74 46q-6 0 -31 -5q-147 -40 -245 -135q-25 -28 -47 -53z" />
<glyph unicode="h" horiz-adv-x="1288" d="M-186 233q0 11 2 15q8 54 39 110q228 409 502 845t438 603q98 101 168 101q57 0 57 -82q0 -25 -6 -62q-19 -101 -104.5 -247.5t-194.5 -278.5q-104 -131 -213 -228t-250 -182q-33 -20 -53 -53l-129 -225q1 -1 3 -4t3 -4q159 131 211 161q39 23 75 23q39 0 62.5 -29 t24.5 -82v-39q0 -73 -7 -176v-26q0 -58 17 -105q17 -43 37.5 -63.5t58.5 -20.5h4q61 1 145 34t161 78.5t164 108.5t142.5 107t108.5 90q12 12 23 12h6v-2q0 -17 -19 -32q-181 -155 -269 -221q-272 -202 -446 -218q-14 -2 -43 -2q-53 0 -87 21.5t-54 72.5q-24 61 -24 127v15 q8 116 8 198q0 70 -8 86q-32 -9 -84 -45q-82 -55 -151.5 -127t-106.5 -126.5t-74.5 -101.5t-65.5 -60q-15 -9 -28 -9q-19 0 -31 11.5t-12 31.5zM268 883q0 -4 4 -4q1 0 13 4q116 69 208.5 159t198.5 218q96 118 172 252.5t111 250.5q10 38 10 52q0 22 -14 22q-29 0 -115 -86 q-137 -136 -301 -386.5t-279 -457.5q-8 -16 -8 -24z" />
<glyph unicode="i" horiz-adv-x="759" d="M-119 311v4q1 93 59 200t132 183q39 39 65 39q14 0 22.5 -10.5t8.5 -24.5q0 -12 -2 -16q-2 -6 -6.5 -13t-12 -15t-10.5 -13q-11 -17 -68.5 -102.5t-86.5 -132.5q-33 -60 -33 -109q0 -63 53 -63h12q88 9 281 102.5t303 163.5q45 30 160 110q2 2 8 2t6 -4q0 -5 -16 -16 q-94 -68 -168.5 -118t-177 -111.5t-202 -104t-188.5 -61.5q-24 -4 -34 -4q-50 0 -77.5 30t-27.5 84zM188 870q0 22 17 39t49 17q24 0 45 -8q29 -10 29 -27q0 -16 -20 -32.5t-58 -27.5q-16 -4 -21 -4q-19 0 -30 12.5t-11 30.5z" />
<glyph unicode="j" horiz-adv-x="722" d="M-1194 -915q0 20 2 30q21 141 126.5 302.5t231.5 291.5q281 288 551 443q26 14 43 49q15 24 86 148t131.5 226t81.5 127q24 27 47 27q22 0 37 -15.5t15 -37.5q0 -13 -11 -31q-20 -33 -102 -143q-3 -4 -11 -12.5t-11 -12.5q-22 -39 -64 -115.5t-63 -115.5q0 -9 -2 -19 q489 259 862 396q-4 -2 -12.5 -7.5t-12.5 -7.5q-329 -138 -850 -422q-25 -12 -51 -55q-147 -264 -260 -461q-118 -206 -210.5 -330.5t-246.5 -273.5q-43 -42 -95 -65t-99 -23q-50 0 -81.5 27t-31.5 80zM-1143 -897q0 -57 45 -57q13 0 21 2q64 15 100 45q90 77 150 147 q59 71 113 146.5t113.5 174t91 152.5t102.5 181.5t90 162.5q5 8 18 41q-21 -8 -25 -12q-119 -77 -236 -172.5t-228.5 -209.5t-200 -245t-133.5 -258q-21 -66 -21 -98zM197 922q0 20 12.5 35.5t34.5 15.5h8q35 -3 35 -43q0 -22 -12 -37.5t-33 -15.5h-4q-41 3 -41 45z" />
<glyph unicode="k" horiz-adv-x="1144" d="M-307 -193q0 24 12 60q138 376 252 645q155 371 382.5 788t354.5 568q36 33 70 33q22 0 35.5 -14t13.5 -36q0 -15 -6 -30q-14 -34 -26 -48t-44 -38q-4 -3 -34.5 -19.5t-36.5 -25.5q-96 -137 -326.5 -572.5t-294.5 -603.5q213 221 353 333q213 169 333 169q17 0 25 -2 q24 -3 37.5 -19.5t13.5 -36.5q0 -27 -25 -36q-6 -2 -16 -2q-15 0 -36.5 16t-33.5 16q-1 0 -4 -1t-4 -1q-70 -20 -212 -125.5t-268.5 -219.5t-180.5 -179q-35 -41 -35 -66q0 -20 24 -20h4q180 20 520.5 106.5t581.5 163.5q16 4 25 4q17 0 20 -6q0 -9 -39 -20q-15 -4 -98 -30 t-104 -32.5t-97.5 -29.5t-106 -31.5t-98.5 -28.5t-106 -29.5t-99.5 -26t-107.5 -27t-99.5 -22.5t-105.5 -22q-25 -5 -58.5 -10.5t-48 -8.5t-33 -9.5t-29 -18.5t-19.5 -31q-63 -135 -160 -362q-5 -12 -11 -37t-11 -37q-2 -6 -15.5 -13t-15.5 -9q-1 3 -4.5 9.5t-5.5 11.5t-2 9 v4z" />
<glyph unicode="l" horiz-adv-x="876" d="M-129 66q0 221 215 780q117 298 244 525.5t317 438.5q51 54 90 84q48 37 103 37q37 0 61 -18q39 -27 39 -92q0 -75 -41.5 -171t-83.5 -165q-70 -122 -172.5 -266t-245 -300.5t-266.5 -242.5q-43 -26 -55 -53q-38 -96 -61.5 -163t-49.5 -174t-35 -208q0 -4 -1 -13t-1 -14 q0 -54 22.5 -92t72.5 -39h6q67 0 169.5 63t207 158t196.5 188t167 173t89 92q4 4 33 20h2q10 0 10 -10v-2q-14 -16 -20 -22q-33 -29 -119 -119.5t-178.5 -184t-195.5 -188.5t-201.5 -155t-165.5 -60h-15q-137 13 -137 193zM135 745q0 -8 8 -8q7 0 11 4q326 242 622 766 q117 209 117 303q0 41 -25 52q-4 2 -14 2q-35 0 -78 -43q-37 -39 -88 -101q-77 -93 -147 -197.5t-142.5 -240t-111.5 -214t-117 -241.5q-24 -49 -35 -77v-5z" />
<glyph unicode="m" horiz-adv-x="1609" d="M-135 154q0 24 12 65q119 374 137 424q4 10 10 21t11 19.5t14.5 20.5t14.5 18.5t16.5 19.5t15.5 18q17 20 41 20q16 0 27.5 -11t11.5 -30q0 -14 -6 -32q-18 -45 -70 -154q8 3 14.5 6.5t12 8t8.5 7t8.5 8.5t6.5 7q91 98 217 199t221 133q10 4 28 4q26 0 42 -16t16 -44v-12 q-4 -38 -25 -98.5t-52.5 -135.5t-41.5 -104q-24 -65 -49 -172q-4 -12 -4 -22q0 -5 1 -20.5t1 -25.5q9 7 35 25t36 27q16 15 69 68.5t98 97.5t65 59q24 18 43 18q38 0 47 -55q3 -19 5 -52.5t4 -58t9 -52.5t23.5 -50t42.5 -37q47 -24 96 -24q134 0 307 139q104 82 242 233 q4 -2 10 -8q-84 -107 -245 -241q-178 -150 -326 -150q-50 0 -100 21q-17 8 -31 18.5t-25 27l-19 28.5t-14.5 36t-10 34.5t-7.5 39t-5 36t-4 38.5t-3 34q-23 -13 -80.5 -77.5t-120 -130.5t-102.5 -84q-18 -9 -37 -9q-24 0 -40.5 16t-19.5 44q-2 12 -2 37q0 38 9 73 q18 61 39.5 124t55 153t44.5 121q4 16 4 30q0 15 -2 23q-72 -46 -76 -49q-185 -135 -379 -396q-35 -46 -94 -136t-70 -105q-40 -56 -75 -56t-35 48z" />
<glyph unicode="n" horiz-adv-x="1101" d="M-160 270q0 26 21 78q83 202 225 389q40 54 72 54q16 0 25.5 -13t9.5 -30q0 -11 -3 -17q-14 -38 -39 -87.5t-61.5 -115t-48.5 -88.5q-16 -22 -16 -55q13 11 113.5 100t170.5 148t101 78q22 14 43 14q44 0 47 -63v-9q0 -16 -3 -76t-3 -96q0 -151 51 -180q37 -18 78 -18 q58 0 128 34t129 82t110 96.5t85 82.5t41 34h2v-4q0 -10 -6 -16q-49 -55 -100 -105t-122.5 -109t-146.5 -94.5t-139 -35.5q-47 0 -86 20q-47 24 -63.5 75.5t-16.5 125.5q0 19 1 53.5t1 48.5q0 19 4 97q-10 -8 -26.5 -20t-24.5 -19q-72 -68 -377 -348l-20.5 -20.5 t-23.5 -22.5t-21.5 -18t-24.5 -14.5t-24 -4.5q-14 0 -31 10q-31 19 -31 59z" />
<glyph unicode="o" horiz-adv-x="804" d="M-113 303q0 25 2 35q18 102 79.5 215.5t135.5 171.5q41 33 93 33q41 0 68.5 -25.5t27.5 -77.5q0 -13 -4 -37q-2 -10 -10.5 -44l-10.5 -42q65 -26 152 -26q93 0 196 27.5t187 66.5q12 4 16 4q10 0 10 -6q0 -10 -22 -18q-61 -31 -167.5 -60t-203.5 -35q-7 0 -21.5 -1 t-21.5 -1q-91 0 -137 25q-27 -59 -45 -93.5t-46.5 -81t-62.5 -81.5t-75 -62q-29 -22 -58 -22h-2q-23 0 -44.5 20t-26.5 45q-9 35 -9 70zM-59 242q0 -33 18 -33q9 0 35 16q53 39 122 139.5t93 170.5q-35 32 -57 92q-73 -82 -135.5 -182t-73.5 -173q-2 -10 -2 -30zM193 647 q0 -37 32 -69q2 8 7.5 23.5t8 24.5t5 21.5t2.5 22.5q-6 12 -23 12q-11 0 -21 -7t-11 -20v-8z" />
<glyph unicode="p" horiz-adv-x="1179" d="M-717 -893q0 15 8 31q166 414 327 759t349 658q46 76 158 227q76 98 133 105h6q17 0 27 -10t10 -25q0 -10 -2 -14q-8 -19 -25 -39q-74 -100 -156.5 -233.5t-122 -204.5t-134.5 -246q-4 -8 -4 -15q1 -2 3 -4t3 -4q132 174 245.5 303.5t247.5 245.5q53 47 120.5 93 t115.5 57q24 4 33 4q69 0 69 -76q0 -46 -25 -108t-63 -115q115 39 214.5 60.5t316.5 53.5q36 4 43 4q28 0 28 -8q0 -6 -10.5 -11t-23.5 -7q-68 -4 -293 -56.5t-306 -97.5q-18 -23 -62 -83t-60.5 -81t-53.5 -66t-64 -70.5t-68.5 -61t-88.5 -68.5q-40 -27 -67 -27 q-20 0 -31.5 13t-11.5 35q0 30 16 61q46 89 137 180q73 74 132 119t130 80q40 26 76 95.5t51 127.5q2 6 4.5 14.5t4.5 15t2 9.5q0 8 -11 8q-6 0 -12 -2q-76 -19 -168.5 -90.5t-169.5 -150.5q-399 -405 -678 -908q-45 -79 -176 -358q-6 -13 -13.5 -40.5t-19 -55t-32.5 -54.5 q-12 -12 -29 -12q-24 0 -29 39v4zM176 104q0 -6 6 -6q7 0 19 6q11 10 62.5 54.5t89 81.5t63.5 75q12 12 12 21q0 4 -6 4q-7 0 -19 -6q-64 -41 -123 -98.5t-96 -110.5q-8 -12 -8 -21z" />
<glyph unicode="q" horiz-adv-x="1181" d="M-188 -713q0 128 86 340q82 199 174 393q39 82 150 264.5t190 303.5q2 2 2 14q-37 -22 -130 -85.5t-172.5 -115t-111.5 -63.5q-18 -6 -33 -6q-29 0 -48 21.5t-19 56.5q0 25 16 65q55 115 153 211.5t210 128.5q38 10 61 10q90 0 135 -120l119 86q12 4 20 4q18 0 30.5 -10 t12.5 -27q0 -7 -4 -19q-14 -27 -63.5 -100t-112.5 -162t-76 -108q-177 -254 -307.5 -490.5t-214.5 -482.5q-16 -43 -16 -84q0 -24 6 -51q8 4 27 11.5t28 12.5q75 42 160 146q146 182 331 394t400 435.5t356 339.5q17 14 29 14q8 0 8 -6q0 -11 -18 -26q-245 -214 -534.5 -540 t-514.5 -624q-140 -187 -250 -217q-16 -4 -22 -4q-23 0 -38.5 16t-16.5 42q0 5 -1 16t-1 16zM33 451q33 6 156 75.5t192 122.5q-8 27 -16 38t-21 11q-9 0 -27 -6q-76 -24 -151 -89t-129 -138q-1 -2 -2 -7t-2 -7z" />
<glyph unicode="r" horiz-adv-x="1075" d="M-88 10q0 60 30 138.5t66.5 140t72 124t42.5 87.5q0 2 1 6t1 6q0 24 -30 37.5t-74.5 24.5t-63.5 24q-16 16 -16 47q0 63 53 125q18 18 45 18q28 0 49 -17.5t21 -45.5q0 -30 -27 -61q36 -12 54 -20t42 -23t34.5 -35.5t10.5 -48.5q0 -25 -4 -39q-4 -20 -46 -83 t-89.5 -130.5t-87 -152t-39.5 -144.5v-13q7 -75 76 -92q16 -4 28 -4q67 0 177 64.5t228.5 161.5t230 196t209 183.5t138.5 107.5q7 4 21.5 11t21.5 11q2 -2 5 -5.5t4 -4.5q-19 -19 -27 -22q-65 -41 -174.5 -134.5t-218.5 -190.5t-223.5 -191t-221 -153.5t-178.5 -59.5 q-18 0 -26 2q-47 8 -71 32t-36 62q-8 24 -8 61z" />
<glyph unicode="s" horiz-adv-x="1163" d="M-270 -217q0 80 57 176q67 115 184.5 215.5t239.5 165.5t256 113q-5 12 -74 18.5t-150 11t-154.5 30.5t-86.5 73q-4 16 -4 26q0 60 58 139t138 144t165.5 110.5t138.5 45.5q3 0 8.5 -1t7.5 -1q33 -5 65.5 -30.5t41.5 -55.5q2 -4 2 -15q0 -26 -17.5 -54t-40.5 -28 q-31 0 -55 49q-9 21 -41 21q-56 0 -151.5 -55t-171.5 -131.5t-76 -128.5v-5q3 -33 58.5 -49.5t150.5 -25.5q131 -10 169 -21q54 -15 72 -47q98 35 301 80t318 59q10 2 26 2q23 0 23 -6q0 -7 -31 -12q-114 -18 -317 -67t-291 -87q-4 -2 -4 -8l9 -34q9 -35 9 -70 q0 -60 -26 -129q-67 -171 -207.5 -318.5t-304.5 -212.5q-80 -30 -142 -30q-72 0 -112.5 38.5t-40.5 104.5zM-238 -215q0 -50 30.5 -76t84.5 -26q53 0 117 24q166 62 314 229t200 343q8 24 8 57q0 43 -22 80q-115 -37 -244 -106t-252 -168t-180 -197q-56 -95 -56 -160z" />
<glyph unicode="t" horiz-adv-x="458" d="M-762 1419q0 28 49 43q71 25 172 26h113q75 3 415.5 18.5t463.5 17.5q23 1 32 9t21 30q3 6 38 68.5t65 115t64 107.5t48 71q29 33 59 33q25 0 49 -21q7 -7 7 -14q0 -18 -29 -59q-27 -46 -109 -170.5t-90 -137.5q-10 -17 -10 -22q0 -8 20 -8q41 2 183 2q557 0 1247 -21 q132 -5 168 -8q31 -5 31 -20q0 -6 -5 -13.5t-10 -11.5t-6 -4h-2q-8 0 -38 10t-32 10q-108 9 -577 9q-711 0 -997 -11q-35 0 -64 -47q-21 -38 -128.5 -232t-163.5 -297.5t-158.5 -298t-164 -324t-125 -278.5t-93.5 -253q-5 -16 -9 -47q4 -3 14.5 -7t17.5 -9t7 -13q0 -4 -2 -8 q-6 -14 -21.5 -25.5t-29.5 -11.5q-17 0 -28 14.5t-11 44.5q0 27 8 58q36 157 201.5 518t332.5 681.5t269 491.5q10 15 10 27t-30 12q-66 -3 -313 -10.5t-424.5 -20.5t-327.5 -40q-47 -7 -62 -7q-30 0 -41 19q-4 8 -4 14z" />
<glyph unicode="u" horiz-adv-x="1159" d="M-182 195v8q0 70 58 189t113 201t85 116q28 32 53 32q14 0 23.5 -11.5t9.5 -27.5q0 -15 -10 -28q-7 -10 -37.5 -47.5t-46.5 -63.5q-72 -108 -129.5 -213t-57.5 -141v-4q4 -27 16.5 -36t36.5 -11q47 0 112 44.5t128.5 112t119 133.5t100 122t54.5 65q4 3 14.5 12 t16.5 13.5t15 10.5t17.5 8.5t16.5 2.5q11 0 23 -6q20 -11 20 -39q0 -19 -18 -80q-4 -15 -52 -119.5t-48 -146.5q0 -46 49 -49h2q71 0 200.5 66t237 140t213.5 156q13 10 23 10q12 0 12 -12q0 -9 -12 -18q-16 -12 -97 -73t-120 -89t-118 -80t-131 -78t-116.5 -47.5 t-114.5 -21.5h-18q-76 11 -76 124q0 95 45 216q-32 -30 -81.5 -90t-95 -115.5t-98 -109.5t-110.5 -87t-113 -33h-12q-43 3 -71 30t-31 65z" />
<glyph unicode="v" horiz-adv-x="776" d="M-133 205q0 15 4 43q28 118 78 254t102 188q7 10 25 10q16 0 28.5 -12t12.5 -29q0 -8 -2 -12q-14 -44 -51.5 -140t-63.5 -176t-33 -136v-2q0 -11 10 -11q5 0 7 2q25 21 119.5 103t138 118.5t122 101.5t147 116.5t138.5 99.5q12 6 21 6q20 0 20 -18q0 -9 -6 -15 q-89 -60 -183.5 -136.5t-150 -126.5t-164.5 -151.5t-149 -138.5q-6 -5 -16 -12.5t-15 -11.5t-12.5 -8t-16.5 -6t-20 -3h-2q-88 0 -88 103z" />
<glyph unicode="w" horiz-adv-x="1378" d="M-104 281v20q0 73 22 131q36 103 56 140.5t87 125.5q23 30 72 70q20 14 45 14q26 0 37 -14q8 -11 8 -27q0 -25 -19.5 -53t-45.5 -35q-31 -10 -54 -43q-52 -72 -63 -92.5t-49 -107.5q-27 -68 -27 -115v-10q133 39 381 293q9 6 30 26.5t30 26.5q13 10 34 10q20 0 34.5 -11 t14.5 -30q0 -20 -10 -37q-2 -4 -21 -31.5t-27.5 -41.5t-26 -45t-27.5 -57t-21.5 -61t-16.5 -72.5t-5 -76.5v-6q3 -70 57 -70q13 0 37 7q139 48 248 182.5t143 281.5l-3 3q-4 4 -9 10.5t-9.5 16t-8 24.5t-3.5 32v7q1 25 19 44t37 19q41 0 41 -67q0 -12 -5.5 -34t-5.5 -30 q0 -22 21 -31q77 -35 184 -35q27 0 97 9q22 4 41.5 9.5t42.5 14t34.5 13t40.5 18t37 16.5q4 2 12 2q11 0 11 -4q0 -5 -15 -14q-143 -82 -305 -82q-111 0 -223 37q-41 -149 -156 -291t-252 -184q-24 -8 -53 -8q-43 0 -72.5 24t-33.5 70q0 6 -1 19.5t-1 19.5q0 47 8.5 93 t22.5 84.5t25.5 64.5t26 52t15.5 27q-35 -27 -116 -102t-149.5 -128t-125.5 -71q-15 -6 -31 -6q-25 0 -41.5 17.5t-19.5 48.5z" />
<glyph unicode="x" horiz-adv-x="1558" d="M-367 -88q0 12 7 22t20 11t24.5 7t17.5 11.5t16 17t14 15.5q49 50 145.5 149.5t145.5 149.5q3 2 10 6t10 6q-2 7 -8 31q-39 130 -39 274v25q0 23 -14.5 55t-14.5 53q0 24 17 62q5 11 19.5 20t31.5 9q39 0 39 -50v-159q0 -149 30 -256q38 32 113.5 97.5t117 100.5 t108.5 86.5t132 94.5q37 25 79.5 49.5t98 54.5t81.5 45q7 4 45 14q2 -4 2 -12q0 -3 -1 -6t-2.5 -5t-4 -4t-4 -2.5t-5 -2.5t-4.5 -2q-81 -40 -165 -93.5t-145 -98.5t-148.5 -121t-131.5 -116.5t-137 -127.5q-1 -1 -2 -3l-2.5 -5t-3.5 -5q70 -198 242 -198q129 0 296 51.5 t316 125.5t280 147.5t218 125t100 51.5q2 0 2 -2v-2t-0.5 -1.5t-2 -1.5t-2.5 -2t-3.5 -2.5t-4.5 -3t-6 -4t-8 -5.5q-114 -75 -249 -153t-308.5 -166t-344 -143.5t-292.5 -55.5h-8q-175 0 -268 153l-23 27q-26 -24 -177.5 -181t-194.5 -186q-17 -10 -25 -10q-13 0 -21 12 t-8 27z" />
<glyph unicode="y" horiz-adv-x="1030" d="M-858 -1034q0 65 22 134t64.5 139t80 122t91.5 117q82 101 171 191t201.5 181.5t187.5 148t218 159.5q28 20 47 51q17 30 54.5 96t66.5 118.5t49 94.5q-2 0 -6 4q-5 -5 -16.5 -14t-16.5 -14q-83 -76 -204 -172.5t-181 -120.5q-19 -8 -43 -8q-31 0 -49 20t-18 55v13 q4 71 40 156t81.5 151t92 110.5t72.5 44.5q14 0 19 -8q8 -11 8 -24q0 -10 -4.5 -21t-9 -17.5t-15 -21t-14.5 -20.5q-101 -138 -170 -309q-14 -33 -14 -46q0 -6 4 -22q54 26 67 35q49 30 95 62t77.5 56t77 62.5t68 58.5t76 69t77.5 71q15 15 21 18q12 4 16 4q19 0 19 -20v-8 q-1 -8 -40 -85t-90.5 -175t-54.5 -103v-6q0 -6 -2 -12q334 223 682 342q1 -1 3.5 -4.5t3.5 -4.5q-11 -11 -21 -16q-62 -27 -123 -51q-273 -116 -571 -326q-24 -18 -41 -49q-30 -57 -96 -187t-103 -198q-309 -564 -594 -831q-47 -45 -110.5 -75t-122.5 -30q-21 0 -31 2 q-49 9 -69.5 34t-22.5 75v4zM-813 -1026v-8q0 -37 16 -51.5t56 -16.5h6q42 0 89.5 21t82.5 51q213 190 393 498q260 443 334 630q-71 -45 -260 -192q-202 -156 -373.5 -338t-280.5 -375q-63 -113 -63 -219z" />
<glyph unicode="z" horiz-adv-x="1196" d="M-588 -934q0 94 62 225t164 265q194 252 440.5 467.5t427.5 302.5q23 11 26 32q0 55 -22.5 97.5t-69.5 42.5q-8 0 -28 -4q-32 -8 -160 -64q-3 -1 -33 -16q-6 -2 -16 -2q-15 0 -25 8.5t-10 23.5q0 11 2 15q4 17 30.5 60t65 101.5t41.5 63.5q2 3 29 64q-18 -5 -49 -15 q-133 -52 -230 -127q-7 -4 -24 -31t-31 -30q-8 0 -35 16q-14 8 -14 27q0 15 12 30q41 56 169.5 130t201.5 77h4q34 0 55 -19t21 -50q0 -7 -4 -27q-3 -12 -7.5 -23.5t-8 -21t-9.5 -22t-9 -19.5t-11.5 -21.5t-11 -19t-12.5 -20.5t-11.5 -19.5t-13 -22t-13.5 -20.5q9 2 30.5 8 t34 8.5t30.5 5.5t32 3q83 0 115 -90q12 -37 12 -68v-29q144 79 320 149.5t315 106.5q2 0 5 1t5 1q10 0 10 -8q0 -7 -16 -10q-84 -10 -279 -94.5t-337 -165.5q-21 -10 -29 -31q-60 -244 -245 -553.5t-382 -541.5q-27 -32 -53.5 -62t-72.5 -75.5t-87 -77.5t-90 -56t-88 -24 q-43 0 -78 30q-45 42 -45 119zM-549 -938q0 -66 33 -92q24 -17 47 -17q42 0 96.5 32.5t110 86.5t91 92.5t69.5 79.5q302 359 520 785q29 57 60 137.5t44 136.5q-91 -43 -241 -157.5t-324.5 -284.5t-296.5 -332q-101 -134 -155 -258.5t-54 -208.5z" />
<glyph unicode="{" horiz-adv-x="1073" d="M57 -158q0 172 84 402t178 391q14 25 34.5 59.5t30.5 51.5t23 40t19 35t12.5 26t8.5 22.5t2 15.5q0 18 -14.5 25t-60 16t-79.5 20q-49 12 -49 53q0 32 35 54q31 23 51 32q207 106 345.5 295t201.5 424q4 15 15.5 58t17 63.5t18 60.5t22.5 62.5t25.5 56.5t32 56t38 46.5 t47 42t54.5 29.5q27 11 51 11q21 0 33 -6.5t12 -16.5q0 -9 -20 -18q-38 -15 -70.5 -37t-55.5 -44t-44 -56.5t-34 -60t-28 -69t-22 -68t-20 -72.5q-2 -7 -3 -11q-33 -123 -80.5 -236t-114 -221.5t-157 -198.5t-197.5 -149q-17 -8 -22 -22q6 -1 31.5 -7t33 -8.5t27.5 -9 t28 -13t19 -17t15 -24t4 -30.5q0 -19 -5 -37q-6 -26 -21 -52.5t-39.5 -62.5t-39.5 -63q-17 -30 -66 -117.5t-74.5 -134.5t-65.5 -131.5t-61 -146t-37.5 -139t-16.5 -146.5q0 -73 14 -133q21 -89 86 -167t143.5 -122t149.5 -49h24q33 0 68 6t37 6h6q12 -6 12 -12 q0 -15 -37 -27q-46 -12 -96 -12q-44 0 -90 12q-273 80 -354 354q-15 56 -15 121z" />
<glyph unicode="|" horiz-adv-x="270" d="M0 -262q20 312 86 1057q26 298 102 1073q2 16 7 108q0 24 6 45q5 21 28 21t29 -12q10 -10 10 -201v-49q-6 -112 -18 -225.5t-34 -288t-28 -224.5q-55 -434 -88 -731q-9 -87 -49 -522q-10 -98 -10 -180q0 -35 4 -105v-16q0 -16 -8 -18q-1 0 -3 -1t-3 -1q-8 0 -17 14 q-14 38 -14 84v172z" />
<glyph unicode="}" horiz-adv-x="1079" d="M-377 -588q0 11 21 19q5 1 15 4t15 4q90 20 176 80q161 106 280.5 220t211.5 262.5t141 322.5q67 232 86 284q28 72 61.5 108t100.5 58q18 4 25 17q-12 11 -39 35t-45.5 43t-34.5 38q-70 89 -70 189q0 42 15 92q25 76 55 147q20 45 70.5 158.5t76.5 175.5q67 165 80 266 q2 14 2 45q0 119 -80 246q-21 34 -65 47q-5 2 -16.5 6.5t-16.5 6.5q-24 8 -24 20q0 1 1 4t1 4q3 13 20 13h16q100 0 152 -78q88 -133 88 -277q0 -46 -4 -69q-22 -134 -102 -316q-8 -18 -59.5 -130t-76.5 -171q-19 -42 -47 -123q-12 -37 -12 -71q0 -63 41 -125q30 -46 84 -90 q16 -11 43 -34.5t35 -29.5q33 -26 33 -51q0 -1 -1.5 -4.5t-1.5 -5.5q-10 -34 -57 -37q-20 -2 -74 -19q-34 -11 -62.5 -38t-48 -59.5t-36.5 -76.5t-27 -79t-21 -77q-3 -14 -5 -20q-138 -551 -682 -874q-83 -51 -187 -70q-16 -4 -24 -4q-2 0 -6 -1t-6 -1q-12 0 -15 10v6z" />
<glyph unicode="~" horiz-adv-x="917" d="M217 688q0 17 10 27q30 47 73.5 84t86.5 37q44 0 80 -50q56 -80 102 -86q3 0 8.5 -1t8.5 -1q72 0 172 105q10 10 20 10q15 0 15 -18q0 -13 -13 -29q-105 -113 -209 -113h-4q-13 0 -26.5 3.5t-23.5 7.5t-23 14t-20 15t-20 18.5t-16.5 17.5t-16 19t-13.5 16q-15 18 -25 18 q-12 0 -25 -8q-31 -16 -56 -43t-39 -45t-25 -18q-7 0 -11 2q-10 5 -10 18z" />
<glyph unicode="&#xa1;" horiz-adv-x="1009" d="M127 135q0 6 16 33q58 99 167.5 279.5t196.5 329t159 284.5q64 121 77 170q3 14 15 14q16 0 16 -24v-4q-5 -23 -20.5 -63.5t-41 -94t-45 -93t-47 -94t-32.5 -63.5q0 -1 -41.5 -79.5t-95 -175.5t-114 -198.5t-114.5 -170t-80 -68.5q-6 0 -12 6q-4 4 -4 12zM801 1430v2 q6 30 9 42.5t14 33.5t28 34q3 2 11 5t11 5q14 -2 23.5 -11.5t9.5 -24.5v-5q0 -23 -25 -58t-48 -42q-4 -2 -11 -2q-9 0 -15.5 6t-6.5 15z" />
<glyph unicode="&#xa2;" horiz-adv-x="925" d="M125 463q0 108 84 246q35 55 79 111t100 115.5t120.5 102t122.5 52.5q20 3 31 28q47 114 83 193q1 2 4.5 11.5t5.5 14t7.5 9t11.5 4.5h4q21 -3 21 -27q0 -17 -13 -49q-5 -11 -69 -182q4 -5 28.5 -17t48.5 -36t35 -64q5 -20 5 -27q0 -21 -9 -37t-18 -16q-7 0 -12 10 q-1 2 -6 20t-15.5 34.5t-30.5 31.5q-27 21 -43 21q-23 0 -41 -43q-131 -290 -258 -604q-12 -27 -12 -39q0 -9 10 -12t37 -5q23 -2 62 -2q74 0 132.5 14.5t86.5 31.5t50 31.5t30 14.5q9 0 14 -8q6 -6 6 -12q0 -7 -16 -23q-127 -110 -338 -110h-53q-40 0 -52.5 -12t-33.5 -66 q-87 -245 -113 -363q-2 -8 -4 -13.5t-3.5 -9t-4 -5.5t-3.5 -2.5t-4 -0.5l-4 -1q-8 8 -8 22q0 4 1 8.5t2.5 11t2.5 9.5q30 137 115 383q10 30 10 37q0 8 -8 12.5t-33 13.5q-145 53 -145 193zM203 465q0 -97 102 -131q24 -8 27 -8q7 0 11.5 6.5t12.5 25.5q31 79 112 280 t124 312q12 30 12 37q0 2 -1 6t-1 6q-75 -26 -163 -114.5t-152.5 -194t-79.5 -184.5q-4 -28 -4 -41z" />
<glyph unicode="&#xa3;" horiz-adv-x="1474" d="M8 123q0 7 17 24q34 32 72.5 52.5t58.5 38.5q88 77 161 182q83 116 185 285q10 15 10 22q0 1 -1 3t-1 3h-8q-19 0 -58.5 -7t-54.5 -7q-24 0 -27 14v4q0 15 35 21q83 10 103 10q39 0 63 41q160 285 307 422q126 117 242 117q4 0 12.5 -1t12.5 -1q66 -6 101.5 -48.5 t35.5 -101.5q0 -49 -29 -102q-17 -25 -33 -25q-8 0 -13 6t-5 15q1 5 6 23t9.5 40.5t4.5 42.5q0 70 -69 90q-21 6 -45 6q-55 0 -116 -36.5t-112 -89.5t-102.5 -122.5t-86.5 -124.5t-66 -105q-7 -13 -11 -19q-4 -4 -4 -11q0 -4 2 -8l139 -4q4 0 7.5 -3.5t3.5 -6.5 q0 -6 -11 -10l-135 -7q-33 0 -51 -30q-183 -318 -328 -463q-16 -16 -16 -23q0 -2 4 -2h4q52 -2 131 -30.5t149 -61t161.5 -59.5t168.5 -27q27 0 41 2q13 2 46.5 15.5t46.5 13.5t16 -10v-4q0 -17 -42 -28t-62 -11h-27q-86 0 -180.5 26.5t-162.5 58t-146 59t-134 28.5h-4 q-39 0 -62 -14.5t-49.5 -39.5t-58.5 -39q-12 -6 -22 -6q-13 0 -19 11q-4 4 -4 12z" />
<glyph unicode="&#xa4;" horiz-adv-x="684" d="M-41 406q0 9 14 28q62 75 90 98q13 17 13 21v4q-2 12 -2 33q0 30 11 59t23.5 47t23.5 38.5t11 35.5q0 21 -20 41q-6 6 -27 43q-6 9 -6 18t5 15t11 6q16 0 27 -23q23 -48 39 -75q7 6 20.5 19t23 19.5t17.5 6.5t19 -11q8 -4 10 -4q1 0 3 1t3 1q32 4 39 4q16 0 24.5 -8.5 t24.5 -38.5q0 -3 6 -6q91 99 127 99q15 0 15 -15q0 -8 -4 -12q-8 -8 -49.5 -37t-65.5 -54.5t-25 -51.5q0 -36 -11 -60.5t-21.5 -38.5t-10.5 -24q0 -8 7 -19q10 -15 37 -70t45 -73q10 -15 10 -19t-4 -8q-8 -4 -11 -4q-13 0 -28 16t-23 29q-10 16 -19.5 33t-15.5 27t-12 20.5 t-9 15.5t-6.5 9.5t-6 6t-5.5 1.5t-11 -7t-26 -18.5t-44 -19.5q-24 -8 -43 -8q-17 0 -32.5 8t-19.5 8q-8 0 -20 -12q-53 -49 -86 -90q-2 -2 -6 -8t-8.5 -9.5t-8.5 -3.5l-4 2q-8 5 -8 15zM113 584q0 -47 45 -47q52 0 111.5 58.5t60.5 135.5v12q0 25 -8 41q-8 25 -27 25 q-6 0 -18 -4t-17 -4q-4 0 -6 2q-8 8 -14 8q-5 0 -19 -14q-108 -130 -108 -209v-4z" />
<glyph unicode="&#xa5;" horiz-adv-x="815" d="M80 985q0 82 30.5 181t71.5 177q13 26 35 54t41 33q2 2 8 2q14 0 17 -13q2 -4 2 -8q0 -6 -4 -14.5t-5 -10.5q0 -1 -1 -5t-2 -5.5t-3 -3.5t-6 -2h-10q-3 0 -5 -2t-4 -5.5t-3 -4.5q-37 -58 -76 -178.5t-39 -202.5q0 -98 61 -98q45 0 107 43q62 41 138 111.5t162.5 157.5 t133.5 130q35 35 53 35q3 0 11 -4q10 -5 10 -21q0 -13 -17 -53q-24 -57 -157 -334q-39 -81 -47 -106h55q98 0 119 -7q14 -7 14 -14q0 -8 -14 -8h-4q-32 4 -45 4q-24 0 -65.5 -3.5t-53.5 -4.5q-27 -4 -33 -21q-17 -40 -61 -145q4 -6 14 -6h12q100 8 148 8h10q10 -3 10 -12 q0 -8 -8 -11l-180 -22q-27 -3 -35 -25q-6 -16 -35.5 -90.5t-40 -103.5t-31.5 -87.5t-34.5 -105t-24.5 -94.5q-7 -30 -14 -76q-3 -12 -13 -12t-10 12v4l12 86q13 58 33 125.5t34.5 110.5t44 127t40.5 115h-10q-18 0 -60.5 -8.5t-56.5 -8.5q-20 0 -23 10v5q0 11 23 19t35 9 l86 13q24 4 29 16q32 88 61 154h-12q-17 0 -59.5 -7t-63.5 -8q-7 0 -13 5.5t-6 11.5q0 10 11 18q18 12 139 20q21 0 29 19q67 158 194 410q2 2 2 10q-14 -6 -31 -27q-12 -11 -83 -82t-106 -105t-92.5 -84t-99.5 -79q-81 -57 -141 -57q-73 0 -92 86q-6 30 -6 63z" />
<glyph unicode="&#xa7;" horiz-adv-x="1794" d="M-295 -291q0 182 64 307q42 85 94 121q8 -5 8 -16q0 -10 -19 -36t-41.5 -60t-41.5 -108.5t-19 -168.5q0 -47 2 -74q15 -210 207 -313q151 -80 320 -80q140 0 274.5 57.5t245.5 163.5q78 75 126 174.5t48 212.5q0 148 -86 289q-12 20 -22 24.5t-56 10.5v4q0 15 15.5 19.5 t15.5 11.5q0 17 -58 88q-38 45 -93 99.5t-94.5 92t-81 92.5t-67.5 113q-24 55 -24 98q0 75 76 142q79 74 143 74q3 0 8.5 -1.5t7.5 -1.5q29 -4 31 -24v-2q0 -11 -13.5 -17.5t-34.5 -13.5t-55.5 -32t-68.5 -66q-27 -30 -27 -70q0 -18 11 -47q29 -67 77.5 -129.5t94.5 -105.5 t108.5 -109t108.5 -129q14 -14 22 -14q6 0 19 10q123 99 123 246q0 76 -37 151q-21 44 -66 99t-93 106.5t-95.5 107.5t-83.5 120t-47 126q-10 62 -10 109q0 152 79 270q276 414 754 414q9 0 26.5 -1t26.5 -1q101 -6 187 -43q68 -29 106.5 -90t38.5 -133q0 -68 -35 -123 q-13 -19 -22 -19q-6 0 -10.5 8t-4.5 17v6q13 50 13 90q0 139 -131 187q-98 36 -209 36q-52 0 -117 -10q-337 -57 -541 -315q-98 -119 -112 -318v-10q0 -73 49.5 -163t109.5 -156q25 -28 77 -85.5t77 -84.5q55 -61 90 -137.5t35 -151.5q0 -74 -39 -139q-27 -45 -54.5 -78.5 t-42.5 -46.5t-24.5 -24t-9.5 -21q0 -12 18 -50q73 -142 78 -266v-14q0 -257 -196 -447q-205 -202 -473 -231q-54 -4 -82 -4q-87 0 -169.5 18.5t-156.5 57.5t-129.5 95t-88.5 136.5t-34 175.5z" />
<glyph unicode="&#xa8;" horiz-adv-x="677" d="M193 1675q11 70 57 103q11 8 24 8q15 0 26.5 -11.5t12.5 -29.5v-6q0 -30 -20 -53q-30 -30 -51 -44q-12 -6 -21 -6q-28 0 -28 39zM406 1681q0 19 8 35q24 46 65 51h4q18 0 30.5 -11.5t12.5 -26.5q0 -7 -4 -19q-12 -28 -47 -76q-9 -12 -22 -12q-21 0 -33 18q-14 17 -14 41z " />
<glyph unicode="&#xa9;" horiz-adv-x="1615" d="M94 528v15q8 136 42 268.5t99.5 257t155 221t217 158.5t275.5 70h30q220 0 367 -147t147 -365q0 -64 -10 -113q-60 -317 -249.5 -529.5t-497.5 -306.5q-82 -26 -166 -26q-185 0 -297.5 133t-112.5 364zM158 508q0 -109 30.5 -193t84 -133.5t121 -74.5t147.5 -25 q101 0 205.5 38t193.5 107q273 211 410 551q47 118 47 226q0 156 -93 274.5t-262 173.5q-67 21 -133 21q-83 0 -209 -37q-75 -23 -112.5 -40.5t-43.5 -29t-4.5 -20.5t-9 -22t-45.5 -28q-48 -20 -94 -88q-218 -325 -233 -700zM467 610q0 86 27.5 175.5t93 181.5t160.5 155 q61 41 114 41q71 0 112.5 -64.5t41.5 -137.5q0 -81 -45 -84h-4q-24 0 -40.5 28.5t-25 62.5t-28 62.5t-48.5 28.5q-23 0 -59 -23q-240 -152 -250 -454v-13q0 -69 29.5 -101t79.5 -32q46 0 101.5 24t102.5 60q2 2 13 11t17 13.5t19 9t27 5.5q-55 -80 -125.5 -119.5 t-161.5 -50.5h-14q-63 0 -100 62t-37 159z" />
<glyph unicode="&#xab;" horiz-adv-x="1206" d="M135 526q0 44 66 78q296 154 458 203q31 0 33 -16v-7q0 -6 -5 -7.5t-22.5 -5.5t-37.5 -13q-257 -112 -394 -187q-43 -24 -43 -39q0 -13 28.5 -30.5t94.5 -57.5t127 -88l10 -8q10 -8 17 -14t18 -16t18.5 -18.5t13 -17t5.5 -14.5t-2 -8q-5 -8 -12 -8q-1 0 -16 10 q-52 49 -120.5 91.5t-126.5 73.5t-79 48q-31 24 -31 51zM500 541q0 30 45 55q21 11 96.5 51.5t123.5 65.5t112 54.5t104 41.5h8q18 0 23 -14v-2q0 -5 -3 -7.5t-9.5 -4.5t-8.5 -3q-134 -62 -428 -233q-2 0 -6 -8q7 -11 31 -25q28 -17 85.5 -52.5t102 -62t86.5 -47.5 q23 -12 23 -20q0 -3 -3.5 -5.5t-7.5 -4.5l-4 -1q-24 6 -73 28.5t-86 42t-97.5 53.5t-68.5 38q-45 25 -45 60z" />
<glyph unicode="&#xad;" horiz-adv-x="1136" d="M203 625q0 4 2 7.5t5 5.5t5.5 3.5t8 2.5t8 1.5t9 1t7.5 0.5q49 6 98 6q145 2 436 2q37 0 68 -8q22 -4 22 -16v-2q-2 -15 -26 -15q-7 1 -21.5 2t-19.5 2q-58 -3 -346 -18q-74 -4 -113 -4q-50 0 -100 6q-2 0 -10.5 1t-12 1.5t-9.5 3t-8.5 6.5t-2.5 11z" />
<glyph unicode="&#xae;" horiz-adv-x="987" d="M25 1198q0 143 75 307.5t176 243.5q2 2 7 6.5t8 7t8 5.5t10 4.5t10 1.5h11q4 0 9 5.5t7 6.5q96 76 234 98q8 2 26 2q64 0 129 -42.5t92 -98.5q54 -114 54 -246q0 -147 -64 -280t-187 -224t-278 -104q-134 2 -219.5 63.5t-103.5 186.5q-4 36 -4 57zM47 1196 q0 -144 94 -215q83 -68 187 -68q27 0 39 2q143 16 255 99t172 207t60 266v63q-10 112 -51 187q-26 51 -84 88t-121 37q-13 0 -37 -4q-179 -42 -233 -117q-2 -2 -4.5 -5.5t-5 -6.5t-3.5 -3q-9 3 -14 3q-8 0 -14.5 -5t-13.5 -14.5t-9 -11.5q-131 -142 -194 -357 q-23 -86 -23 -145zM178 1077q0 6 2 10q18 80 219 492q0 1 4.5 8.5l7.5 12.5t8.5 13.5t10.5 15t11 12.5t13 9t13 3q8 0 12 -2q6 -3 6 -11q0 -6 -16 -38q-2 -3 -9 -9.5t-9 -11.5q-4 -8 -12.5 -23.5t-12.5 -23.5q3 1 28.5 14t47.5 23t52 19t50 9q49 0 49 -49q0 -38 -28 -69 q-70 -88 -183 -109q-25 -3 -32 -8q0 -4 2 -6q116 -126 209 -187q10 -6 25.5 -12.5t23.5 -11t8 -8.5q0 -1 -1 -2t-1 -2q0 -5 -6 -5q-13 0 -44 16.5t-42 24.5q-31 21 -65 48.5t-55 47t-60 55t-56 50.5q-10 -4 -14 -16q-76 -153 -129 -277q-6 -12 -15 -12q-1 0 -3.5 1t-4.5 1 q-4 2 -4 8zM381 1425q0 -16 33 -16h4q130 11 192 100q15 19 15 25t-7 16q-11 17 -30 17q-15 0 -27 -6q-147 -48 -168 -109q-12 -15 -12 -27z" />
<glyph unicode="&#xb1;" horiz-adv-x="1114" d="M109 248v2q0 9 10 12q35 12 37 12q33 7 68 10.5t85.5 6t71.5 4.5h57q97 0 158 -12q25 -5 25 -15v-2q0 -10 -11 -10q-6 0 -18 4q-50 6 -100 6q-63 0 -199 -12q-113 -8 -166 -14h-6q-10 0 -12 8zM215 793q0 19 43 36q43 20 127 35.5t145 18.5q27 3 35 24q68 163 115 217 q6 9 16 9q8 0 13.5 -6t5.5 -15v-4q-8 -38 -50 -120.5t-42 -94.5q7 -2 37 -2t71.5 -7t81.5 -26q18 -7 18 -16q0 -6 -2 -8q-3 -7 -10 -7q-3 0 -8 1t-8 1q-52 23 -123 23q-10 0 -29.5 -1t-29.5 -1q-23 0 -31 -21q-102 -230 -133 -364q-4 -14 -4 -37q0 -9 2 -21t2 -14 q0 -7 -11 -10h-4q-22 0 -22 57v19q5 34 13 68.5t21 76t21 64.5t26 74t23 65q8 16 8 24q0 1 -1 5t-1 6q-217 -37 -284 -64q-4 -2 -10 -2q-8 0 -14.5 5t-6.5 12z" />
<glyph unicode="&#xb4;" horiz-adv-x="567" d="M184 1616q0 2 4 10q2 2 8 11t11 12q30 22 104.5 85.5t120.5 92.5q10 8 57 14q7 0 16.5 -9t12.5 -17q2 -2 2 -7q0 -11 -10 -18l-21 -14q-158 -110 -266 -174q-6 -3 -10 -3h-12q-6 0 -11.5 5.5t-5.5 11.5z" />
<glyph unicode="&#xb5;" horiz-adv-x="1107" d="M-141 -227q1 6 10 28q39 92 88 189t118.5 223t98.5 182q46 87 139.5 261.5t139.5 261.5q38 74 53 120q11 29 16 52q4 20 4 30q0 40 -26 66q-13 13 -13 20t2 11q5 8 15 8q2 0 20 -6q63 -26 72 -99q0 -3 1 -9t1 -9q0 -41 -20 -86q-28 -74 -95 -187q-53 -90 -200 -335 q-27 -50 -27 -107v-12q0 -35 18 -62q24 -34 60 -34q8 0 24 4q23 6 70 34q106 75 219 226q87 115 203 338q60 117 125 235q38 63 67 90q16 19 37 25h4q14 0 21 -10q2 -2 2 -7q0 -8 -8 -12q-28 -22 -62 -84l-123 -233q-68 -129 -102 -191q-79 -133 -94 -291q-2 -10 -2 -28 q0 -48 30 -72q5 -5 5 -10q0 -4 -2 -6q-3 -6 -11 -6q-1 0 -3 1t-3 1q-33 13 -43 51q-8 27 -8 61q0 24 4 70q4 16 4 27q0 8 -2 12q-7 -3 -16.5 -13.5t-12.5 -13.5q-100 -114 -180 -172q-51 -34 -80 -47q-25 -14 -55 -14q-43 0 -74 31t-37 75q0 21 -2 33q-5 0 -8.5 -2.5 t-5 -4.5t-3.5 -7.5t-3 -6.5q-212 -375 -301 -571q-3 -5 -8.5 -15.5t-8.5 -15.5q-3 -6 -12 -6q-7 0 -13.5 5.5t-6.5 11.5v2z" />
<glyph unicode="&#xb6;" horiz-adv-x="1468" d="M2 -164q0 4 4 8q0 5 4 9q64 127 176 365t156 327q10 20 10 28v7q-8 4 -12 4q-97 9 -165.5 75t-90.5 168q-12 61 -12 121q0 151 75 283q88 155 261 307q281 248 577 352q18 7 35 27q15 19 24 27q9 6 17 6q9 0 12 -15q2 -14 12 -14q9 0 13 2q78 16 149 16q37 0 78 -6 q8 -1 26.5 -6.5t28.5 -5.5q15 0 27 6h2q8 0 8 -2q3 -16 22 -34t23 -29q4 -8 4 -15q0 -6 -4 -10t-6 -4q-4 0 -8.5 4.5l-5.5 5.5q-21 15 -29 15q-11 0 -31 -33q-398 -665 -682 -1293q-201 -444 -272 -598l-37 -79q-11 -11 -12 -11t-2 1t-2 1q-6 3 -6 11q0 1 1 3t1 3q4 8 4 10 q31 72 122 283.5t137 316.5t120 271.5t137 302.5q190 408 373 706q13 20 38.5 59t38.5 58q-12 12 -30 12h-8q-6 0 -18.5 1t-18.5 1q-79 0 -211 -35q-23 -7 -35 -34q-11 -21 -40 -82t-46 -93l-220.5 -430.5t-271.5 -537.5q-20 -36 -24 -58q18 0 59 9q47 12 49 12q2 1 6.5 3 t8.5 3.5t8 1.5q5 0 8 -10v-4q0 -12 -27 -17q-59 -22 -102 -24q-32 -3 -45 -35q-35 -69 -128.5 -259t-145.5 -292q-11 -23 -34 -67t-34 -66q-6 -15 -18 -33q-8 -8 -11 -8q-4 0 -6 2q-4 4 -4 6zM113 934q0 -49 14 -117q37 -166 192 -201q24 -6 35 -6q13 0 20.5 9t20.5 36 q68 145 205.5 437t206.5 438q56 113 141 274h-14q-23 -9 -31 -14q-327 -151 -584 -426q-86 -89 -141 -188q-65 -118 -65 -242z" />
<glyph unicode="&#xb8;" horiz-adv-x="436" d="M-88 -78q0 4 4 8q2 2 6 2t10 -6q20 -20 56 -20q4 0 12 1t12 1q16 0 33 10q33 20 33 43q0 7 -4 19q-9 28 -41 28q-13 0 -19 -2q-20 -4 -32 -6q-4 -2 -15 -2q-13 0 -18 10q-4 6 -4 15q0 6 8 22q20 25 24 29q18 23 58 63q8 10 22 21q8 8 15 8q6 0 12 -6q2 -2 2 -8 q0 -3 -6 -15q-5 -8 -17.5 -24.5t-17.5 -24.5q-19 -23 -20 -31q6 -6 20 -6q67 -6 76 -84v-10q0 -26 -18 -48.5t-46 -29.5q-24 -6 -47 -6q-37 0 -69 14q-21 12 -25 23q-4 8 -4 12z" />
<glyph unicode="&#xbb;" horiz-adv-x="1046" d="M45 362q0 16 33 35q168 114 262 162q52 27 66 41q-4 8 -11.5 15t-12.5 10t-16 9t-14 7l-20 11q-19 10 -37 20t-43.5 25t-43.5 27.5t-31 25t-13 20.5v2q3 8 10 8q6 0 21 -10l221 -119q45 -26 45 -53q0 -26 -43 -53q-54 -33 -105 -56q-139 -66 -225 -122q-2 -1 -9 -6 t-13.5 -8t-10.5 -3q-5 0 -8 6q0 1 -1 3t-1 3zM270 285q0 4 3 8t9.5 9t8.5 7q43 42 159 106.5t222 117.5t121 67q-4 8 -11 14t-18 12.5t-14 8.5q-99 64 -248 158q-46 28 -72 28q-12 0 -20 -2q11 33 41 33q15 0 67 -23q141 -73 307 -186q33 -21 33 -45q0 -34 -106 -78 q-6 -3 -9 -4q-333 -150 -434 -231q-2 -2 -5.5 -5t-6 -5.5t-6 -4.5t-6.5 -2q-5 0 -9 4q-6 6 -6 13z" />
<glyph unicode="&#xbf;" horiz-adv-x="1515" d="M129 315q0 18 4 58q9 62 57.5 142.5t123 164t143.5 152t145 135.5q108 95 254 245q139 139 256 295q50 64 86 144q0 2 2 4q1 2 3.5 7.5t4.5 9t6 3.5q1 0 3.5 -1t3.5 -1q8 -3 8 -10q0 -4 -6 -16q-23 -67 -68 -131q-79 -119 -241 -300.5t-269 -271.5q-56 -47 -118 -107 t-140.5 -145.5t-134 -175.5t-64.5 -160q-4 -28 -4 -41q0 -64 36.5 -112.5t101.5 -71.5q59 -18 116 -18t109 14q174 49 327 186q23 21 48 56q14 18 14 26q0 10 -14 21q-11 7 -11 16q0 12 17 19q23 10 43 10q47 0 53 -49v-6q0 -22 -16 -50q-27 -53 -72 -92 q-191 -160 -397 -205q-27 -6 -78 -6h-15q-60 0 -127 23q-190 61 -190 239zM1276 1942q0 23 14.5 39t36.5 16q17 -2 29 -14t12 -29v-4q0 -19 -15 -34.5t-34 -17.5h-4q-17 0 -28 12.5t-11 31.5z" />
<glyph unicode="&#xc0;" d="M31 483q0 20 11.5 36t29.5 16q1 0 16 -5q12 -4 18 -4q12 0 27 6q405 144 780 207q41 8 60 43q325 549 848 1170q54 64 126.5 140.5t172.5 173t200 165t168 80.5q20 4 31 4q66 0 102 -54.5t39 -129.5v-27q0 -105 -36.5 -249.5t-104 -313.5t-125.5 -300.5t-139.5 -305.5 t-108.5 -234q16 -4 23 -4q15 0 35 4q288 21 413 21h58q22 0 24 -17q0 -18 -20 -18q-4 0 -12 1t-11 1q-48 -1 -96 -3t-108.5 -7t-91 -7.5t-108 -10t-95.5 -9.5q-23 -2 -45 -15t-31 -32q-105 -220 -361.5 -746t-429.5 -901q-8 -16 -41.5 -78.5t-50.5 -99.5q-1 -3 -4.5 -10 l-5 -10t-5 -8t-6 -7t-6.5 -4t-8 -2t-16 4q-12 6 -12 23q0 23 18 53l131 221q162 349 394.5 835t346.5 728q9 18 9 26v5h-9q-74 0 -446 -61.5t-504 -88.5q-45 -9 -65 -43q-77 -121 -189 -318.5t-162 -308.5q-8 -19 -8 -28q0 -10 11.5 -21t11.5 -28t-4 -29q-21 -79 -99 -154 q-23 -20 -55 -20t-57 22.5t-25 57.5q0 14 6 32q29 82 168 325t248 423q20 30 23 43q-12 4 -15 4q-2 0 -26 -6q-323 -72 -625 -178q-90 -31 -121 -31q-14 0 -20 2q-41 14 -41 55zM1090 772q559 75 946 115q33 3 43 33q14 30 90.5 191t116 248t101.5 227t102 250t63 196 q45 164 45 274q0 141 -82 141q-33 0 -92 -30q-105 -60 -245 -192.5t-259 -266.5q-404 -450 -735 -1010q-65 -109 -94 -176zM2535 2806q0 6 2 8q10 25 27 25h2q20 -3 45 -19q86 -53 228 -160q4 -2 20 -24q2 -2 2 -8t-4 -11.5t-10 -5.5q-9 0 -29 12q-50 32 -138.5 83.5 t-113.5 66.5q-3 3 -10 8t-10 8q-11 7 -11 17z" />
<glyph unicode="&#xc1;" d="M31 483q0 20 11.5 36t29.5 16q1 0 16 -5q12 -4 18 -4q12 0 27 6q405 144 780 207q41 8 60 43q325 549 848 1170q54 64 126.5 140.5t172.5 173t200 165t168 80.5q20 4 31 4q66 0 102 -54.5t39 -129.5v-27q0 -105 -36.5 -249.5t-104 -313.5t-125.5 -300.5t-139.5 -305.5 t-108.5 -234q16 -4 23 -4q15 0 35 4q288 21 413 21h58q22 0 24 -17q0 -18 -20 -18q-4 0 -12 1t-11 1q-48 -1 -96 -3t-108.5 -7t-91 -7.5t-108 -10t-95.5 -9.5q-23 -2 -45 -15t-31 -32q-105 -220 -361.5 -746t-429.5 -901q-8 -16 -41.5 -78.5t-50.5 -99.5q-1 -3 -4.5 -10 l-5 -10t-5 -8t-6 -7t-6.5 -4t-8 -2t-16 4q-12 6 -12 23q0 23 18 53l131 221q162 349 394.5 835t346.5 728q9 18 9 26v5h-9q-74 0 -446 -61.5t-504 -88.5q-45 -9 -65 -43q-77 -121 -189 -318.5t-162 -308.5q-8 -19 -8 -28q0 -10 11.5 -21t11.5 -28t-4 -29q-21 -79 -99 -154 q-23 -20 -55 -20t-57 22.5t-25 57.5q0 14 6 32q29 82 168 325t248 423q20 30 23 43q-12 4 -15 4q-2 0 -26 -6q-323 -72 -625 -178q-90 -31 -121 -31q-14 0 -20 2q-41 14 -41 55zM1090 772q559 75 946 115q33 3 43 33q14 30 90.5 191t116 248t101.5 227t102 250t63 196 q45 164 45 274q0 141 -82 141q-33 0 -92 -30q-105 -60 -245 -192.5t-259 -266.5q-404 -450 -735 -1010q-65 -109 -94 -176zM2503 2681q0 2 4 10q16 22 18 23q25 19 73.5 55.5t87.5 65t75 51.5q24 18 47 20h2q10 0 26 -27q0 -1 1.5 -3t1.5 -3q0 -7 -11 -18q-4 -2 -11 -7 t-11 -7q-43 -28 -130 -82.5t-130 -81.5q-2 -1 -7.5 -5t-10.5 -6t-9 -2q-6 0 -11 5.5t-5 11.5z" />
<glyph unicode="&#xc2;" d="M31 483q0 20 11.5 36t29.5 16q1 0 16 -5q12 -4 18 -4q12 0 27 6q405 144 780 207q41 8 60 43q325 549 848 1170q54 64 126.5 140.5t172.5 173t200 165t168 80.5q20 4 31 4q66 0 102 -54.5t39 -129.5v-27q0 -105 -36.5 -249.5t-104 -313.5t-125.5 -300.5t-139.5 -305.5 t-108.5 -234q16 -4 23 -4q15 0 35 4q288 21 413 21h58q22 0 24 -17q0 -18 -20 -18q-4 0 -12 1t-11 1q-48 -1 -96 -3t-108.5 -7t-91 -7.5t-108 -10t-95.5 -9.5q-23 -2 -45 -15t-31 -32q-105 -220 -361.5 -746t-429.5 -901q-8 -16 -41.5 -78.5t-50.5 -99.5q-1 -3 -4.5 -10 l-5 -10t-5 -8t-6 -7t-6.5 -4t-8 -2t-16 4q-12 6 -12 23q0 23 18 53l131 221q162 349 394.5 835t346.5 728q9 18 9 26v5h-9q-74 0 -446 -61.5t-504 -88.5q-45 -9 -65 -43q-77 -121 -189 -318.5t-162 -308.5q-8 -19 -8 -28q0 -10 11.5 -21t11.5 -28t-4 -29q-21 -79 -99 -154 q-23 -20 -55 -20t-57 22.5t-25 57.5q0 14 6 32q29 82 168 325t248 423q20 30 23 43q-12 4 -15 4q-2 0 -26 -6q-323 -72 -625 -178q-90 -31 -121 -31q-14 0 -20 2q-41 14 -41 55zM1090 772q559 75 946 115q33 3 43 33q14 30 90.5 191t116 248t101.5 227t102 250t63 196 q45 164 45 274q0 141 -82 141q-33 0 -92 -30q-105 -60 -245 -192.5t-259 -266.5q-404 -450 -735 -1010q-65 -109 -94 -176zM2566 2666q0 9 12 17q40 25 98 86.5t72 73.5q10 10 19 16q21 14 31 14q8 0 14 -6q10 -10 10 -24q0 -13 -2 -19l-6 -24q-19 -68 -23 -90 q-2 -10 -2 -31q0 -15 2 -21q0 -1 1 -3t1 -3q0 -9 -8 -12h-4q-6 0 -14 12q-8 16 -8 35q0 20 4 66q4 16 4 30v13q-5 -4 -14 -12t-13 -11q-61 -61 -94 -92q-29 -25 -47 -31q-2 0 -6 -1t-6 -1q-12 0 -17 8q-4 8 -4 10z" />
<glyph unicode="&#xc3;" d="M31 483q0 20 11.5 36t29.5 16q1 0 16 -5q12 -4 18 -4q12 0 27 6q405 144 780 207q41 8 60 43q325 549 848 1170q54 64 126.5 140.5t172.5 173t200 165t168 80.5q20 4 31 4q66 0 102 -54.5t39 -129.5v-27q0 -105 -36.5 -249.5t-104 -313.5t-125.5 -300.5t-139.5 -305.5 t-108.5 -234q16 -4 23 -4q15 0 35 4q288 21 413 21h58q22 0 24 -17q0 -18 -20 -18q-4 0 -12 1t-11 1q-48 -1 -96 -3t-108.5 -7t-91 -7.5t-108 -10t-95.5 -9.5q-23 -2 -45 -15t-31 -32q-105 -220 -361.5 -746t-429.5 -901q-8 -16 -41.5 -78.5t-50.5 -99.5q-1 -3 -4.5 -10 l-5 -10t-5 -8t-6 -7t-6.5 -4t-8 -2t-16 4q-12 6 -12 23q0 23 18 53l131 221q162 349 394.5 835t346.5 728q9 18 9 26v5h-9q-74 0 -446 -61.5t-504 -88.5q-45 -9 -65 -43q-77 -121 -189 -318.5t-162 -308.5q-8 -19 -8 -28q0 -10 11.5 -21t11.5 -28t-4 -29q-21 -79 -99 -154 q-23 -20 -55 -20t-57 22.5t-25 57.5q0 14 6 32q29 82 168 325t248 423q20 30 23 43q-12 4 -15 4q-2 0 -26 -6q-323 -72 -625 -178q-90 -31 -121 -31q-14 0 -20 2q-41 14 -41 55zM1090 772q559 75 946 115q33 3 43 33q14 30 90.5 191t116 248t101.5 227t102 250t63 196 q45 164 45 274q0 141 -82 141q-33 0 -92 -30q-105 -60 -245 -192.5t-259 -266.5q-404 -450 -735 -1010q-65 -109 -94 -176zM2578 2701q0 3 5 13q9 24 43 46.5t61 22.5h2q37 0 49 -35q7 -26 10 -47q3 -18 17 -18q1 0 3.5 1t4.5 1q82 23 135 61q3 1 10.5 8t12.5 7q4 0 10 -6 q4 -8 4 -9q0 -4 -3 -8t-8.5 -8.5t-6.5 -5.5q-61 -51 -162 -86q-8 -4 -23 -4q-31 0 -43 37q-2 7 -5 21.5t-5 21.5q-3 16 -14 16q-5 0 -13 -4q-27 -14 -32 -23q-5 -8 -25 -16q-1 0 -4 -1t-4 -1q-4 0 -12 4q-7 7 -7 12z" />
<glyph unicode="&#xc4;" d="M31 483q0 20 11.5 36t29.5 16q1 0 16 -5q12 -4 18 -4q12 0 27 6q405 144 780 207q41 8 60 43q325 549 848 1170q54 64 126.5 140.5t172.5 173t200 165t168 80.5q20 4 31 4q66 0 102 -54.5t39 -129.5v-27q0 -105 -36.5 -249.5t-104 -313.5t-125.5 -300.5t-139.5 -305.5 t-108.5 -234q16 -4 23 -4q15 0 35 4q288 21 413 21h58q22 0 24 -17q0 -18 -20 -18q-4 0 -12 1t-11 1q-48 -1 -96 -3t-108.5 -7t-91 -7.5t-108 -10t-95.5 -9.5q-23 -2 -45 -15t-31 -32q-105 -220 -361.5 -746t-429.5 -901q-8 -16 -41.5 -78.5t-50.5 -99.5q-1 -3 -4.5 -10 l-5 -10t-5 -8t-6 -7t-6.5 -4t-8 -2t-16 4q-12 6 -12 23q0 23 18 53l131 221q162 349 394.5 835t346.5 728q9 18 9 26v5h-9q-74 0 -446 -61.5t-504 -88.5q-45 -9 -65 -43q-77 -121 -189 -318.5t-162 -308.5q-8 -19 -8 -28q0 -10 11.5 -21t11.5 -28t-4 -29q-21 -79 -99 -154 q-23 -20 -55 -20t-57 22.5t-25 57.5q0 14 6 32q29 82 168 325t248 423q20 30 23 43q-12 4 -15 4q-2 0 -26 -6q-323 -72 -625 -178q-90 -31 -121 -31q-14 0 -20 2q-41 14 -41 55zM1090 772q559 75 946 115q33 3 43 33q14 30 90.5 191t116 248t101.5 227t102 250t63 196 q45 164 45 274q0 141 -82 141q-33 0 -92 -30q-105 -60 -245 -192.5t-259 -266.5q-404 -450 -735 -1010q-65 -109 -94 -176zM2564 2691q15 74 57 102q12 9 27 9q14 0 25 -10.5t12 -28.5v-8q0 -29 -21 -54q-28 -29 -51 -41q-16 -8 -22 -8q-27 0 -27 39zM2808 2662q0 20 8 33 q25 45 66 51h4q19 0 31 -10.5t12 -25.5q0 -7 -4 -19q-12 -27 -46 -76q-8 -14 -24 -14q-19 0 -33 18q-14 20 -14 43z" />
<glyph unicode="&#xc5;" d="M31 483q0 20 11.5 36t29.5 16q1 0 16 -5q12 -4 18 -4q12 0 27 6q405 144 780 207q41 8 60 43q325 549 848 1170q54 64 126.5 140.5t172.5 173t200 165t168 80.5q20 4 31 4q66 0 102 -54.5t39 -129.5v-27q0 -105 -36.5 -249.5t-104 -313.5t-125.5 -300.5t-139.5 -305.5 t-108.5 -234q16 -4 23 -4q15 0 35 4q288 21 413 21h58q22 0 24 -17q0 -18 -20 -18q-4 0 -12 1t-11 1q-48 -1 -96 -3t-108.5 -7t-91 -7.5t-108 -10t-95.5 -9.5q-23 -2 -45 -15t-31 -32q-105 -220 -361.5 -746t-429.5 -901q-8 -16 -41.5 -78.5t-50.5 -99.5q-1 -3 -4.5 -10 l-5 -10t-5 -8t-6 -7t-6.5 -4t-8 -2t-16 4q-12 6 -12 23q0 23 18 53l131 221q162 349 394.5 835t346.5 728q9 18 9 26v5h-9q-74 0 -446 -61.5t-504 -88.5q-45 -9 -65 -43q-77 -121 -189 -318.5t-162 -308.5q-8 -19 -8 -28q0 -10 11.5 -21t11.5 -28t-4 -29q-21 -79 -99 -154 q-23 -20 -55 -20t-57 22.5t-25 57.5q0 14 6 32q29 82 168 325t248 423q20 30 23 43q-12 4 -15 4q-2 0 -26 -6q-323 -72 -625 -178q-90 -31 -121 -31q-14 0 -20 2q-41 14 -41 55zM1090 772q559 75 946 115q33 3 43 33q14 30 90.5 191t116 248t101.5 227t102 250t63 196 q45 164 45 274q0 141 -82 141q-33 0 -92 -30q-105 -60 -245 -192.5t-259 -266.5q-404 -450 -735 -1010q-65 -109 -94 -176zM2675 2716q14 95 75 170q10 10 15 10h2q6 -2 16 -2t28 4.5t25 5.5h7q24 0 36 -27q9 -15 9 -34q0 -3 -1 -9.5t-1 -9.5q-12 -83 -66 -139 q-23 -30 -51 -41q-19 -8 -37 -8q-57 0 -57 80zM2718 2705q0 -16 8 -22q8 -4 10 -4q4 0 12 4.5t11 5.5q1 0 2 1t2 1q75 58 88 154v16q-3 16 -19 16h-4q-3 -1 -11.5 -4t-12 -4.5t-11 -4.5t-11.5 -5.5t-9.5 -6.5t-9 -8.5t-6.5 -9.5q-30 -56 -39 -120v-9z" />
<glyph unicode="&#xc6;" horiz-adv-x="4694" d="M31 483q0 21 12 36.5t31 15.5q5 0 14 -3q16 -4 23 -4q8 0 20 4q407 143 780 209q38 5 60 41q315 535 850 1170q41 49 93.5 106t132.5 137t153.5 144t152.5 114t135 60q10 2 29 2q67 0 102.5 -53.5t40.5 -128.5v-27q0 -105 -37.5 -250.5t-103.5 -311.5t-126.5 -303 t-138.5 -304t-108 -236q6 -2 19 -2q6 0 18.5 1t18.5 1q53 5 180 14q145 94 340 189q117 55 287 98q57 17 79 31q-27 5 -95.5 14.5t-113.5 18t-104 24.5t-104 42.5t-76 62.5q-51 59 -51 135q0 88 69 196q105 165 234 283q330 297 704 457q153 65 314 65q111 0 204 -37 q79 -31 116.5 -94t37.5 -143q0 -56 -16 -115q-57 -202 -240 -461q-104 -145 -184 -145q-28 0 -44 16.5t-16 40.5q0 9 4 25q14 42 44.5 88.5t62.5 46.5q2 0 5 -1t5 -1q4 -2 12 -2q15 0 29 18q238 332 238 508q0 107 -90 144q-77 32 -179 32q-159 0 -323 -75 q-165 -77 -320 -177t-302.5 -236.5t-237.5 -279.5q-58 -91 -58 -155q0 -47 27 -84t66.5 -60.5t100 -41.5t110 -27t114.5 -17q17 -2 62 -6t69 -8q4 0 18 -0.5t21 -1.5t16.5 -4t14.5 -11t6 -20v-6q0 -12 -7 -20t-15 -11t-22.5 -7.5t-19.5 -6.5q-102 -35 -145 -47 q-249 -62 -526 -229q37 2 106 2h45q3 0 11.5 1t11.5 1q20 0 20 -17v-2q0 -18 -18 -18q-4 0 -13 1t-12 1q-96 0 -219 -10l-14 -11q-169 -108 -291 -223t-197 -235t-115 -238.5t-55 -253.5q-2 -16 -2 -51q0 -63 15 -127t46 -132t86 -126.5t128.5 -105.5t179.5 -74t233 -27 q75 0 140 8q222 23 443 102.5t401.5 184.5t373.5 250q87 67 176.5 142.5t194.5 170t164 149.5t182 170.5t152 143.5q15 18 34 18q11 0 11 -10q0 -9 -19 -31q-491 -476 -876 -782q-147 -117 -288.5 -209t-298.5 -169.5t-325 -125t-336 -59.5q-70 -4 -104 -4q-127 0 -237.5 25 t-194 70t-149 106.5t-106.5 135.5t-62 155.5t-21 168.5q0 24 4 70q6 61 18 121q-217 -443 -438 -916q-15 -33 -46.5 -91.5t-45.5 -86.5q-5 -15 -8 -21.5t-10.5 -13t-18.5 -6.5q-8 0 -14 2q-12 6 -12 21q0 17 20 57l131 219q163 356 399.5 850.5t339.5 714.5q9 13 9 24v5h-9 q-72 0 -442 -61t-508 -89q-43 -10 -63 -41q-72 -110 -185.5 -311t-167.5 -316q-8 -19 -8 -30q0 -10 12.5 -21t12.5 -28q0 -5 -4 -29q-21 -79 -99 -154q-23 -20 -53 -20q-34 0 -60 23.5t-26 58.5q0 14 6 32q31 83 174 333.5t244 414.5q20 30 23 43q-4 2 -15 2q-2 0 -26 -6 q-346 -76 -625 -178q-85 -31 -119 -31q-10 0 -22 4q-41 14 -41 53zM1090 774q668 86 946 113q28 2 43 33q14 30 90.5 191t116 248t101.5 227t102 250t63 196q43 163 43 274q0 141 -80 141q-41 0 -92 -30q-105 -60 -245 -192.5t-259 -266.5q-402 -445 -737 -1008 q-73 -129 -92 -176zM1950 535q142 176 362 333q-26 -3 -79 -8t-79 -8q-22 -2 -44 -14.5t-29 -30.5q-51 -103 -131 -272z" />
<glyph unicode="&#xc7;" horiz-adv-x="2871" d="M139 -16q0 300 115 616q118 322 291 598q181 289 381 520q200 228 391 381q111 97 276 205q143 95 326 170q171 68 342 68q69 0 139 -15q100 -23 166 -102q64 -79 64 -178q0 -25 -2 -35q-15 -142 -66 -266q-104 -249 -258 -457q-39 -51 -72 -51q-25 0 -39 20 q-13 15 -16 39v4q0 35 21 70q22 36 47 53q40 30 90 107q52 82 88 153q36 70 57 125q38 97 53 199q2 12 2 37q0 82 -49 137q-48 54 -135 69q-54 7 -94 7q-136 0 -264 -45q-142 -50 -254 -113q-129 -74 -228 -146q-232 -167 -460 -413q-238 -256 -422 -545 q-193 -298 -310 -614q-116 -314 -116 -617q0 -98 16 -207q64 -351 408 -446q122 -29 229 -29q221 0 447 86q217 83 440 230q220 143 420 313q203 172 381 348q163 163 319 332q20 20 33 20q5 0 8 -8q0 -13 -27 -43q-46 -46 -110 -121q-12 -15 -27 -30q-181 -200 -387 -392 q-216 -201 -467 -378q-244 -175 -512 -289q-262 -113 -520 -113q-159 0 -307 49q-9 3 -15 6q-1 -1 -2 -3t-2 -3q-30 -40 -36 -47q-1 -1 -3.5 -4t-3.5 -4q-2 -2 -4.5 -5.5t-3.5 -4.5q-4 -8 -4 -15q2 -2 8 -2q2 -2 4 -2q2 -2 9 -2q66 -6 75 -82v-8q0 -58 -65 -82 q-21 -6 -43 -6q-34 0 -74 16q-15 6 -25 23q-2 2 -2 8q0 5 5 10q2 2 4 2q4 0 6 -2l4 -4q12 -10 33 -14q20 -4 32 -4h15q16 0 33 10q32 17 32 45q0 13 -2 19q-9 26 -41 26q-12 0 -18 -2q-8 0 -10 -2q-11 0 -23 -4q-6 -2 -14 -2q-11 0 -21 10q-4 12 -4 15q0 12 10 22q1 2 9 10 q10 15 14 19l57 65q4 2 13 11l6 6q-279 120 -338 436q-23 131 -23 242z" />
<glyph unicode="&#xc8;" horiz-adv-x="3012" d="M33 -115q0 24 4 70q15 163 81 314t162 269.5t227 226.5t262 187t282 150q111 52 286 100q62 18 80 29q-29 6 -96 15.5t-113.5 18.5t-104 25t-103 42.5t-76.5 62.5q-52 60 -52 135q0 87 70 196q105 165 234 283q324 292 704 457q153 65 313 65q112 0 205 -37 q79 -31 116.5 -94t37.5 -143q0 -52 -17 -115q-59 -207 -239 -463q-104 -145 -185 -145q-28 0 -43.5 17t-15.5 42q0 9 4 25q8 23 22 50t38.5 55t46.5 28q6 0 10 -2q2 0 5 -1t5 -1q18 0 31 20q237 331 237 508q0 107 -90 144q-77 32 -178 32q-162 0 -323 -77 q-255 -117 -492 -299.5t-371 -391.5q-55 -86 -55 -155q0 -47 27 -84t66 -60.5t100 -42t109.5 -27.5t113.5 -18q129 -11 133 -12q6 -1 23 -1.5t25.5 -2t17.5 -10t10 -23.5v-6q0 -9 -3.5 -16t-12 -12t-14.5 -7t-18 -5.5t-16 -4.5q-94 -35 -147 -47q-284 -74 -606 -281 q-169 -108 -291.5 -223t-197.5 -235t-114.5 -238.5t-54.5 -253.5q-2 -16 -2 -51q0 -77 20.5 -154t71 -157.5t126 -141.5t197.5 -100t273 -39q75 0 140 8q325 33 623.5 172.5t592.5 364.5q88 67 178 142.5t193.5 169.5t165 150.5t181 169.5t152.5 144q15 18 33 18 q12 0 12 -10t-18 -31q-512 -492 -877 -782q-306 -244 -614.5 -392t-632.5 -173q-70 -4 -100 -4q-153 0 -281 36t-218 98t-153 146.5t-92.5 181t-29.5 201.5zM2378 2814q0 6 2 8q10 25 26 25h2q22 -3 46 -19q88 -55 227 -159q4 -3 7.5 -7t7 -10t5.5 -8t2 -8t-4 -11.5 t-10 -5.5q-7 0 -29 13q-49 31 -136 81t-116 68q-3 3 -10 8.5t-10 8.5q-10 7 -10 16z" />
<glyph unicode="&#xc9;" horiz-adv-x="3012" d="M33 -115q0 24 4 70q15 163 81 314t162 269.5t227 226.5t262 187t282 150q111 52 286 100q62 18 80 29q-29 6 -96 15.5t-113.5 18.5t-104 25t-103 42.5t-76.5 62.5q-52 60 -52 135q0 87 70 196q105 165 234 283q324 292 704 457q153 65 313 65q112 0 205 -37 q79 -31 116.5 -94t37.5 -143q0 -52 -17 -115q-59 -207 -239 -463q-104 -145 -185 -145q-28 0 -43.5 17t-15.5 42q0 9 4 25q8 23 22 50t38.5 55t46.5 28q6 0 10 -2q2 0 5 -1t5 -1q18 0 31 20q237 331 237 508q0 107 -90 144q-77 32 -178 32q-162 0 -323 -77 q-255 -117 -492 -299.5t-371 -391.5q-55 -86 -55 -155q0 -47 27 -84t66 -60.5t100 -42t109.5 -27.5t113.5 -18q129 -11 133 -12q6 -1 23 -1.5t25.5 -2t17.5 -10t10 -23.5v-6q0 -9 -3.5 -16t-12 -12t-14.5 -7t-18 -5.5t-16 -4.5q-94 -35 -147 -47q-284 -74 -606 -281 q-169 -108 -291.5 -223t-197.5 -235t-114.5 -238.5t-54.5 -253.5q-2 -16 -2 -51q0 -77 20.5 -154t71 -157.5t126 -141.5t197.5 -100t273 -39q75 0 140 8q325 33 623.5 172.5t592.5 364.5q88 67 178 142.5t193.5 169.5t165 150.5t181 169.5t152.5 144q15 18 33 18 q12 0 12 -10t-18 -31q-512 -492 -877 -782q-306 -244 -614.5 -392t-632.5 -173q-70 -4 -100 -4q-153 0 -281 36t-218 98t-153 146.5t-92.5 181t-29.5 201.5zM2247 2691q0 2 4 10q16 22 18 23q25 19 73.5 55.5t87.5 65t75 51.5q24 18 47 20h2q10 0 26 -26q0 -1 1.5 -3t1.5 -3 q0 -8 -11 -19q-4 -2 -11 -7t-11 -7q-43 -27 -130 -82t-130 -82q-24 -12 -27 -12q-6 0 -11 5t-5 11z" />
<glyph unicode="&#xca;" horiz-adv-x="3012" d="M33 -115q0 24 4 70q15 163 81 314t162 269.5t227 226.5t262 187t282 150q111 52 286 100q62 18 80 29q-29 6 -96 15.5t-113.5 18.5t-104 25t-103 42.5t-76.5 62.5q-52 60 -52 135q0 87 70 196q105 165 234 283q324 292 704 457q153 65 313 65q112 0 205 -37 q79 -31 116.5 -94t37.5 -143q0 -52 -17 -115q-59 -207 -239 -463q-104 -145 -185 -145q-28 0 -43.5 17t-15.5 42q0 9 4 25q8 23 22 50t38.5 55t46.5 28q6 0 10 -2q2 0 5 -1t5 -1q18 0 31 20q237 331 237 508q0 107 -90 144q-77 32 -178 32q-162 0 -323 -77 q-255 -117 -492 -299.5t-371 -391.5q-55 -86 -55 -155q0 -47 27 -84t66 -60.5t100 -42t109.5 -27.5t113.5 -18q129 -11 133 -12q6 -1 23 -1.5t25.5 -2t17.5 -10t10 -23.5v-6q0 -9 -3.5 -16t-12 -12t-14.5 -7t-18 -5.5t-16 -4.5q-94 -35 -147 -47q-284 -74 -606 -281 q-169 -108 -291.5 -223t-197.5 -235t-114.5 -238.5t-54.5 -253.5q-2 -16 -2 -51q0 -77 20.5 -154t71 -157.5t126 -141.5t197.5 -100t273 -39q75 0 140 8q325 33 623.5 172.5t592.5 364.5q88 67 178 142.5t193.5 169.5t165 150.5t181 169.5t152.5 144q15 18 33 18 q12 0 12 -10t-18 -31q-512 -492 -877 -782q-306 -244 -614.5 -392t-632.5 -173q-70 -4 -100 -4q-153 0 -281 36t-218 98t-153 146.5t-92.5 181t-29.5 201.5zM2353 2695q0 9 12 17q40 25 98.5 86.5t71.5 72.5q13 13 19 17q21 14 31 14q8 0 14 -6q10 -10 10 -25q0 -12 -2 -18 l-6 -25q-19 -68 -23 -90q-2 -10 -2 -31q0 -14 2 -20q0 -1 1 -3t1 -3q0 -9 -8 -12h-4q-6 0 -14 12q-8 16 -8 35t4 65q4 16 4 31v12q-4 -3 -13 -11t-14 -11q-61 -61 -94 -92q-29 -25 -47 -31q-2 0 -6 -1t-6 -1q-12 0 -17 8q-4 8 -4 10z" />
<glyph unicode="&#xcb;" horiz-adv-x="3012" d="M33 -115q0 24 4 70q15 163 81 314t162 269.5t227 226.5t262 187t282 150q111 52 286 100q62 18 80 29q-29 6 -96 15.5t-113.5 18.5t-104 25t-103 42.5t-76.5 62.5q-52 60 -52 135q0 87 70 196q105 165 234 283q324 292 704 457q153 65 313 65q112 0 205 -37 q79 -31 116.5 -94t37.5 -143q0 -52 -17 -115q-59 -207 -239 -463q-104 -145 -185 -145q-28 0 -43.5 17t-15.5 42q0 9 4 25q8 23 22 50t38.5 55t46.5 28q6 0 10 -2q2 0 5 -1t5 -1q18 0 31 20q237 331 237 508q0 107 -90 144q-77 32 -178 32q-162 0 -323 -77 q-255 -117 -492 -299.5t-371 -391.5q-55 -86 -55 -155q0 -47 27 -84t66 -60.5t100 -42t109.5 -27.5t113.5 -18q129 -11 133 -12q6 -1 23 -1.5t25.5 -2t17.5 -10t10 -23.5v-6q0 -9 -3.5 -16t-12 -12t-14.5 -7t-18 -5.5t-16 -4.5q-94 -35 -147 -47q-284 -74 -606 -281 q-169 -108 -291.5 -223t-197.5 -235t-114.5 -238.5t-54.5 -253.5q-2 -16 -2 -51q0 -77 20.5 -154t71 -157.5t126 -141.5t197.5 -100t273 -39q75 0 140 8q325 33 623.5 172.5t592.5 364.5q88 67 178 142.5t193.5 169.5t165 150.5t181 169.5t152.5 144q15 18 33 18 q12 0 12 -10t-18 -31q-512 -492 -877 -782q-306 -244 -614.5 -392t-632.5 -173q-70 -4 -100 -4q-153 0 -281 36t-218 98t-153 146.5t-92.5 181t-29.5 201.5zM2345 2775q15 74 57 102q12 9 27 9q14 0 25 -10.5t12 -28.5v-8q0 -29 -21 -54q-29 -29 -51 -41q-16 -8 -22 -8 q-27 0 -27 39zM2585 2750q0 20 8 33q25 45 65 51h4q19 0 31 -10.5t12 -25.5q0 -7 -4 -19q-14 -31 -45 -76q-8 -14 -24 -14q-19 0 -33 18q-14 20 -14 43z" />
<glyph unicode="&#xcc;" horiz-adv-x="1161" d="M25 1444q0 12 2 20q19 76 77 150q179 242 353 421.5t391 319.5q248 156 391 156h8q98 -3 166.5 -69t79.5 -167q2 -16 2 -45q-1 -77 -26 -178.5t-72 -219t-96 -227t-119 -242.5t-118.5 -223.5t-116.5 -212.5t-93 -169q-357 -654 -610 -1231q-72 -165 -113 -287 q-8 -24 -18 -24q-4 0 -7.5 4.5t-3.5 9.5v4q23 105 179 465q256 604 700 1431q181 337 263 517q177 391 177 579q0 19 -4 51q-13 72 -60.5 114t-115.5 42q-11 0 -39 -4q-109 -19 -261.5 -119t-272.5 -205q-224 -195 -439 -481q-63 -82 -65 -147q-3 -36 -30 -58t-58 -22 q-51 0 -51 47zM1358 2800q0 6 2 8q10 24 26 24h3q22 -3 45 -18q80 -50 227 -160q4 -2 20 -24q2 -2 2 -9q0 -6 -4 -11t-10 -5q-9 0 -29 12q-50 32 -140 85t-111 65q-3 3 -10.5 8t-10.5 8q-10 7 -10 17z" />
<glyph unicode="&#xcd;" horiz-adv-x="1161" d="M25 1444q0 12 2 20q19 76 77 150q179 242 353 421.5t391 319.5q248 156 391 156h8q98 -3 166.5 -69t79.5 -167q2 -16 2 -45q-1 -77 -26 -178.5t-72 -219t-96 -227t-119 -242.5t-118.5 -223.5t-116.5 -212.5t-93 -169q-357 -654 -610 -1231q-72 -165 -113 -287 q-8 -24 -18 -24q-4 0 -7.5 4.5t-3.5 9.5v4q23 105 179 465q256 604 700 1431q181 337 263 517q177 391 177 579q0 19 -4 51q-13 72 -60.5 114t-115.5 42q-11 0 -39 -4q-109 -19 -261.5 -119t-272.5 -205q-224 -195 -439 -481q-63 -82 -65 -147q-3 -36 -30 -58t-58 -22 q-51 0 -51 47zM1204 2703q0 3 4 11q13 18 19 22q26 19 73.5 55.5t86.5 65t75 51.5q26 19 47 21h2q11 0 27 -27q0 -1 1 -3t1 -3q0 -9 -10 -19q-4 -2 -11.5 -7t-11.5 -7q-43 -28 -130 -82t-130 -82q-2 -1 -6 -3.5t-6.5 -4t-6.5 -3t-7 -1.5q-6 0 -11.5 5t-5.5 11z" />
<glyph unicode="&#xce;" horiz-adv-x="1161" d="M25 1444q0 12 2 20q19 76 77 150q179 242 353 421.5t391 319.5q248 156 391 156h8q98 -3 166.5 -69t79.5 -167q2 -16 2 -45q-1 -77 -26 -178.5t-72 -219t-96 -227t-119 -242.5t-118.5 -223.5t-116.5 -212.5t-93 -169q-357 -654 -610 -1231q-72 -165 -113 -287 q-8 -24 -18 -24q-4 0 -7.5 4.5t-3.5 9.5v4q23 105 179 465q256 604 700 1431q181 337 263 517q177 391 177 579q0 19 -4 51q-13 72 -60.5 114t-115.5 42q-11 0 -39 -4q-109 -19 -261.5 -119t-272.5 -205q-224 -195 -439 -481q-63 -82 -65 -147q-3 -36 -30 -58t-58 -22 q-51 0 -51 47zM1415 2730q0 8 12 16q40 25 98 86.5t72 73.5q10 10 19 16q22 15 31 15q8 0 14 -6q10 -10 10 -25q0 -12 -2 -18l-6 -25q-19 -68 -23 -90q-2 -10 -2 -31q0 -14 2 -20q0 -1 1 -3t1 -3q0 -10 -8 -13h-4q-3 0 -5 1.5t-3 2.5t-3 4.5t-3 4.5q-8 16 -8 34q0 20 4 66 q4 16 4 31v12q-5 -4 -14 -12t-13 -11q-61 -61 -94 -92q-27 -23 -47 -30q-2 0 -6 -1t-6 -1q-12 0 -17 8q-4 8 -4 10z" />
<glyph unicode="&#xcf;" horiz-adv-x="1161" d="M25 1444q0 12 2 20q19 76 77 150q179 242 353 421.5t391 319.5q248 156 391 156h8q98 -3 166.5 -69t79.5 -167q2 -16 2 -45q-1 -77 -26 -178.5t-72 -219t-96 -227t-119 -242.5t-118.5 -223.5t-116.5 -212.5t-93 -169q-357 -654 -610 -1231q-72 -165 -113 -287 q-8 -24 -18 -24q-4 0 -7.5 4.5t-3.5 9.5v4q23 105 179 465q256 604 700 1431q181 337 263 517q177 391 177 579q0 19 -4 51q-13 72 -60.5 114t-115.5 42q-11 0 -39 -4q-109 -19 -261.5 -119t-272.5 -205q-224 -195 -439 -481q-63 -82 -65 -147q-3 -36 -30 -58t-58 -22 q-51 0 -51 47zM1393 2746q15 75 57 103q11 8 27 8q14 0 24.5 -10.5t11.5 -28.5v-8q0 -30 -20 -53q-29 -29 -51 -41q-18 -9 -23 -9q-26 0 -26 39zM1632 2722q0 20 8 33q25 45 66 51h4q18 0 30.5 -11t12.5 -26q0 -7 -4 -19q-13 -29 -45 -75q-9 -15 -25 -15q-17 0 -32 19 q-15 21 -15 43z" />
<glyph unicode="&#xd0;" horiz-adv-x="2465" d="M18 -139q0 146 68 291q140 281 367 493q216 202 491 371q5 3 15.5 8t15.5 8q22 10 49 33l-61 -4q-74 -4 -113 -4q-50 0 -100 6h-9q-16 4 -22 6q-12 3 -12 16q4 14 14 17q9 3 24 6h7q49 6 98 6q36 0 106.5 1t106.5 1q1 3 4 10t5.5 13.5t4.5 11.5q8 13 15 31 q201 419 481 792q1 1 2 3t2 3q20 28 37 45q21 21 41 21q4 0 16 -4q15 -9 15 -29q0 -19 -13 -45q-12 -27 -24 -45l-7 -12l-405 -686l-4 -8q-7 -18 -14 -27q2 -2 8 -2q8 0 12 4q1 1 3 2t3 2q49 27 152 78q69 34 159 55q2 2 7 2q8 0 12 -2q4 -4 4 -10q0 -7 -25 -16 q-183 -59 -342 -164q-2 -1 -5 -4t-5.5 -4.5t-5.5 -2.5l-16 -12h106q37 0 68 -8q3 -1 8 -3t8 -3q6 -3 6 -10v-2q-4 -11 -8 -13q-6 -2 -18 -2q-6 2 -21 2q-14 0 -20 2l-156 -8q-125 -230 -311 -657q-193 -444 -240 -709q-4 -17 -8 -22q-6 -9 -12 -9q-10 0 -13 7q-6 3 -6 12v8 q0 111 90 379q83 248 195 526q120 298 162 393q1 2 2 6t2 5q-2 -1 -5 -1.5t-5 -1t-3 -1.5q-6 -3 -8 -5q-268 -172 -489 -374q-227 -204 -369 -492q-63 -138 -63 -287q0 -54 10 -122q30 -170 149 -240q121 -74 267 -74q80 0 174 23q374 89 671 325q408 319 707 742 q211 304 328 657q61 198 61 422q0 220 -61 412q-58 163 -185 258q-125 94 -295 94h-4q-286 0 -534 -88q-243 -87 -477 -254q-28 -21 -33 -35q-6 -15 -6 -31q0 -10 -4 -22q-7 -15 -27 -23q-2 -2 -10 -6q-21 -12 -41 -20q-29 -13 -49 -13q-23 0 -39 23q-6 12 -6 25q0 19 16 38 q5 5 16.5 15.5t16.5 15.5q134 115 276 195q399 243 865 258h22q157 0 322 -103q163 -102 233 -288q57 -164 66 -330q4 -74 4 -111q0 -191 -47 -374q-50 -187 -138 -361q-273 -536 -723 -940q-227 -212 -462 -348q-244 -145 -547 -197q-44 -8 -99 -8q-92 0 -190 31 q-201 65 -254 268q-27 102 -27 199z" />
<glyph unicode="&#xd1;" horiz-adv-x="2805" d="M14 -872q0 24 11 63q39 102 86 246q142 418 440.5 984.5t581.5 997.5q73 111 165 242t227.5 314t261 317.5t200.5 167.5q27 12 53 12q37 0 62.5 -25t31.5 -69q4 -32 4 -47q0 -51 -14 -119q-41 -217 -120.5 -492.5t-178.5 -590t-148 -496.5q-115 -424 -180 -830 q-20 -118 -20 -219q0 -134 41 -207q17 -32 38 -32q12 0 27 6q54 17 123 85.5t129.5 154t123.5 189t102 176.5t67 130q234 487 559 1284q55 133 156.5 376t134.5 322q10 23 47 116t53.5 130t52.5 102t74 115q27 37 51 37q9 0 15 -7t6 -17q0 -19 -19 -35q-33 -26 -61.5 -64 t-44.5 -68.5t-39 -80.5q-119 -271 -354 -866q-312 -802 -480 -1197q-49 -114 -106.5 -232t-142.5 -272.5t-180.5 -276t-180.5 -171.5q-65 -39 -117 -39q-51 0 -89.5 34.5t-59 89.5t-30 113.5t-9.5 117.5v16q0 31 2.5 66.5t5 60t8.5 68t8.5 59.5t10.5 67.5t10 61.5 q51 297 132.5 602t197.5 672q196 625 252 879q32 141 32 204q0 27 -20 27q-21 0 -55 -23t-50 -39q-227 -220 -364 -405q-158 -222 -260 -375q-32 -46 -68 -103t-57.5 -93t-65.5 -110.5t-59 -98.5q-161 -269 -297 -527q-30 -58 -62 -122t-71.5 -147t-58.5 -122 q-125 -252 -162 -346q-69 -165 -143 -386t-101 -362q-6 -33 -20.5 -47t-42.5 -14h-7q-45 3 -45 68zM2533 2699q0 5 4 13q9 24 43.5 46.5t61.5 22.5h2q37 0 49 -35q7 -26 10 -47q3 -18 17 -18q1 0 3.5 1t4.5 1q82 23 135 61q3 1 10.5 8t12.5 7q4 0 10 -6q4 -8 4 -9 q0 -4 -3 -8t-8.5 -8.5t-6.5 -5.5q-61 -51 -162 -86q-8 -4 -23 -4q-31 0 -43 37q-2 7 -5 21.5t-5 21.5q-3 16 -14 16q-5 0 -13 -4q-27 -14 -32 -23q-5 -8 -25 -16q-1 0 -4 -1t-4 -1q-4 0 -12 4q-7 7 -7 12z" />
<glyph unicode="&#xd2;" horiz-adv-x="2097" d="M29 -256q0 153 57 368.5t122 380.5t142 330l117 246q12 21 12 49q0 13 -2 19q-12 83 -12 163q0 298 127 595t313 485q246 246 586 264q6 0 17.5 1t17.5 1q176 0 334 -139q72 -64 119.5 -137.5t71.5 -156.5t33 -162.5t9 -180.5v-41q-3 -181 -56 -402t-140 -438 t-179.5 -407t-193.5 -365q-70 -122 -126.5 -212.5t-133 -195.5t-151.5 -186t-171.5 -162t-202.5 -145q-161 -100 -313 -100q-163 0 -269 121.5t-126 338.5q-2 23 -2 68zM106 -283q0 -196 97 -325q85 -111 221 -111q101 0 212.5 53t209.5 129q97 75 190 172t165.5 189.5 t151 214.5t133 216.5t126.5 225.5q232 430 352 856q76 270 76 529q0 97 -8 176q-26 276 -256 459q-112 90 -271 90q-83 0 -200 -31q-133 -37 -251 -122t-206 -199t-153.5 -238t-110.5 -260q-78 -241 -78 -443q0 -28 4 -90v-10q0 -11 10 -16l119 223q108 190 287 412 q21 24 34 37.5t37 28.5t45 15t43 -16q29 -23 29 -55q0 -39 -47 -107q-8 -14 -20 -14q-8 0 -21 11.5t-16 11.5h-4q-20 -16 -62 -68q-205 -255 -393 -637q-6 -15 -6 -29q0 -12 2 -20q33 -104 100 -168q173 -162 381 -162q55 0 102 8q6 2 17 2q10 0 14 -4q-35 -28 -131 -28 q-47 0 -86 8q-310 56 -428 315q-5 -4 -8.5 -8.5t-7 -13t-4.5 -11.5q-73 -153 -109 -231.5t-89.5 -206t-90 -241.5t-64.5 -234q-37 -166 -37 -283zM1796 2933q0 6 2 8q10 25 27 25h2q20 -3 45 -19q80 -50 227 -160q5 -3 21 -24q2 -2 2 -8t-4.5 -11.5t-10.5 -5.5q-8 0 -28 12 q-50 32 -138.5 83.5t-113.5 66.5q-3 3 -10.5 8t-10.5 8q-10 7 -10 17z" />
<glyph unicode="&#xd3;" horiz-adv-x="2097" d="M29 -256q0 153 57 368.5t122 380.5t142 330l117 246q12 21 12 49q0 13 -2 19q-12 83 -12 163q0 298 127 595t313 485q246 246 586 264q6 0 17.5 1t17.5 1q176 0 334 -139q72 -64 119.5 -137.5t71.5 -156.5t33 -162.5t9 -180.5v-41q-3 -181 -56 -402t-140 -438 t-179.5 -407t-193.5 -365q-70 -122 -126.5 -212.5t-133 -195.5t-151.5 -186t-171.5 -162t-202.5 -145q-161 -100 -313 -100q-163 0 -269 121.5t-126 338.5q-2 23 -2 68zM106 -283q0 -196 97 -325q85 -111 221 -111q101 0 212.5 53t209.5 129q97 75 190 172t165.5 189.5 t151 214.5t133 216.5t126.5 225.5q232 430 352 856q76 270 76 529q0 97 -8 176q-26 276 -256 459q-112 90 -271 90q-83 0 -200 -31q-133 -37 -251 -122t-206 -199t-153.5 -238t-110.5 -260q-78 -241 -78 -443q0 -28 4 -90v-10q0 -11 10 -16l119 223q108 190 287 412 q21 24 34 37.5t37 28.5t45 15t43 -16q29 -23 29 -55q0 -39 -47 -107q-8 -14 -20 -14q-8 0 -21 11.5t-16 11.5h-4q-20 -16 -62 -68q-205 -255 -393 -637q-6 -15 -6 -29q0 -12 2 -20q33 -104 100 -168q173 -162 381 -162q55 0 102 8q6 2 17 2q10 0 14 -4q-35 -28 -131 -28 q-47 0 -86 8q-310 56 -428 315q-5 -4 -8.5 -8.5t-7 -13t-4.5 -11.5q-73 -153 -109 -231.5t-89.5 -206t-90 -241.5t-64.5 -234q-37 -166 -37 -283zM1792 2822q0 2 4 10q15 20 19 23q26 19 73.5 55.5t86.5 65t75 51.5q24 18 47 20h2q11 0 27 -26q0 -1 1 -3t1 -3q0 -9 -10 -19 q-4 -2 -11.5 -7t-11.5 -7q-43 -27 -130 -82t-130 -82q-24 -12 -27 -12q-6 0 -11 5t-5 11z" />
<glyph unicode="&#xd4;" horiz-adv-x="2097" d="M29 -256q0 153 57 368.5t122 380.5t142 330l117 246q12 21 12 49q0 13 -2 19q-12 83 -12 163q0 298 127 595t313 485q246 246 586 264q6 0 17.5 1t17.5 1q176 0 334 -139q72 -64 119.5 -137.5t71.5 -156.5t33 -162.5t9 -180.5v-41q-3 -181 -56 -402t-140 -438 t-179.5 -407t-193.5 -365q-70 -122 -126.5 -212.5t-133 -195.5t-151.5 -186t-171.5 -162t-202.5 -145q-161 -100 -313 -100q-163 0 -269 121.5t-126 338.5q-2 23 -2 68zM106 -283q0 -196 97 -325q85 -111 221 -111q101 0 212.5 53t209.5 129q97 75 190 172t165.5 189.5 t151 214.5t133 216.5t126.5 225.5q232 430 352 856q76 270 76 529q0 97 -8 176q-26 276 -256 459q-112 90 -271 90q-83 0 -200 -31q-133 -37 -251 -122t-206 -199t-153.5 -238t-110.5 -260q-78 -241 -78 -443q0 -28 4 -90v-10q0 -11 10 -16l119 223q108 190 287 412 q21 24 34 37.5t37 28.5t45 15t43 -16q29 -23 29 -55q0 -39 -47 -107q-8 -14 -20 -14q-8 0 -21 11.5t-16 11.5h-4q-20 -16 -62 -68q-205 -255 -393 -637q-6 -15 -6 -29q0 -12 2 -20q33 -104 100 -168q173 -162 381 -162q55 0 102 8q6 2 17 2q10 0 14 -4q-35 -28 -131 -28 q-47 0 -86 8q-310 56 -428 315q-5 -4 -8.5 -8.5t-7 -13t-4.5 -11.5q-73 -153 -109 -231.5t-89.5 -206t-90 -241.5t-64.5 -234q-37 -166 -37 -283zM1843 2832q0 9 12 17q40 25 98 86.5t72 73.5q10 10 19 16q21 14 31 14q8 0 14 -6q10 -10 10 -24q0 -13 -2 -19l-6 -24 q-18 -65 -23 -91q-2 -10 -2 -30q0 -15 2 -21q0 -1 1.5 -3t1.5 -3q0 -9 -9 -12h-4q-6 0 -14 12q-8 16 -8 35t4 65q4 16 4 31v12q-4 -3 -13 -11t-14 -11q-61 -61 -94 -92q-29 -25 -47 -31q-2 0 -6 -1t-6 -1q-12 0 -17 8q-4 8 -4 10z" />
<glyph unicode="&#xd5;" horiz-adv-x="2097" d="M29 -256q0 153 57 368.5t122 380.5t142 330l117 246q12 21 12 49q0 13 -2 19q-12 83 -12 163q0 298 127 595t313 485q246 246 586 264q6 0 17.5 1t17.5 1q176 0 334 -139q72 -64 119.5 -137.5t71.5 -156.5t33 -162.5t9 -180.5v-41q-3 -181 -56 -402t-140 -438 t-179.5 -407t-193.5 -365q-70 -122 -126.5 -212.5t-133 -195.5t-151.5 -186t-171.5 -162t-202.5 -145q-161 -100 -313 -100q-163 0 -269 121.5t-126 338.5q-2 23 -2 68zM106 -283q0 -196 97 -325q85 -111 221 -111q101 0 212.5 53t209.5 129q97 75 190 172t165.5 189.5 t151 214.5t133 216.5t126.5 225.5q232 430 352 856q76 270 76 529q0 97 -8 176q-26 276 -256 459q-112 90 -271 90q-83 0 -200 -31q-133 -37 -251 -122t-206 -199t-153.5 -238t-110.5 -260q-78 -241 -78 -443q0 -28 4 -90v-10q0 -11 10 -16l119 223q108 190 287 412 q21 24 34 37.5t37 28.5t45 15t43 -16q29 -23 29 -55q0 -39 -47 -107q-8 -14 -20 -14q-8 0 -21 11.5t-16 11.5h-4q-20 -16 -62 -68q-205 -255 -393 -637q-6 -15 -6 -29q0 -12 2 -20q33 -104 100 -168q173 -162 381 -162q55 0 102 8q6 2 17 2q10 0 14 -4q-35 -28 -131 -28 q-47 0 -86 8q-310 56 -428 315q-5 -4 -8.5 -8.5t-7 -13t-4.5 -11.5q-73 -153 -109 -231.5t-89.5 -206t-90 -241.5t-64.5 -234q-37 -166 -37 -283zM1802 2812q0 4 4 12q9 24 43.5 47t61.5 23h2q37 0 49 -35q7 -26 10 -47q3 -19 17 -19q1 0 3.5 1.5t4.5 1.5q82 23 135 61 q3 1 10 7.5t12 6.5t11 -6l4 -8q0 -4 -3 -8.5t-9 -9t-7 -5.5q-62 -51 -161 -86q-8 -4 -23 -4q-31 0 -43 37q-2 7 -5 21.5t-5 21.5q-3 17 -15 17q-2 0 -12 -5q-2 -1 -9 -4t-10 -5t-7.5 -5.5t-6.5 -7.5q-5 -8 -24 -16q-1 0 -4 -1t-4 -1q-5 0 -13 4q-6 6 -6 12z" />
<glyph unicode="&#xd6;" horiz-adv-x="2097" d="M29 -256q0 153 57 368.5t122 380.5t142 330l117 246q12 21 12 49q0 13 -2 19q-12 83 -12 163q0 298 127 595t313 485q246 246 586 264q6 0 17.5 1t17.5 1q176 0 334 -139q72 -64 119.5 -137.5t71.5 -156.5t33 -162.5t9 -180.5v-41q-3 -181 -56 -402t-140 -438 t-179.5 -407t-193.5 -365q-70 -122 -126.5 -212.5t-133 -195.5t-151.5 -186t-171.5 -162t-202.5 -145q-161 -100 -313 -100q-163 0 -269 121.5t-126 338.5q-2 23 -2 68zM106 -283q0 -196 97 -325q85 -111 221 -111q101 0 212.5 53t209.5 129q97 75 190 172t165.5 189.5 t151 214.5t133 216.5t126.5 225.5q232 430 352 856q76 270 76 529q0 97 -8 176q-26 276 -256 459q-112 90 -271 90q-83 0 -200 -31q-133 -37 -251 -122t-206 -199t-153.5 -238t-110.5 -260q-78 -241 -78 -443q0 -28 4 -90v-10q0 -11 10 -16l119 223q108 190 287 412 q21 24 34 37.5t37 28.5t45 15t43 -16q29 -23 29 -55q0 -39 -47 -107q-8 -14 -20 -14q-8 0 -21 11.5t-16 11.5h-4q-20 -16 -62 -68q-205 -255 -393 -637q-6 -15 -6 -29q0 -12 2 -20q33 -104 100 -168q173 -162 381 -162q55 0 102 8q6 2 17 2q10 0 14 -4q-35 -28 -131 -28 q-47 0 -86 8q-310 56 -428 315q-5 -4 -8.5 -8.5t-7 -13t-4.5 -11.5q-73 -153 -109 -231.5t-89.5 -206t-90 -241.5t-64.5 -234q-37 -166 -37 -283zM1808 2843q15 73 58 102q11 8 26 8q14 0 25 -10.5t12 -28.5v-8q0 -30 -20 -53q-28 -28 -51 -41q-16 -8 -23 -8q-27 0 -27 39z M2048 2818q0 20 8 33q25 45 66 51h4q18 0 30.5 -11t12.5 -26q0 -6 -4 -18q-14 -31 -45 -76q-8 -14 -25 -14q-19 0 -33 18q-14 20 -14 43z" />
<glyph unicode="&#xd7;" horiz-adv-x="987" d="M10 420q0 6 17 29q29 38 108 143.5t123 161.5q25 36 25 61q0 2 -1 7t-1 7q-13 96 -13 177q0 42 2 65q3 31 9 53q4 21 22 21q21 -3 21 -23q2 -6 2 -18q0 -13 -2 -19v-213q0 -12 2 -18q8 -4 10 -4q9 11 23 31t20 28q118 143 198 203q38 29 60 37q6 2 16 2q15 0 23 -10 q4 -8 4 -13q0 -6 -16 -22q-21 -18 -43 -38t-38.5 -35.5t-42 -42t-36.5 -37.5t-40.5 -43.5t-35.5 -39t-39.5 -44t-36.5 -40.5q-16 -16 -16 -41v-10q18 -129 49 -207q42 -102 125 -135l12 -6q6 -6 6 -10v-4q-3 -8 -12 -8q-22 4 -29 8q-66 24 -110 98q-43 70 -74 215 q-1 3 -3 11.5t-3 11.5h-4q-4 0 -8 -2.5t-5.5 -4t-5.5 -6.5l-4 -6q-36 -43 -107.5 -130t-107.5 -130q-1 -2 -3.5 -6.5t-4 -7.5t-4.5 -6.5t-6 -5t-6 -1.5q-6 0 -11 5q-8 5 -8 12z" />
<glyph unicode="&#xd8;" horiz-adv-x="2097" d="M-74 -784q0 24 21 59l4 12q27 52 115 215q-26 84 -35 174q-2 23 -2 68q0 167 55 365q50 192 127 387q72 184 139 327l117 246q12 21 12 49q0 13 -2 19q-12 83 -12 163q0 209 61 410q63 206 162 377q102 178 217 293q243 243 586 264q10 2 35 2q97 0 178 -37 q82 -37 156 -102q96 -90 147 -189q32 -63 49 -123q58 71 113 134q41 41 61 41q13 0 23 -13q8 -11 8 -26q-9 -45 -63 -125q-61 -89 -115 -156q10 -98 10 -180v-41q-18 -389 -195 -836q-179 -445 -374 -776q-144 -262 -334 -504q-178 -227 -451 -397q-169 -100 -313 -100 q-161 0 -266 120q-36 39 -64 93q-19 -34 -104 -191l-4 -8q-13 -22 -17 -27q-8 -14 -22 -14l-6 2q-17 10 -17 25zM106 -283q0 -58 13 -125q120 201 221 347q217 320 504 714q-219 70 -328 293q-7 -3 -10 -10l-6 -12q-1 -2 -2 -6t-2 -5q-116 -235 -201 -444 q-95 -225 -152 -469q-37 -136 -37 -283zM141 -496q19 -57 62 -112q49 -61 104 -84q55 -27 117 -27q114 0 225 57q119 61 197 125q249 200 434 467q179 263 332 551q221 401 352 856q76 259 76 529q0 39 -4 125q-15 -20 -38 -47.5t-30 -36.5q-8 -8 -14 -17 q-285 -342 -664 -811q-184 -228 -338 -430q50 -4 76 -4q55 0 102 8h5q4 2 12 2q6 0 14 -4q-42 -28 -131 -28q-45 0 -86 8h-6q-97 -125 -391 -522q-235 -322 -406 -605zM506 1298q0 -28 4 -90v-10q0 -6 2 -8q3 -5 8 -8l119 223q133 230 287 412q19 24 53 55q29 26 63 26 q21 0 43 -16q29 -26 29 -55q0 -30 -14 -55q-15 -26 -33 -52q-8 -14 -20 -14q-5 0 -13 4q-7 3 -10 10q-1 1 -4 3t-4 3q-3 3 -6 3h-4q-23 -18 -52 -54q-2 -6 -10 -14q-230 -297 -393 -637q-6 -15 -6 -29t2 -20q27 -95 100 -168q96 -96 209 -133q563 769 1157 1472 q-56 215 -237 355q-58 47 -129 69q-70 21 -142 21q-95 0 -200 -31q-277 -89 -455 -319q-180 -233 -266 -500q-78 -222 -78 -443z" />
<glyph unicode="&#xd9;" horiz-adv-x="2136" d="M31 -25q0 84 18 189t39.5 188t62.5 202t63 177.5t65 167.5q146 368 300 670.5t349 568.5q42 60 110 139t107 97q12 6 31 6q49 0 69 -27q8 -11 8 -29q0 -22 -18 -40q-4 -4 -17.5 -18.5t-20 -20.5t-18.5 -14.5t-24 -12.5q-5 -3 -9.5 -7t-10.5 -12.5t-7 -9.5 q-124 -149 -256 -360q-355 -564 -548 -1057q-211 -522 -211 -813q0 -100 26 -174q32 -84 111 -84q62 0 166 55q521 292 1554 1714q287 396 469 709q57 93 96 154q17 26 37 26q9 0 16 -7t7 -19q0 -9 -8 -29q-7 -16 -33 -66q-43 -79 -133.5 -247t-135 -251.5t-127.5 -240 t-129.5 -249t-120 -239.5t-120.5 -252t-109 -246t-108.5 -260t-96 -257t-92.5 -272q-53 -166 -82 -277.5t-47 -243.5q-2 -6 -2 -18q0 -16 5.5 -31.5t5.5 -17.5q0 -6 -7 -10q-3 -3 -8 -3q-13 0 -20.5 18.5t-7.5 39.5v6q0 154 114 545q51 178 99.5 328t86.5 263t95.5 249.5 t91.5 216t113.5 238.5t121.5 241t152 295q14 19 14 36q-35 -48 -120 -166.5t-147.5 -205t-163.5 -223t-182 -241t-189 -237.5t-198 -235t-195 -210.5t-195 -186.5t-183 -141.5t-172 -94.5q-68 -27 -120 -27q-89 0 -140 67.5t-65 186.5q-6 43 -6 90zM1876 2730q0 6 2 8 q10 25 27 25h2q20 -3 45 -19q88 -55 227 -159q4 -2 21 -25q2 -2 2 -8t-4.5 -11.5t-10.5 -5.5t-28 13q-49 31 -136 81t-116 68q-3 3 -10.5 8.5t-10.5 8.5q-10 7 -10 16z" />
<glyph unicode="&#xda;" horiz-adv-x="2136" d="M31 -25q0 84 18 189t39.5 188t62.5 202t63 177.5t65 167.5q146 368 300 670.5t349 568.5q42 60 110 139t107 97q12 6 31 6q49 0 69 -27q8 -11 8 -29q0 -22 -18 -40q-4 -4 -17.5 -18.5t-20 -20.5t-18.5 -14.5t-24 -12.5q-5 -3 -9.5 -7t-10.5 -12.5t-7 -9.5 q-124 -149 -256 -360q-355 -564 -548 -1057q-211 -522 -211 -813q0 -100 26 -174q32 -84 111 -84q62 0 166 55q521 292 1554 1714q287 396 469 709q57 93 96 154q17 26 37 26q9 0 16 -7t7 -19q0 -9 -8 -29q-7 -16 -33 -66q-43 -79 -133.5 -247t-135 -251.5t-127.5 -240 t-129.5 -249t-120 -239.5t-120.5 -252t-109 -246t-108.5 -260t-96 -257t-92.5 -272q-53 -166 -82 -277.5t-47 -243.5q-2 -6 -2 -18q0 -16 5.5 -31.5t5.5 -17.5q0 -6 -7 -10q-3 -3 -8 -3q-13 0 -20.5 18.5t-7.5 39.5v6q0 154 114 545q51 178 99.5 328t86.5 263t95.5 249.5 t91.5 216t113.5 238.5t121.5 241t152 295q14 19 14 36q-35 -48 -120 -166.5t-147.5 -205t-163.5 -223t-182 -241t-189 -237.5t-198 -235t-195 -210.5t-195 -186.5t-183 -141.5t-172 -94.5q-68 -27 -120 -27q-89 0 -140 67.5t-65 186.5q-6 43 -6 90zM1927 2558q0 2 4 10 q15 20 19 23q26 19 73.5 55.5t86.5 65t75 51.5q25 17 47 20h2q11 0 27 -26q0 -1 1 -3.5t1 -3.5q0 -8 -10 -18q-4 -2 -11.5 -7t-11.5 -7q-43 -27 -130 -82t-130 -82q-2 -1 -6 -3.5t-6.5 -4t-6.5 -3t-7 -1.5q-6 0 -11.5 5t-5.5 11z" />
<glyph unicode="&#xdb;" horiz-adv-x="2136" d="M31 -25q0 84 18 189t39.5 188t62.5 202t63 177.5t65 167.5q146 368 300 670.5t349 568.5q42 60 110 139t107 97q12 6 31 6q49 0 69 -27q8 -11 8 -29q0 -22 -18 -40q-4 -4 -17.5 -18.5t-20 -20.5t-18.5 -14.5t-24 -12.5q-5 -3 -9.5 -7t-10.5 -12.5t-7 -9.5 q-124 -149 -256 -360q-355 -564 -548 -1057q-211 -522 -211 -813q0 -100 26 -174q32 -84 111 -84q62 0 166 55q521 292 1554 1714q287 396 469 709q57 93 96 154q17 26 37 26q9 0 16 -7t7 -19q0 -9 -8 -29q-7 -16 -33 -66q-43 -79 -133.5 -247t-135 -251.5t-127.5 -240 t-129.5 -249t-120 -239.5t-120.5 -252t-109 -246t-108.5 -260t-96 -257t-92.5 -272q-53 -166 -82 -277.5t-47 -243.5q-2 -6 -2 -18q0 -16 5.5 -31.5t5.5 -17.5q0 -6 -7 -10q-3 -3 -8 -3q-13 0 -20.5 18.5t-7.5 39.5v6q0 154 114 545q51 178 99.5 328t86.5 263t95.5 249.5 t91.5 216t113.5 238.5t121.5 241t152 295q14 19 14 36q-35 -48 -120 -166.5t-147.5 -205t-163.5 -223t-182 -241t-189 -237.5t-198 -235t-195 -210.5t-195 -186.5t-183 -141.5t-172 -94.5q-68 -27 -120 -27q-89 0 -140 67.5t-65 186.5q-6 43 -6 90zM1950 2589q0 8 12 16 q40 25 98 86.5t72 73.5q12 12 18 16q22 15 31 15q7 0 14 -7q11 -11 11 -24t-2 -19l-6 -24q-19 -68 -23 -90q-2 -10 -2 -31q0 -15 2 -21q0 -1 1 -3t1 -3q0 -9 -8 -12h-4q-7 0 -15 12q-8 16 -8 35q0 20 4 66q4 16 4 30v13q-5 -4 -13.5 -12t-12.5 -11q-61 -61 -94 -92 q-29 -25 -48 -31q-2 0 -6 -1t-6 -1q-11 0 -16 8q-4 8 -4 11z" />
<glyph unicode="&#xdc;" horiz-adv-x="2136" d="M31 -25q0 84 18 189t39.5 188t62.5 202t63 177.5t65 167.5q146 368 300 670.5t349 568.5q42 60 110 139t107 97q12 6 31 6q49 0 69 -27q8 -11 8 -29q0 -22 -18 -40q-4 -4 -17.5 -18.5t-20 -20.5t-18.5 -14.5t-24 -12.5q-5 -3 -9.5 -7t-10.5 -12.5t-7 -9.5 q-124 -149 -256 -360q-355 -564 -548 -1057q-211 -522 -211 -813q0 -100 26 -174q32 -84 111 -84q62 0 166 55q521 292 1554 1714q287 396 469 709q57 93 96 154q17 26 37 26q9 0 16 -7t7 -19q0 -9 -8 -29q-7 -16 -33 -66q-43 -79 -133.5 -247t-135 -251.5t-127.5 -240 t-129.5 -249t-120 -239.5t-120.5 -252t-109 -246t-108.5 -260t-96 -257t-92.5 -272q-53 -166 -82 -277.5t-47 -243.5q-2 -6 -2 -18q0 -16 5.5 -31.5t5.5 -17.5q0 -6 -7 -10q-3 -3 -8 -3q-13 0 -20.5 18.5t-7.5 39.5v6q0 154 114 545q51 178 99.5 328t86.5 263t95.5 249.5 t91.5 216t113.5 238.5t121.5 241t152 295q14 19 14 36q-35 -48 -120 -166.5t-147.5 -205t-163.5 -223t-182 -241t-189 -237.5t-198 -235t-195 -210.5t-195 -186.5t-183 -141.5t-172 -94.5q-68 -27 -120 -27q-89 0 -140 67.5t-65 186.5q-6 43 -6 90zM1907 2646q15 74 57 102 q12 9 27 9q14 0 25 -10.5t12 -28.5v-8q0 -30 -21 -54q-29 -28 -51 -41q-16 -8 -23 -8q-26 0 -26 39zM2146 2621q0 20 8 33q25 45 66 51h4q19 0 31 -10.5t12 -25.5q0 -7 -4 -19q-14 -31 -45 -76q-8 -14 -25 -14q-18 0 -32 18q-15 21 -15 43z" />
<glyph unicode="&#xdd;" horiz-adv-x="1519" d="M8 719q0 31 2 45q14 163 101 398t188.5 431t202.5 353q3 5 29 46t43.5 68t51 77.5t59.5 87t61 84.5t65 82t61 66.5t58 52t49 25.5q8 2 22 2q26 0 41 -14t15 -37q0 -19 -8 -35q-3 -6 -8 -15t-7.5 -14t-6 -11t-6.5 -8.5t-5 -2.5q-7 0 -12 37q-16 -13 -33.5 -31.5t-38 -44 t-38.5 -47t-41.5 -54.5t-38.5 -53.5t-39.5 -56.5t-34 -50t-32.5 -48.5t-26 -38.5q-314 -481 -487 -944q-93 -255 -93 -381q0 -21 4 -49q8 -37 23.5 -54.5t44.5 -17.5q7 0 31 4q69 13 155.5 60t164 106t164 137t144.5 137t117 122q384 413 779 899q45 55 137.5 193.5 t144.5 199.5q28 31 49 31q10 0 17.5 -8t7.5 -19q0 -12 -6 -21q-83 -141 -88 -149q-22 -35 -60.5 -96t-70.5 -112t-58 -97q-30 -55 -97.5 -171.5t-100.5 -178.5q-246 -451 -371 -713q-48 -102 -144 -289.5t-135 -267.5q-143 -295 -334.5 -732t-224.5 -595q-6 -34 -6 -54 q0 -16 4 -31.5t4 -21.5q0 -9 -6 -15.5t-14 -6.5q-14 0 -24.5 19.5t-10.5 58.5q0 56 25 143q66 221 182 500q344 863 592 1357q208 413 420 785q14 24 16 35q-7 -1 -12 -5t-10 -11t-7 -9q-53 -62 -169 -201t-191.5 -228t-180.5 -206.5t-203 -214t-190 -174.5 q-93 -78 -203 -145.5t-202 -87.5q-20 -5 -45 -5q-83 0 -119.5 66t-36.5 164zM1485 2621q0 3 4 11q15 19 18 22q25 19 73.5 55.5t87.5 65t75 51.5q26 19 47 21h2q11 0 27 -27q0 -1 1 -3t1 -3q0 -7 -11 -18q-4 -2 -11 -7.5t-11 -7.5q-43 -28 -130 -82t-130 -82 q-24 -12 -27 -12q-6 0 -11 5t-5 11z" />
<glyph unicode="&#xde;" horiz-adv-x="1282" d="M-510 -756q0 15 4 39q44 189 144 461q71 187 169 395q22 45 42.5 96t45.5 118t37 98q33 84 99 256q4 8 4 20q0 18 -10 31q-50 72 -50 178v27q0 56 9 86q4 16 12 16h6q12 -2 12 -21q-6 -44 -6 -83q0 -32 2 -46q7 -78 49 -133q76 187 103 250q284 686 532 1153 q64 118 117 199q9 14 35 49q9 12 24 12q7 0 15 -4q14 -8 14 -24q0 -11 -2 -15q-5 -17 -33 -80q-22 -43 -65 -128t-64 -128q-360 -720 -602 -1296q-14 -33 -14 -45q13 9 26 35q275 430 607 756q138 135 247 206q123 85 222 97q12 2 32 2q64 0 110.5 -34.5t66.5 -98.5 q16 -47 16 -107q0 -49 -14 -117q-38 -165 -150 -354q-185 -298 -459 -448q-170 -95 -346 -95q-119 0 -256 43q-39 14 -67 33q-9 6 -15 6q-10 0 -20 -16q-2 -3 -20.5 -36t-22 -38.5t-20 -35.5t-21.5 -39t-19.5 -36t-20.5 -39.5t-17.5 -36.5t-19 -40.5t-16 -37t-16.5 -40.5 q-102 -259 -307 -872q-30 -89 -53 -140q-12 -28 -23 -37q-13 -10 -24 -10q-9 0 -17.5 7.5t-9.5 19.5q-2 8 -2 22zM160 696q0 -8 10 -10q19 -11 45 -22q101 -37 223 -37q185 0 320 73q470 251 618 787q13 50 13 94q0 28 -7 68q-25 123 -141 123q-4 0 -11 -1.5t-11 -1.5 q-66 -8 -144 -53q-104 -56 -237 -174q-355 -327 -652 -797q-4 -6 -11 -18t-11 -18q-4 -8 -4 -13z" />
<glyph unicode="&#xdf;" horiz-adv-x="1206" d="M-193 2q0 24 3 51q6 111 43 211q187 517 475 879q105 132 266 249t311 150q27 6 51 6q54 0 84.5 -30t30.5 -84q0 -27 -6 -54q-42 -191 -344 -446q-150 -129 -262 -207q-29 -19 -35 -31h12q8 0 39 2t53 2q178 0 273 -129q13 -16 26 -16q5 0 17 4q47 16 156 31.5t180 21.5 q2 0 11 1t15 1q22 0 27 -10q-2 -6 -27 -6h-22q-234 -31 -320 -57q-28 -10 -28 -29q0 -5 4 -31t4 -47q0 -38 -17 -90q-88 -247 -333 -350q-56 -23 -115 -23q-74 0 -124 35t-50 94q0 67 65 140q134 152 471 282q31 12 31 21q0 5 -22 30q-87 95 -232 95h-10q-27 0 -73.5 -7 t-63.5 -8h-6q-25 0 -25 17q0 9 12 18l31 25q74 55 109 81t105.5 81t113.5 94.5t97.5 93t95.5 107t73 108.5q41 68 49 131v21q0 38 -14.5 54.5t-48.5 16.5q-21 0 -33 -2q-79 -10 -168 -61q-273 -150 -467 -430q-243 -357 -375 -801q-37 -116 -37 -225v-27q0 -3 0.5 -12 t1 -12.5t2 -11t4 -10.5t6.5 -8t10 -7.5t15 -4.5q10 0 10 -8q0 -10 -16.5 -21.5t-36.5 -11.5q-30 0 -51 35.5t-21 118.5zM233 94q0 -45 38.5 -67.5t95.5 -22.5q49 0 98 19q119 45 211 145t121 221q8 40 8 60q0 31 -17 59q-57 -12 -174 -71t-186 -103q-60 -39 -115 -93.5 t-73 -107.5q-7 -25 -7 -39z" />
<glyph unicode="&#xe0;" horiz-adv-x="972" d="M-96 420q0 6 4 18q11 35 26 72q47 96 138 178q49 43 114 43q36 0 67 -14.5t46 -40.5q2 -2 4 -2q4 0 14 6.5t15 7.5q1 0 4 1t4 1q11 0 18 -11t7 -26q0 -10 -3 -16q-4 -13 -31 -69t-49 -114.5t-22 -95.5q0 -55 53 -55h2q96 0 217.5 47t209.5 102.5t162.5 106.5t78.5 53h2 q2 0 2 -2t-2 -4q-104 -106 -315.5 -219t-341.5 -119h-13q-106 0 -106 109q0 80 43 164q-6 -4 -48 -31.5t-64 -42t-58.5 -36.5t-63.5 -35.5t-47 -20.5q-6 -2 -16 -2q-20 0 -35.5 13t-15.5 34zM18 477q0 -8 5 -8q2 0 10 4q51 31 76 47.5t58.5 42.5t68.5 60q-17 28 -46 28 q-15 0 -28 -8q-32 -16 -73.5 -59t-59.5 -76q-2 -2 -6.5 -13t-4.5 -18zM229 967q0 2 2 4q1 6 6.5 11t10.5 5h2q15 0 31 -12q61 -36 153 -107q3 -2 7 -8.5t5 -7.5q3 -3 3 -6q0 -10 -11 -10q-6 0 -18 8q-30 20 -86.5 51.5t-83.5 48.5q-2 2 -7 5t-7 5q-7 7 -7 13z" />
<glyph unicode="&#xe1;" horiz-adv-x="972" d="M-96 420q0 6 4 18q11 35 26 72q47 96 138 178q49 43 114 43q36 0 67 -14.5t46 -40.5q2 -2 4 -2q4 0 14 6.5t15 7.5q1 0 4 1t4 1q11 0 18 -11t7 -26q0 -10 -3 -16q-4 -13 -31 -69t-49 -114.5t-22 -95.5q0 -55 53 -55h2q96 0 217.5 47t209.5 102.5t162.5 106.5t78.5 53h2 q2 0 2 -2t-2 -4q-104 -106 -315.5 -219t-341.5 -119h-13q-106 0 -106 109q0 80 43 164q-6 -4 -48 -31.5t-64 -42t-58.5 -36.5t-63.5 -35.5t-47 -20.5q-6 -2 -16 -2q-20 0 -35.5 13t-15.5 34zM18 477q0 -8 5 -8q2 0 10 4q51 31 76 47.5t58.5 42.5t68.5 60q-17 28 -46 28 q-15 0 -28 -8q-32 -16 -73.5 -59t-59.5 -76q-2 -2 -6.5 -13t-4.5 -18zM215 838q0 4 2 6q10 14 12 16q13 10 48.5 37t61 45t50.5 33q11 11 31 14h2q4 0 9 -6t7 -12q2 0 2 -4q0 -1 -6 -13q-3 -1 -8 -4t-8 -4q-32 -22 -92.5 -59t-81.5 -51q-14 -9 -19 -9q-10 0 -10 11z" />
<glyph unicode="&#xe2;" horiz-adv-x="972" d="M-96 420q0 6 4 18q11 35 26 72q47 96 138 178q49 43 114 43q36 0 67 -14.5t46 -40.5q2 -2 4 -2q4 0 14 6.5t15 7.5q1 0 4 1t4 1q11 0 18 -11t7 -26q0 -10 -3 -16q-4 -13 -31 -69t-49 -114.5t-22 -95.5q0 -55 53 -55h2q96 0 217.5 47t209.5 102.5t162.5 106.5t78.5 53h2 q2 0 2 -2t-2 -4q-104 -106 -315.5 -219t-341.5 -119h-13q-106 0 -106 109q0 80 43 164q-6 -4 -48 -31.5t-64 -42t-58.5 -36.5t-63.5 -35.5t-47 -20.5q-6 -2 -16 -2q-20 0 -35.5 13t-15.5 34zM18 477q0 -8 5 -8q2 0 10 4q51 31 76 47.5t58.5 42.5t68.5 60q-17 28 -46 28 q-15 0 -28 -8q-32 -16 -73.5 -59t-59.5 -76q-2 -2 -6.5 -13t-4.5 -18zM227 858q0 6 9 10q20 13 39 31t40.5 41.5t34.5 36.5q8 8 12 10q13 10 21 10q2 0 10 -4q8 -5 8 -16q0 -2 -1 -6t-1 -6l-4 -17q-11 -38 -16 -61q0 -3 -1 -10.5t-1 -10.5q0 -2 1 -6.5t1 -7.5l2 -4 q0 -5 -6 -8h-2q-3 0 -11 8q-6 12 -6 24q0 15 4 43q2 6 2 21v8q-3 -2 -9 -7t-9 -7q-55 -55 -63 -62q-15 -14 -31 -20q-2 -2 -8 -2q-8 0 -11 6q-4 4 -4 6z" />
<glyph unicode="&#xe3;" horiz-adv-x="972" d="M-96 420q0 6 4 18q11 35 26 72q47 96 138 178q49 43 114 43q36 0 67 -14.5t46 -40.5q2 -2 4 -2q4 0 14 6.5t15 7.5q1 0 4 1t4 1q11 0 18 -11t7 -26q0 -10 -3 -16q-4 -13 -31 -69t-49 -114.5t-22 -95.5q0 -55 53 -55h2q96 0 217.5 47t209.5 102.5t162.5 106.5t78.5 53h2 q2 0 2 -2t-2 -4q-104 -106 -315.5 -219t-341.5 -119h-13q-106 0 -106 109q0 80 43 164q-6 -4 -48 -31.5t-64 -42t-58.5 -36.5t-63.5 -35.5t-47 -20.5q-6 -2 -16 -2q-20 0 -35.5 13t-15.5 34zM18 477q0 -8 5 -8q2 0 10 4q51 31 76 47.5t58.5 42.5t68.5 60q-17 28 -46 28 q-15 0 -28 -8q-32 -16 -73.5 -59t-59.5 -76q-2 -2 -6.5 -13t-4.5 -18zM233 858q0 2 3 8q6 15 29 31t40 16l2 -2q27 0 33 -22q4 -9 8 -31q0 -12 10 -12h7q52 16 90 41q15 10 16 10q2 0 6 -4q2 -2 2 -6q0 -3 -12 -15q-42 -36 -109 -57q-12 -4 -14 -4q-22 0 -31 25l-6 30 q-4 11 -10 11q-1 0 -3.5 -1.5t-4.5 -1.5q-17 -9 -21 -16t-18 -10q-2 -2 -4 -2t-4.5 1t-3.5 1q-5 5 -5 10z" />
<glyph unicode="&#xe4;" horiz-adv-x="972" d="M-96 420q0 6 4 18q11 35 26 72q47 96 138 178q49 43 114 43q36 0 67 -14.5t46 -40.5q2 -2 4 -2q4 0 14 6.5t15 7.5q1 0 4 1t4 1q11 0 18 -11t7 -26q0 -10 -3 -16q-4 -13 -31 -69t-49 -114.5t-22 -95.5q0 -55 53 -55h2q96 0 217.5 47t209.5 102.5t162.5 106.5t78.5 53h2 q2 0 2 -2t-2 -4q-104 -106 -315.5 -219t-341.5 -119h-13q-106 0 -106 109q0 80 43 164q-6 -4 -48 -31.5t-64 -42t-58.5 -36.5t-63.5 -35.5t-47 -20.5q-6 -2 -16 -2q-20 0 -35.5 13t-15.5 34zM18 477q0 -8 5 -8q2 0 10 4q51 31 76 47.5t58.5 42.5t68.5 60q-17 28 -46 28 q-15 0 -28 -8q-32 -16 -73.5 -59t-59.5 -76q-2 -2 -6.5 -13t-4.5 -18zM252 846q11 51 39 69q11 7 16 7q11 0 18 -7.5t9 -19.5v-6q0 -20 -15 -35q-24 -24 -34 -29q-4 -4 -15 -4q-18 0 -18 25zM391 840q0 6 4 22q20 30 45 33l2 2q13 0 22 -8t9 -19q0 -4 -4 -12 q-15 -29 -31 -51q-5 -8 -16 -8q-14 0 -23 12q-8 11 -8 29z" />
<glyph unicode="&#xe5;" horiz-adv-x="972" d="M-96 420q0 6 4 18q11 35 26 72q47 96 138 178q49 43 114 43q36 0 67 -14.5t46 -40.5q2 -2 4 -2q4 0 14 6.5t15 7.5q1 0 4 1t4 1q11 0 18 -11t7 -26q0 -10 -3 -16q-4 -13 -31 -69t-49 -114.5t-22 -95.5q0 -55 53 -55h2q96 0 217.5 47t209.5 102.5t162.5 106.5t78.5 53h2 q2 0 2 -2t-2 -4q-104 -106 -315.5 -219t-341.5 -119h-13q-106 0 -106 109q0 80 43 164q-6 -4 -48 -31.5t-64 -42t-58.5 -36.5t-63.5 -35.5t-47 -20.5q-6 -2 -16 -2q-20 0 -35.5 13t-15.5 34zM18 477q0 -8 5 -8q2 0 10 4q51 31 76 47.5t58.5 42.5t68.5 60q-17 28 -46 28 q-15 0 -28 -8q-32 -16 -73.5 -59t-59.5 -76q-2 -2 -6.5 -13t-4.5 -18zM264 872v13q16 59 66 106q6 6 10 6h2q1 -1 4.5 -2t5.5 -2q6 0 18.5 2t18.5 2l4 -2q16 0 23 -20q2 -8 2 -25q-1 -2 -2 -6t-2 -6q-15 -54 -56 -86q-23 -19 -39 -23q-8 -4 -24 -4q-31 6 -31 47zM291 874 q0 -10 4 -16q2 -2 6 -2q8 0 16 4h5q56 35 71 96l2 11q-3 12 -12 12h-2q-43 -9 -51 -23q-24 -30 -37 -75z" />
<glyph unicode="&#xe6;" horiz-adv-x="1159" d="M-96 420q0 6 4 18q11 35 26 72q44 94 138 178q49 43 114 43q36 0 67 -14.5t46 -40.5q2 -2 4 -2q4 0 15 6.5t14 7.5q1 0 3.5 1t4.5 1q11 0 19 -12.5t8 -26.5q75 77 188 125q24 12 55 12t48.5 -18.5t17.5 -46.5q0 -32 -19 -57q-35 -57 -67 -78q-39 -26 -184 -109 q-29 -16 -60 -16q-18 0 -39 6q-35 -52 -35 -104t36 -82.5t98 -30.5q36 0 69 8q142 35 349.5 143t334.5 205q6 6 10 6q7 0 7 -6q0 -3 -9 -12q-128 -112 -381.5 -246t-398.5 -141h-8q-72 0 -109.5 40t-44.5 103q-2 6 -2 27q0 36 11.5 92.5t19.5 69.5q-220 -144 -281 -166 q-6 -2 -16 -2q-21 0 -37 13t-16 34zM18 475q0 -6 5 -6q2 0 10 4q71 42 112 71.5t93 78.5q-20 28 -45 28q-18 0 -31 -8q-31 -16 -72 -59t-61 -76q-2 -2 -6.5 -14t-4.5 -19zM342 526q66 20 144 82.5t87 100.5q-68 -21 -118.5 -64.5t-112.5 -118.5z" />
<glyph unicode="&#xe7;" horiz-adv-x="765" d="M-104 291v22q0 123 71 244t150 209q46 49 80 68q34 18 63 18q47 0 70 -33q24 -35 24 -71q0 -45 -32 -80q-15 -11 -25 -11q-18 0 -27 25l-8 37q-1 4 -6 29l-16 -9q-12 -3 -21 -12q-83 -71 -164 -199q-83 -127 -92 -239v-10q0 -54 33 -74q33 -23 74 -23q33 0 77 13 q152 56 320 178q181 132 295 229q6 6 10 8q4 4 8 4t4 -6l-4 -8q-115 -121 -295 -252q-180 -134 -338 -190q-59 -17 -94 -17q-17 0 -41 4l-18 -24q-1 -1 -2 -3t-2 -3l-6 -6q-2 -2 -2 -9q2 -2 4 -2q2 -2 4 -2h6q45 -3 51 -55v-6q0 -40 -45 -55q-25 -5 -29 -5q-20 0 -49 11 q-10 3 -16 16q-2 2 -2 6t2 6t4 2t4 -2q0 -2 2 -2q6 -6 23 -10q6 -2 22 -2h8q14 0 23 6q22 13 22 31q0 8 -2 12q-6 19 -26 19q-9 0 -13 -2q-5 0 -8 -3q-10 0 -14 -2t-10 -2q-10 0 -13 9q-4 4 -4 8q0 8 8 16l5 6q3 6 10 13q12 16 18 22q13 13 19 21q-24 9 -41 26 q-43 40 -49 111z" />
<glyph unicode="&#xe8;" horiz-adv-x="829" d="M-102 371q0 51 18 94q89 219 311 311q24 12 56 12q31 0 48 -18.5t17 -46.5q0 -33 -18 -57q-42 -60 -70 -78q-41 -28 -182 -109q-29 -16 -60 -16q-17 0 -38 6q-35 -52 -35 -107q0 -50 34.5 -80t96.5 -30q36 0 69 8q143 35 351 143t335 205q6 6 13 6q4 0 4 -6q0 -4 -8 -12 q-128 -112 -382 -246t-399 -141h-12q-74 0 -111.5 47t-37.5 115zM14 526q66 20 144.5 82.5t85.5 100.5q-67 -21 -119.5 -66t-110.5 -117zM254 981q0 2 2 4q2 6 7 11t9 5h2q15 0 31 -12q71 -43 154 -106q3 -2 7 -9t5 -8q2 -2 2 -6q0 -10 -10 -10q-7 0 -19 8 q-30 20 -86.5 51.5t-83.5 48.5q-2 2 -7 5.5t-7 5.5q-6 6 -6 12z" />
<glyph unicode="&#xe9;" horiz-adv-x="829" d="M-102 371q0 51 18 94q89 219 311 311q24 12 56 12q31 0 48 -18.5t17 -46.5q0 -33 -18 -57q-42 -60 -70 -78q-41 -28 -182 -109q-29 -16 -60 -16q-17 0 -38 6q-35 -52 -35 -107q0 -50 34.5 -80t96.5 -30q36 0 69 8q143 35 351 143t335 205q6 6 13 6q4 0 4 -6q0 -4 -8 -12 q-128 -112 -382 -246t-399 -141h-12q-74 0 -111.5 47t-37.5 115zM14 526q66 20 144.5 82.5t85.5 100.5q-67 -21 -119.5 -66t-110.5 -117zM227 879q0 4 2 6q9 13 13 16q15 11 49 37t59.5 44.5t50.5 33.5q11 11 31 14h2q4 0 9.5 -6t7.5 -12q2 0 2 -4q0 -2 -1.5 -4t-3 -5 t-2.5 -4q-3 -1 -8 -4t-8 -4q-32 -22 -92.5 -59t-81.5 -51q-14 -9 -18 -9q-11 0 -11 11z" />
<glyph unicode="&#xea;" horiz-adv-x="829" d="M-102 371q0 51 18 94q89 219 311 311q24 12 56 12q31 0 48 -18.5t17 -46.5q0 -33 -18 -57q-42 -60 -70 -78q-41 -28 -182 -109q-29 -16 -60 -16q-17 0 -38 6q-35 -52 -35 -107q0 -50 34.5 -80t96.5 -30q36 0 69 8q143 35 351 143t335 205q6 6 13 6q4 0 4 -6q0 -4 -8 -12 q-128 -112 -382 -246t-399 -141h-12q-74 0 -111.5 47t-37.5 115zM14 526q66 20 144.5 82.5t85.5 100.5q-67 -21 -119.5 -66t-110.5 -117zM256 874q0 7 8 11q20 13 39 30.5t41 41.5t35 36q10 10 12 11q13 10 21 10q2 0 10 -4q8 -5 8 -17q0 -2 -1 -6t-1 -6l-4 -16 q-11 -36 -16 -62q0 -3 -1 -10t-1 -10q0 -2 1 -7t1 -8l2 -4q0 -4 -7 -8h-2q-2 0 -10 8q-6 12 -6 25q0 15 4 43q2 6 2 20v9q-3 -2 -9 -7.5t-9 -7.5q-41 -41 -64 -61q-17 -17 -30 -21q-2 -2 -9 -2t-10 6q-4 4 -4 6z" />
<glyph unicode="&#xeb;" horiz-adv-x="829" d="M-102 371q0 51 18 94q89 219 311 311q24 12 56 12q31 0 48 -18.5t17 -46.5q0 -33 -18 -57q-42 -60 -70 -78q-41 -28 -182 -109q-29 -16 -60 -16q-17 0 -38 6q-35 -52 -35 -107q0 -50 34.5 -80t96.5 -30q36 0 69 8q143 35 351 143t335 205q6 6 13 6q4 0 4 -6q0 -4 -8 -12 q-128 -112 -382 -246t-399 -141h-12q-74 0 -111.5 47t-37.5 115zM14 526q66 20 144.5 82.5t85.5 100.5q-67 -21 -119.5 -66t-110.5 -117zM252 903q12 53 39 70q9 6 16 6q11 0 18 -7.5t9 -19.5v-6q0 -20 -15 -35q-22 -22 -34 -28q-4 -4 -15 -4q-18 0 -18 24zM391 897 q0 7 4 23q19 29 45 32l2 2q13 0 22 -7.5t9 -18.5q0 -5 -4 -13q-15 -29 -31 -51q-5 -8 -16 -8q-14 0 -23 12q-8 11 -8 29z" />
<glyph unicode="&#xec;" horiz-adv-x="751" d="M-119 311v4q1 93 59 200t132 183q39 39 65 39q14 0 22.5 -10.5t8.5 -24.5q0 -12 -2 -16q-2 -6 -6.5 -13t-12 -15t-10.5 -13q-11 -17 -68.5 -102.5t-86.5 -132.5q-33 -60 -33 -109q0 -63 53 -63h12q88 9 281 102.5t303 163.5q45 30 160 110q2 2 8 2t6 -4q0 -5 -16 -16 q-94 -68 -168.5 -118t-177 -111.5t-202 -104t-188.5 -61.5q-24 -4 -34 -4q-50 0 -77.5 30t-27.5 84zM129 903q0 2 2 4q2 6 7 11.5t9 5.5h3q13 0 30 -13q71 -43 154 -106q3 -2 7 -9t5 -8q2 -2 2 -6q0 -10 -10 -10q-7 0 -19 8q-30 20 -86 52t-83 49q-2 2 -7.5 5t-7.5 5 q-6 6 -6 12z" />
<glyph unicode="&#xed;" horiz-adv-x="751" d="M-119 311v4q1 93 59 200t132 183q39 39 65 39q14 0 22.5 -10.5t8.5 -24.5q0 -12 -2 -16q-2 -6 -6.5 -13t-12 -15t-10.5 -13q-11 -17 -68.5 -102.5t-86.5 -132.5q-33 -60 -33 -109q0 -63 53 -63h12q88 9 281 102.5t303 163.5q45 30 160 110q2 2 8 2t6 -4q0 -5 -16 -16 q-94 -68 -168.5 -118t-177 -111.5t-202 -104t-188.5 -61.5q-24 -4 -34 -4q-50 0 -77.5 30t-27.5 84zM133 842q0 4 2 6q10 14 12 16q13 10 48.5 37t61 45t50.5 33q11 11 31 14h2q4 0 9 -6t7 -12q2 0 2 -4q0 -1 -6 -13q-3 -1 -8 -4t-8 -4q-32 -22 -92.5 -59t-81.5 -51 q-14 -9 -19 -9q-10 0 -10 11z" />
<glyph unicode="&#xee;" horiz-adv-x="751" d="M-119 311v4q1 93 59 200t132 183q39 39 65 39q14 0 22.5 -10.5t8.5 -24.5q0 -12 -2 -16q-2 -6 -6.5 -13t-12 -15t-10.5 -13q-11 -17 -68.5 -102.5t-86.5 -132.5q-33 -60 -33 -109q0 -63 53 -63h12q88 9 281 102.5t303 163.5q45 30 160 110q2 2 8 2t6 -4q0 -5 -16 -16 q-94 -68 -168.5 -118t-177 -111.5t-202 -104t-188.5 -61.5q-24 -4 -34 -4q-50 0 -77.5 30t-27.5 84zM154 858q0 6 8 10q20 13 39 31t40.5 41.5t34.5 36.5q7 7 13 10q13 10 20 10q2 0 10 -4q9 -6 9 -16q0 -2 -1 -6t-1 -6l-4 -17q-14 -48 -17 -61q0 -3 -1 -10.5t-1 -10.5 q0 -2 1 -6.5t1 -7.5l2 -4q0 -5 -6 -8h-2q-2 0 -10 8q-6 12 -6 24q0 15 4 43q2 6 2 21v8q-3 -2 -9.5 -7t-9.5 -7q-55 -55 -63 -62q-15 -14 -31 -20q-2 -2 -8 -2q-7 0 -10 6q-4 4 -4 6z" />
<glyph unicode="&#xef;" horiz-adv-x="751" d="M-119 311v4q1 93 59 200t132 183q39 39 65 39q14 0 22.5 -10.5t8.5 -24.5q0 -12 -2 -16q-2 -6 -6.5 -13t-12 -15t-10.5 -13q-11 -17 -68.5 -102.5t-86.5 -132.5q-33 -60 -33 -109q0 -63 53 -63h12q88 9 281 102.5t303 163.5q45 30 160 110q2 2 8 2t6 -4q0 -5 -16 -16 q-94 -68 -168.5 -118t-177 -111.5t-202 -104t-188.5 -61.5q-24 -4 -34 -4q-50 0 -77.5 30t-27.5 84zM158 877q11 51 39 69q9 6 16 6q24 0 27 -26v-6q0 -20 -15 -35q-23 -23 -35 -29q-4 -4 -14 -4q-18 0 -18 25zM297 870q0 7 4 23q20 30 45 33l2 2q13 0 22 -8t9 -19 q0 -4 -4 -12q-15 -29 -31 -51q-6 -9 -16 -9q-13 0 -23 13q-8 11 -8 28z" />
<glyph unicode="&#xf0;" horiz-adv-x="770" d="M-115 348q0 33 19 82q41 102 121 215q75 105 174 170q47 33 90 33q57 0 114 -57q10 16 32 43.5t28 35.5q21 27 51 70l-35 -2q-74 -4 -112 -4q-51 0 -101 6h-8q-16 4 -22 6q-13 3 -13 17q3 13 15 16q9 3 24 6h6q50 6 99 6q31 0 92 1t92 1q6 9 18.5 28t18.5 28q18 30 20 34 q109 181 176 281q84 130 203 264l4 4l13 13q5 5 14 8q8 2 22 2q34 0 37 -29q0 -10 -6 -22l-12 -21q-13 -24 -37 -51q-183 -240 -367 -539l88 -4q37 0 68 -8q3 -1 8 -3t8 -3q7 -3 7 -10v-2q-3 -10 -9 -13q-6 -2 -18 -2q-6 2 -21 2q-14 0 -20 2q-37 0 -139 -6 q-256 -436 -434 -909q-31 -88 -39 -117q-2 -7 -6.5 -21.5t-6.5 -21.5q-12 -41 -12 -78q0 -11 4 -39v-6q0 -4 -4 -12q-6 -6 -12 -6q-11 0 -21 16q-10 17 -10 53q0 38 16 113q94 335 248 657q1 2 23 52l2 4q8 8 8 20q0 9 -12 21q-19 -22 -95 -115q-79 -101 -131 -160 q-68 -77 -133 -118q-31 -17 -55 -17q-28 0 -51 23q-21 21 -21 63zM-2 358q140 111 258 260q16 19 78 91q-4 1 -11 2t-10 2q-8 2 -20 2q-9 0 -21 -4q-13 -9 -26 -19q-159 -126 -240 -303q-2 -2 -2 -6q-1 -1 -2 -4.5t-2 -5.5q0 -9 -2 -15z" />
<glyph unicode="&#xf1;" horiz-adv-x="1101" d="M-160 270q0 26 21 78q83 202 225 389q40 54 72 54q16 0 25.5 -13t9.5 -30q0 -11 -3 -17q-14 -38 -39 -87.5t-61.5 -115t-48.5 -88.5q-16 -22 -16 -55q13 11 113.5 100t170.5 148t101 78q22 14 43 14q44 0 47 -63v-9q0 -16 -3 -76t-3 -96q0 -151 51 -180q37 -18 78 -18 q58 0 128 34t129 82t110 96.5t85 82.5t41 34h2v-4q0 -10 -6 -16q-49 -55 -100 -105t-122.5 -109t-146.5 -94.5t-139 -35.5q-47 0 -86 20q-47 24 -63.5 75.5t-16.5 125.5q0 19 1 53.5t1 48.5q0 19 4 97q-10 -8 -26.5 -20t-24.5 -19q-72 -68 -377 -348l-20.5 -20.5 t-23.5 -22.5t-21.5 -18t-24.5 -14.5t-24 -4.5q-14 0 -31 10q-31 19 -31 59zM291 893q0 4 2 8q6 15 29 31t40 16l3 -2q26 0 32 -22q6 -14 9 -31q0 -12 10 -12h6q52 16 90 41q15 10 16 10q3 0 7 -4q2 -2 2 -6q0 -3 -2 -5.5t-6 -5.5t-5 -4q-42 -37 -108 -57q-12 -4 -15 -4 q-21 0 -30 24l-6 31q-3 10 -11 10q-1 0 -3.5 -1t-4.5 -1q-16 -8 -20 -16q-4 -6 -19 -10q-2 -2 -4 -2t-4.5 1t-3.5 1q-4 4 -4 10z" />
<glyph unicode="&#xf2;" horiz-adv-x="804" d="M-113 303q0 25 2 35q18 102 79.5 215.5t135.5 171.5q41 33 93 33q41 0 68.5 -25.5t27.5 -77.5q0 -13 -4 -37q-2 -10 -10.5 -44l-10.5 -42q65 -26 152 -26q93 0 196 27.5t187 66.5q12 4 16 4q10 0 10 -6q0 -10 -22 -18q-61 -31 -167.5 -60t-203.5 -35q-7 0 -21.5 -1 t-21.5 -1q-91 0 -137 25q-27 -59 -45 -93.5t-46.5 -81t-62.5 -81.5t-75 -62q-29 -22 -58 -22h-2q-23 0 -44.5 20t-26.5 45q-9 35 -9 70zM-59 242q0 -33 18 -33q9 0 35 16q53 39 122 139.5t93 170.5q-35 32 -57 92q-73 -82 -135.5 -182t-73.5 -173q-2 -10 -2 -30zM193 647 q0 -37 32 -69q2 8 7.5 23.5t8 24.5t5 21.5t2.5 22.5q-6 12 -23 12q-11 0 -21 -7t-11 -20v-8zM205 920q0 2 2 4q1 6 6 11t10 5h2q15 0 31 -12q65 -39 154 -107q3 -2 7 -8.5t5 -7.5q2 -2 2 -6q0 -11 -10 -11q-6 0 -19 9q-30 20 -86.5 51.5t-83.5 48.5q-2 2 -7 5t-7 5 q-6 6 -6 13z" />
<glyph unicode="&#xf3;" horiz-adv-x="804" d="M-113 303q0 25 2 35q18 102 79.5 215.5t135.5 171.5q41 33 93 33q41 0 68.5 -25.5t27.5 -77.5q0 -13 -4 -37q-2 -10 -10.5 -44l-10.5 -42q65 -26 152 -26q93 0 196 27.5t187 66.5q12 4 16 4q10 0 10 -6q0 -10 -22 -18q-61 -31 -167.5 -60t-203.5 -35q-7 0 -21.5 -1 t-21.5 -1q-91 0 -137 25q-27 -59 -45 -93.5t-46.5 -81t-62.5 -81.5t-75 -62q-29 -22 -58 -22h-2q-23 0 -44.5 20t-26.5 45q-9 35 -9 70zM-59 242q0 -33 18 -33q9 0 35 16q53 39 122 139.5t93 170.5q-35 32 -57 92q-73 -82 -135.5 -182t-73.5 -173q-2 -10 -2 -30zM190 838 q0 3 3 6q10 14 12 16q13 10 48.5 37t61 45t50.5 33q11 11 30 14h2q4 0 9.5 -6t7.5 -12q2 0 2 -4q0 -1 -6 -13q-3 -1 -8.5 -4t-8.5 -4q-32 -22 -92.5 -59t-81.5 -51q-13 -9 -18 -9q-11 0 -11 11zM193 647q0 -37 32 -69q2 8 7.5 23.5t8 24.5t5 21.5t2.5 22.5q-6 12 -23 12 q-11 0 -21 -7t-11 -20v-8z" />
<glyph unicode="&#xf4;" horiz-adv-x="804" d="M-113 303q0 25 2 35q18 102 79.5 215.5t135.5 171.5q41 33 93 33q41 0 68.5 -25.5t27.5 -77.5q0 -13 -4 -37q-2 -10 -10.5 -44l-10.5 -42q65 -26 152 -26q93 0 196 27.5t187 66.5q12 4 16 4q10 0 10 -6q0 -10 -22 -18q-61 -31 -167.5 -60t-203.5 -35q-7 0 -21.5 -1 t-21.5 -1q-91 0 -137 25q-27 -59 -45 -93.5t-46.5 -81t-62.5 -81.5t-75 -62q-29 -22 -58 -22h-2q-23 0 -44.5 20t-26.5 45q-9 35 -9 70zM-59 242q0 -33 18 -33q9 0 35 16q53 39 122 139.5t93 170.5q-35 32 -57 92q-73 -82 -135.5 -182t-73.5 -173q-2 -10 -2 -30zM193 647 q0 -37 32 -69q2 8 7.5 23.5t8 24.5t5 21.5t2.5 22.5q-6 12 -23 12q-11 0 -21 -7t-11 -20v-8zM195 846q0 6 8 10q20 13 39 31t40.5 41.5t34.5 36.5q7 7 13 10q13 10 20 10q2 0 10 -4q9 -6 9 -16q0 -2 -1 -6.5t-1 -6.5l-5 -16q-11 -36 -16 -62q0 -3 -1 -10t-1 -10q0 -2 1 -6.5 t1 -7.5l2 -4q0 -6 -6 -9h-2q-3 0 -5 1.5t-3 4.5l-2 3q-6 12 -6 24q0 15 4 43q2 6 2 21v8q-3 -2 -9.5 -7t-9.5 -7q-55 -55 -63 -62q-14 -14 -31 -20q-2 -2 -8 -2q-7 0 -10 6q-4 4 -4 6z" />
<glyph unicode="&#xf5;" horiz-adv-x="804" d="M-113 303q0 25 2 35q18 102 79.5 215.5t135.5 171.5q41 33 93 33q41 0 68.5 -25.5t27.5 -77.5q0 -13 -4 -37q-2 -10 -10.5 -44l-10.5 -42q65 -26 152 -26q93 0 196 27.5t187 66.5q12 4 16 4q10 0 10 -6q0 -10 -22 -18q-61 -31 -167.5 -60t-203.5 -35q-7 0 -21.5 -1 t-21.5 -1q-91 0 -137 25q-27 -59 -45 -93.5t-46.5 -81t-62.5 -81.5t-75 -62q-29 -22 -58 -22h-2q-23 0 -44.5 20t-26.5 45q-9 35 -9 70zM-59 242q0 -33 18 -33q9 0 35 16q53 39 122 139.5t93 170.5q-35 32 -57 92q-73 -82 -135.5 -182t-73.5 -173q-2 -10 -2 -30zM193 647 q0 -37 32 -69q2 8 7.5 23.5t8 24.5t5 21.5t2.5 22.5q-6 12 -23 12q-11 0 -21 -7t-11 -20v-8zM213 868q0 5 2 9q6 15 29.5 31t40.5 16l2 -2q25 0 32 -23q6 -14 9 -31q0 -12 10 -12h6q52 16 90 41q15 10 17 10t6 -4q2 -2 2 -6q0 -3 -2 -5.5t-6 -5t-5 -3.5q-44 -38 -108 -58 q-12 -4 -14 -4q-22 0 -31 25l-6 31q-3 10 -11 10q-1 0 -3.5 -1t-4.5 -1q-15 -8 -20 -17q-4 -6 -19 -10q-2 -2 -4 -2t-4.5 1t-3.5 1q-4 4 -4 10z" />
<glyph unicode="&#xf6;" horiz-adv-x="804" d="M-113 303q0 25 2 35q18 102 79.5 215.5t135.5 171.5q41 33 93 33q41 0 68.5 -25.5t27.5 -77.5q0 -13 -4 -37q-2 -10 -10.5 -44l-10.5 -42q65 -26 152 -26q93 0 196 27.5t187 66.5q12 4 16 4q10 0 10 -6q0 -10 -22 -18q-61 -31 -167.5 -60t-203.5 -35q-7 0 -21.5 -1 t-21.5 -1q-91 0 -137 25q-27 -59 -45 -93.5t-46.5 -81t-62.5 -81.5t-75 -62q-29 -22 -58 -22h-2q-23 0 -44.5 20t-26.5 45q-9 35 -9 70zM-59 242q0 -33 18 -33q9 0 35 16q53 39 122 139.5t93 170.5q-35 32 -57 92q-73 -82 -135.5 -182t-73.5 -173q-2 -10 -2 -30zM193 647 q0 -37 32 -69q2 8 7.5 23.5t8 24.5t5 21.5t2.5 22.5q-6 12 -23 12q-11 0 -21 -7t-11 -20v-8zM215 883q11 51 39 69q9 6 16 6q24 0 27 -26v-6q0 -21 -14 -35q-23 -23 -35 -29q-4 -4 -15 -4q-18 0 -18 25zM354 877q0 6 4 22q20 30 45 33l3 2q13 0 21.5 -8t8.5 -19q0 -4 -4 -12 q-14 -29 -31 -51q-5 -8 -16 -8q-14 0 -23 12q-8 11 -8 29z" />
<glyph unicode="&#xf7;" horiz-adv-x="1132" d="M100 795q0 13 17 20q34 11 76 14q199 13 274 13q88 0 131 -4q104 -7 178 -43q23 -10 23 -25q-3 -10 -15 -10q-6 0 -18 4q-68 31 -184 35h-47q-66 0 -304 -19q-1 0 -86 -6q-18 0 -26 2q-19 4 -19 19zM289 528q0 11 2 17q4 20 22 34.5t37 14.5h6q15 -3 25.5 -15.5 t11.5 -29.5v-2q0 -22 -19.5 -41t-41.5 -19q-9 0 -13 2q-5 0 -8 3q-22 8 -22 36zM453 1063q0 26 20 48t45 24q23 0 40 -17.5t17 -40.5q0 -26 -20.5 -45.5t-48.5 -19.5q-23 0 -38 14t-15 37z" />
<glyph unicode="&#xf8;" horiz-adv-x="804" d="M-141 68q0 2 4 14q2 2 2 4q27 52 57 102q-19 16 -26 45q-9 35 -9 70q0 25 2 35q17 98 78 213q55 105 137 174q42 33 93 33q34 0 67 -23q15 -15 25 -41q23 30 133 162q10 10 16 10q4 0 6 -2t2 -8q-2 -12 -22 -35q-15 -15 -39 -43q-4 -4 -9 -8.5t-8.5 -7.5t-5.5 -6 q-33 -39 -69 -88v-13q0 -9 -4 -37q-1 -6 -4.5 -18.5t-5.5 -19.5q-1 -5 -5.5 -22.5t-5.5 -25.5q68 -26 152 -26q93 0 203 29q103 27 180 65q12 4 16 4q10 0 10 -6q0 -5 -22 -18q-73 -35 -158 -58q-111 -28 -213 -37q-14 -2 -43 -2q-76 0 -137 25q-41 -96 -92 -176 q-52 -82 -137 -142q-28 -22 -58 -22h-2q-13 0 -30 10q-43 -69 -62 -104q0 -2 -2 -2q0 -7 -2 -9q-4 -4 -6 -4t-2 2q-4 4 -4 7zM-59 242q0 -15 2 -19q4 6 12 17.5t12 17.5q118 171 217 303q0 1 -3.5 6t-4.5 8q-11 19 -24 52q-68 -75 -129 -172q-65 -99 -80 -183q-2 -10 -2 -30 zM-45 209h4q13 0 35 16q60 48 123 140q66 97 92 170l-12 12q-37 -53 -78 -105q-92 -122 -164 -233zM193 647q0 -17 10 -37q1 -3 4 -8t4 -6q9 13 35 43q2 10 2 31q-9 12 -23 12q-11 0 -20 -6q-9 -9 -12 -21v-8z" />
<glyph unicode="&#xf9;" horiz-adv-x="1159" d="M-182 195v8q0 70 58 189t113 201t85 116q28 32 53 32q14 0 23.5 -11.5t9.5 -27.5q0 -15 -10 -28q-7 -10 -37.5 -47.5t-46.5 -63.5q-72 -108 -129.5 -213t-57.5 -141v-4q4 -27 16.5 -36t36.5 -11q47 0 112 44.5t128.5 112t119 133.5t100 122t54.5 65q4 3 14.5 12 t16.5 13.5t15 10.5t17.5 8.5t16.5 2.5q11 0 23 -6q20 -11 20 -39q0 -19 -18 -80q-4 -15 -52 -119.5t-48 -146.5q0 -46 49 -49h2q71 0 200.5 66t237 140t213.5 156q13 10 23 10q12 0 12 -12q0 -9 -12 -18q-16 -12 -97 -73t-120 -89t-118 -80t-131 -78t-116.5 -47.5 t-114.5 -21.5h-18q-76 11 -76 124q0 95 45 216q-32 -30 -81.5 -90t-95 -115.5t-98 -109.5t-110.5 -87t-113 -33h-12q-43 3 -71 30t-31 65zM309 948q0 2 2 4q1 6 7 11.5t10 5.5h2q13 0 30 -13q71 -43 154 -106q3 -2 7 -8.5t5 -7.5q2 -2 2 -7q0 -10 -10 -10q-6 0 -18 8 q-30 20 -86.5 52t-83.5 49q-2 2 -7.5 5t-7.5 5q-6 6 -6 12z" />
<glyph unicode="&#xfa;" horiz-adv-x="1159" d="M-182 195v8q0 70 58 189t113 201t85 116q28 32 53 32q14 0 23.5 -11.5t9.5 -27.5q0 -15 -10 -28q-7 -10 -37.5 -47.5t-46.5 -63.5q-72 -108 -129.5 -213t-57.5 -141v-4q4 -27 16.5 -36t36.5 -11q47 0 112 44.5t128.5 112t119 133.5t100 122t54.5 65q4 3 14.5 12 t16.5 13.5t15 10.5t17.5 8.5t16.5 2.5q11 0 23 -6q20 -11 20 -39q0 -19 -18 -80q-4 -15 -52 -119.5t-48 -146.5q0 -46 49 -49h2q71 0 200.5 66t237 140t213.5 156q13 10 23 10q12 0 12 -12q0 -9 -12 -18q-16 -12 -97 -73t-120 -89t-118 -80t-131 -78t-116.5 -47.5 t-114.5 -21.5h-18q-76 11 -76 124q0 95 45 216q-32 -30 -81.5 -90t-95 -115.5t-98 -109.5t-110.5 -87t-113 -33h-12q-43 3 -71 30t-31 65zM338 846q0 4 2 6q10 14 12 16q13 10 48.5 37t61 45t50.5 33q11 11 31 14h2q11 0 16 -18q2 0 2 -4l-6 -12q-3 -1 -8 -4.5t-8 -4.5 q-32 -22 -92.5 -59t-81.5 -51q-12 -8 -19 -8q-10 0 -10 10z" />
<glyph unicode="&#xfb;" horiz-adv-x="1159" d="M-182 195v8q0 70 58 189t113 201t85 116q28 32 53 32q14 0 23.5 -11.5t9.5 -27.5q0 -15 -10 -28q-7 -10 -37.5 -47.5t-46.5 -63.5q-72 -108 -129.5 -213t-57.5 -141v-4q4 -27 16.5 -36t36.5 -11q47 0 112 44.5t128.5 112t119 133.5t100 122t54.5 65q4 3 14.5 12 t16.5 13.5t15 10.5t17.5 8.5t16.5 2.5q11 0 23 -6q20 -11 20 -39q0 -19 -18 -80q-4 -15 -52 -119.5t-48 -146.5q0 -46 49 -49h2q71 0 200.5 66t237 140t213.5 156q13 10 23 10q12 0 12 -12q0 -9 -12 -18q-16 -12 -97 -73t-120 -89t-118 -80t-131 -78t-116.5 -47.5 t-114.5 -21.5h-18q-76 11 -76 124q0 95 45 216q-32 -30 -81.5 -90t-95 -115.5t-98 -109.5t-110.5 -87t-113 -33h-12q-43 3 -71 30t-31 65zM340 881q0 6 8 10q20 13 39 30.5t41 41.5t35 36q10 10 12 11q13 10 21 10q2 0 10 -4q8 -5 8 -17q0 -2 -1 -6t-1 -6l-4 -16 q-11 -36 -16 -62q0 -3 -1.5 -10t-1.5 -10q0 -2 1.5 -7t1.5 -8l2 -4q0 -4 -7 -8h-2q-2 0 -10 8q-6 12 -6 25q0 15 4 43q2 6 2 20v9q-3 -2 -9 -7.5t-9 -7.5q-41 -41 -64 -61q-16 -16 -31 -21q-2 -2 -8 -2q-7 0 -10 6q-4 4 -4 7z" />
<glyph unicode="&#xfc;" horiz-adv-x="1159" d="M-182 195v8q0 70 58 189t113 201t85 116q28 32 53 32q14 0 23.5 -11.5t9.5 -27.5q0 -15 -10 -28q-7 -10 -37.5 -47.5t-46.5 -63.5q-72 -108 -129.5 -213t-57.5 -141v-4q4 -27 16.5 -36t36.5 -11q47 0 112 44.5t128.5 112t119 133.5t100 122t54.5 65q4 3 14.5 12 t16.5 13.5t15 10.5t17.5 8.5t16.5 2.5q11 0 23 -6q20 -11 20 -39q0 -19 -18 -80q-4 -15 -52 -119.5t-48 -146.5q0 -46 49 -49h2q71 0 200.5 66t237 140t213.5 156q13 10 23 10q12 0 12 -12q0 -9 -12 -18q-16 -12 -97 -73t-120 -89t-118 -80t-131 -78t-116.5 -47.5 t-114.5 -21.5h-18q-76 11 -76 124q0 95 45 216q-32 -30 -81.5 -90t-95 -115.5t-98 -109.5t-110.5 -87t-113 -33h-12q-43 3 -71 30t-31 65zM313 848q12 53 39 70q9 6 17 6q23 0 26 -27v-6q0 -21 -14 -35q-23 -23 -35 -29q-4 -4 -14 -4q-19 0 -19 25zM453 842q0 6 4 22 q20 30 45 33l2 2q13 0 22 -8t9 -19q0 -2 -5 -12q-16 -33 -30 -51q-5 -8 -17 -8q-13 0 -22 12q-8 11 -8 29z" />
<glyph unicode="&#xfd;" horiz-adv-x="1030" d="M-858 -1034q0 65 22 134t64.5 139t80 122t91.5 117q82 101 171 191t201.5 181.5t187.5 148t218 159.5q28 20 47 51q17 30 54.5 96t66.5 118.5t49 94.5q-2 0 -6 4q-5 -5 -16.5 -14t-16.5 -14q-83 -76 -204 -172.5t-181 -120.5q-19 -8 -43 -8q-31 0 -49 20t-18 55v13 q4 71 40 156t81.5 151t92 110.5t72.5 44.5q14 0 19 -8q8 -11 8 -24q0 -10 -4.5 -21t-9 -17.5t-15 -21t-14.5 -20.5q-101 -138 -170 -309q-14 -33 -14 -46q0 -6 4 -22q54 26 67 35q49 30 95 62t77.5 56t77 62.5t68 58.5t76 69t77.5 71q15 15 21 18q12 4 16 4q19 0 19 -20v-8 q-1 -8 -40 -85t-90.5 -175t-54.5 -103v-6q0 -6 -2 -12q334 223 682 342q1 -1 3.5 -4.5t3.5 -4.5q-11 -11 -21 -16q-62 -27 -123 -51q-273 -116 -571 -326q-24 -18 -41 -49q-30 -57 -96 -187t-103 -198q-309 -564 -594 -831q-47 -45 -110.5 -75t-122.5 -30q-21 0 -31 2 q-49 9 -69.5 34t-22.5 75v4zM-813 -1026v-8q0 -37 16 -51.5t56 -16.5h6q42 0 89.5 21t82.5 51q213 190 393 498q260 443 334 630q-71 -45 -260 -192q-202 -156 -373.5 -338t-280.5 -375q-63 -113 -63 -219zM338 846q0 4 2 6q10 14 12 16q13 10 48.5 37t61 45t50.5 33 q11 11 31 14h2q11 0 16 -18q2 0 2 -4l-6 -12q-3 -1 -8 -4.5t-8 -4.5q-32 -22 -92.5 -59t-81.5 -51q-12 -8 -19 -8q-10 0 -10 10z" />
<glyph unicode="&#xfe;" horiz-adv-x="876" d="M-696 -891q0 5 2 13t2 10q20 55 42 109t49 117t45 103t53 114.5t48 102t54.5 114t50.5 104.5q81 177 192 397q19 43 19 57q0 18 -8 31l-5 10q0 2 -1 7.5t-1 7.5q0 11 13 14h4q4 0 6.5 -3.5t4 -9t3.5 -8.5q1 -1 4 -5t6 -7q64 130 131 256q139 269 246 420q65 90 98 125 q12 12 27 24q15 11 27 11q10 0 18 -11q6 -6 6 -14q0 -7 -12 -27q-140 -187 -367 -581q-7 -11 -20 -41q7 0 13 2t9 4.5t8 7t7 6.5q118 106 225 170q85 51 146 58q4 0 11 1t11 1q55 0 88.5 -33.5t38.5 -91.5q0 -3 1 -10t1 -11q0 -44 -22 -90q-66 -150 -185.5 -231.5 t-273.5 -81.5q-77 0 -142 16q-3 0 -9.5 2t-10.5 2q-3 1 -19 11t-24 10q-2 0 -4.5 -1t-3.5 -1q-9 -3 -14.5 -10t-12 -23.5t-8.5 -19.5q-364 -706 -526 -1113q-4 -8 -4 -10q-2 -3 -5 -10t-6.5 -11.5t-7.5 -4.5t-6 2q-12 6 -12 20zM-68 328q0 -8 21 -19q54 -20 133 -20 q289 6 436 274q29 53 29 96q0 13 -2 21q-5 34 -24 53t-50 19q-14 0 -20 -2q-45 -8 -90 -33q-217 -126 -422 -371q-11 -15 -11 -18z" />
<glyph unicode="&#xff;" horiz-adv-x="1030" d="M-858 -1034q0 65 22 134t64.5 139t80 122t91.5 117q82 101 171 191t201.5 181.5t187.5 148t218 159.5q28 20 47 51q17 30 54.5 96t66.5 118.5t49 94.5q-2 0 -6 4q-5 -5 -16.5 -14t-16.5 -14q-83 -76 -204 -172.5t-181 -120.5q-19 -8 -43 -8q-31 0 -49 20t-18 55v13 q4 71 40 156t81.5 151t92 110.5t72.5 44.5q14 0 19 -8q8 -11 8 -24q0 -10 -4.5 -21t-9 -17.5t-15 -21t-14.5 -20.5q-101 -138 -170 -309q-14 -33 -14 -46q0 -6 4 -22q54 26 67 35q49 30 95 62t77.5 56t77 62.5t68 58.5t76 69t77.5 71q15 15 21 18q12 4 16 4q19 0 19 -20v-8 q-1 -8 -40 -85t-90.5 -175t-54.5 -103v-6q0 -6 -2 -12q334 223 682 342q1 -1 3.5 -4.5t3.5 -4.5q-11 -11 -21 -16q-62 -27 -123 -51q-273 -116 -571 -326q-24 -18 -41 -49q-30 -57 -96 -187t-103 -198q-309 -564 -594 -831q-47 -45 -110.5 -75t-122.5 -30q-21 0 -31 2 q-49 9 -69.5 34t-22.5 75v4zM-813 -1026v-8q0 -37 16 -51.5t56 -16.5h6q42 0 89.5 21t82.5 51q213 190 393 498q260 443 334 630q-71 -45 -260 -192q-202 -156 -373.5 -338t-280.5 -375q-63 -113 -63 -219zM319 848q12 53 39 70q9 6 17 6q23 0 26 -27v-6q0 -21 -14 -35 q-23 -23 -35 -29q-4 -4 -14 -4q-19 0 -19 25zM459 842q0 6 4 22q20 30 45 33l2 2q13 0 22 -8t9 -19q0 -4 -4 -12q-15 -29 -31 -51q-5 -8 -17 -8q-13 0 -22 12q-8 11 -8 29z" />
<glyph unicode="&#x152;" horiz-adv-x="4395" d="M27 -260q0 117 31.5 266.5t83.5 300t102.5 274.5t105.5 240q13 27 36.5 77.5t43 91.5t37.5 77q12 24 12 49q0 13 -2 19q-12 83 -12 165q0 298 127 594t313 484q242 245 584 266h29q184 0 340 -137q71 -64 119 -137.5t72 -156.5t33 -162t9 -179v-43q-4 -262 -106 -584 t-261 -647q255 281 719 504q109 51 287 100q61 18 82 29q-30 6 -96.5 15.5t-113.5 18.5t-105 24.5t-103.5 41.5t-75.5 62q-51 59 -51 137q0 90 68 196q103 163 235 283q319 290 703 457q153 65 313 65q112 0 205 -37q79 -31 117 -93.5t38 -143.5q0 -59 -18 -117 q-61 -212 -240 -461q-104 -145 -184 -145q-27 0 -43 17t-16 42q0 9 4 25q15 41 45.5 87t62.5 46q2 0 5.5 -1t5.5 -1t5 -1t5 -1q18 0 29 18q237 340 237 510q0 107 -90 144q-69 30 -174 30q-161 0 -328 -75q-164 -75 -319.5 -175.5t-303 -237t-237.5 -278.5q-55 -86 -55 -155 q0 -39 17.5 -71.5t50.5 -55.5t71 -40t89 -29.5t93 -19.5t95 -14q21 -3 65 -7t66 -7q6 -1 22.5 -1.5t25 -2t17.5 -10t10 -23.5v-6q0 -9 -3.5 -16t-11.5 -12t-14 -7.5t-17.5 -6t-16.5 -5.5q-97 -33 -146 -45q-291 -76 -608 -281q-168 -108 -290 -223t-196.5 -235t-114 -239 t-54.5 -255q-2 -16 -2 -53q0 -63 15 -126.5t46.5 -131t86.5 -126t128 -105t179.5 -73t232.5 -26.5q74 0 139 8q325 33 624 172.5t593 364.5q107 82 236 192.5t211.5 187t227.5 213.5t193 181q15 18 35 18q10 0 10 -8q0 -13 -18 -31q-499 -483 -875 -782 q-148 -117 -289.5 -209t-299 -170t-325 -125.5t-335.5 -60.5q-70 -4 -100 -4q-190 0 -340.5 55t-243.5 148.5t-141 212t-48 251.5q0 31 3 66q6 72 24 143q-78 -128 -147.5 -228t-157 -204t-190.5 -192.5t-220 -159.5q-166 -100 -313 -100q-164 0 -270.5 121.5t-126.5 340.5 q-2 20 -2 64zM104 -287q0 -195 99 -323q85 -111 221 -111q101 0 212.5 53t207.5 129q121 94 230 212t207 261.5t167.5 260t161.5 284.5q232 424 354 858q76 278 76 525q0 78 -10 180q-27 277 -256 459q-112 90 -271 90q-84 0 -198 -31q-134 -38 -252 -123t-206.5 -199 t-153.5 -238.5t-109 -260.5q-80 -237 -80 -445q0 -28 4 -86q0 -2 0.5 -9t3 -11t8.5 -8l117 223q118 204 289 412q64 83 116 83q21 0 43 -16q29 -23 29 -55q0 -36 -47 -109q-7 -12 -20 -12q-9 0 -22 11.5t-17 11.5h-4q-31 -31 -60 -68q-201 -250 -395 -637q-6 -12 -6 -27 q0 -6 4 -22q28 -103 98 -170q173 -162 379 -162q44 0 106 10q2 0 8 1t9 1q8 0 12 -4q-35 -28 -131 -28q-47 0 -86 8q-311 53 -426 315q-8 -6 -22 -35q-92 -192 -142.5 -304.5t-111 -280.5t-97.5 -326q-39 -176 -39 -287z" />
<glyph unicode="&#x153;" horiz-adv-x="1116" d="M-139 281q3 52 18 102q53 139 123 233q5 6 23 30t28 36q30 41 79 64.5t104 25.5h4q34 0 53.5 -27.5t21.5 -66.5q0 -23 -6 -47q83 92 207 145q28 12 55 12q32 0 50 -18.5t18 -46.5q0 -33 -18 -57q-42 -60 -70 -78q-53 -36 -184 -109q-29 -16 -60 -16q-16 0 -37 6 q-34 -50 -34 -107q0 -50 34.5 -80t96.5 -30q36 0 69 8q143 35 351 143t335 205q6 6 11 6q6 0 6 -6q0 -3 -9 -12q-128 -112 -381.5 -246t-398.5 -141h-10q-76 0 -114 47t-38 115q0 10 5 45q-78 -106 -185 -193q-19 -15 -33 -20q-23 -13 -45 -13q-24 0 -42.5 16t-24.5 44 q0 5 -1 16t-1 15zM-78 258q3 -27 19 -27q4 0 18 7q24 11 49 32q149 129 228 281q29 57 36 96q2 8 2 25q0 12 -2 18q-9 29 -30 29q-39 0 -101 -62q-123 -123 -194 -280q-25 -55 -25 -98v-21zM305 526q66 20 144.5 82.5t85.5 100.5q-67 -21 -119.5 -66t-110.5 -117z" />
<glyph unicode="&#x178;" horiz-adv-x="1519" d="M8 719q0 31 2 45q14 163 101 398t188.5 431t202.5 353q3 5 29 46t43.5 68t51 77.5t59.5 87t61 84.5t65 82t61 66.5t58 52t49 25.5q8 2 22 2q26 0 41 -14t15 -37q0 -19 -8 -35q-3 -6 -8 -15t-7.5 -14t-6 -11t-6.5 -8.5t-5 -2.5q-7 0 -12 37q-16 -13 -33.5 -31.5t-38 -44 t-38.5 -47t-41.5 -54.5t-38.5 -53.5t-39.5 -56.5t-34 -50t-32.5 -48.5t-26 -38.5q-314 -481 -487 -944q-93 -255 -93 -381q0 -21 4 -49q8 -37 23.5 -54.5t44.5 -17.5q7 0 31 4q69 13 155.5 60t164 106t164 137t144.5 137t117 122q384 413 779 899q45 55 137.5 193.5 t144.5 199.5q28 31 49 31q10 0 17.5 -8t7.5 -19q0 -12 -6 -21q-83 -141 -88 -149q-22 -35 -60.5 -96t-70.5 -112t-58 -97q-30 -55 -97.5 -171.5t-100.5 -178.5q-246 -451 -371 -713q-48 -102 -144 -289.5t-135 -267.5q-143 -295 -334.5 -732t-224.5 -595q-6 -34 -6 -54 q0 -16 4 -31.5t4 -21.5q0 -9 -6 -15.5t-14 -6.5q-14 0 -24.5 19.5t-10.5 58.5q0 56 25 143q66 221 182 500q344 863 592 1357q208 413 420 785q14 24 16 35q-7 -1 -12 -5t-10 -11t-7 -9q-53 -62 -169 -201t-191.5 -228t-180.5 -206.5t-203 -214t-190 -174.5 q-93 -78 -203 -145.5t-202 -87.5q-20 -5 -45 -5q-83 0 -119.5 66t-36.5 164zM1493 2710q15 74 57 102q11 8 27 8q14 0 25 -10.5t12 -28.5v-8q0 -29 -21 -53q-29 -29 -51 -41q-16 -8 -22 -8q-27 0 -27 39zM1733 2685q0 20 8 33q25 45 65 51h4q18 0 30.5 -11t12.5 -26 q0 -6 -4 -18q-14 -31 -45 -76q-9 -15 -24 -15q-18 0 -33 19q-14 20 -14 43z" />
<glyph unicode="&#x2c6;" horiz-adv-x="491" d="M182 1767q0 8 13 17q38 25 94.5 85.5t72.5 74.5q10 10 19 16q21 14 31 14t16 -6q10 -8 10 -22q0 -15 -2 -21q-1 -4 -4 -11t-4 -11q-16 -62 -20 -93q-2 -8 -2 -24q0 -17 2 -27q0 -1 1 -3t1 -3q0 -8 -11 -12h-4q-6 0 -14 12q-6 15 -6 35q0 42 4 65q2 8 2 29v14 q-15 -12 -25 -22q-33 -31 -94 -92q-29 -25 -47 -31q-2 0 -6 -1t-6 -1q-12 0 -17 8q-4 8 -4 10z" />
<glyph unicode="&#x2dc;" horiz-adv-x="677" d="M162 1714q0 5 4 17q12 30 61.5 62t83.5 32q49 -3 64 -49q11 -33 14 -62q6 -24 21 -24q8 0 12 2q108 29 182 82q24 18 29 18q7 0 12 -8q6 -6 6 -15q0 -5 -3.5 -9t-10 -9.5t-8.5 -7.5q-93 -74 -219 -117q-10 -4 -29 -4q-42 0 -57 49q-6 19 -15 58q-6 22 -20 22q-8 0 -17 -6 q-3 -2 -14.5 -7t-18 -10t-10.5 -12q-4 -6 -8 -9.5t-14 -8.5l-10 -4q-4 -2 -11 -2q-10 0 -16 6q-8 5 -8 16z" />
<glyph unicode="&#x2000;" horiz-adv-x="1523" />
<glyph unicode="&#x2001;" horiz-adv-x="3047" />
<glyph unicode="&#x2002;" horiz-adv-x="1523" />
<glyph unicode="&#x2003;" horiz-adv-x="3047" />
<glyph unicode="&#x2004;" horiz-adv-x="1015" />
<glyph unicode="&#x2005;" horiz-adv-x="761" />
<glyph unicode="&#x2006;" horiz-adv-x="507" />
<glyph unicode="&#x2007;" horiz-adv-x="507" />
<glyph unicode="&#x2008;" horiz-adv-x="380" />
<glyph unicode="&#x2009;" horiz-adv-x="609" />
<glyph unicode="&#x200a;" horiz-adv-x="169" />
<glyph unicode="&#x2010;" horiz-adv-x="1136" d="M203 625q0 4 2 7.5t5 5.5t5.5 3.5t8 2.5t8 1.5t9 1t7.5 0.5q49 6 98 6q145 2 436 2q37 0 68 -8q22 -4 22 -16v-2q-2 -15 -26 -15q-7 1 -21.5 2t-19.5 2q-58 -3 -346 -18q-74 -4 -113 -4q-50 0 -100 6q-2 0 -10.5 1t-12 1.5t-9.5 3t-8.5 6.5t-2.5 11z" />
<glyph unicode="&#x2011;" horiz-adv-x="1136" d="M203 625q0 4 2 7.5t5 5.5t5.5 3.5t8 2.5t8 1.5t9 1t7.5 0.5q49 6 98 6q145 2 436 2q37 0 68 -8q22 -4 22 -16v-2q-2 -15 -26 -15q-7 1 -21.5 2t-19.5 2q-58 -3 -346 -18q-74 -4 -113 -4q-50 0 -100 6q-2 0 -10.5 1t-12 1.5t-9.5 3t-8.5 6.5t-2.5 11z" />
<glyph unicode="&#x2012;" horiz-adv-x="1136" d="M203 625q0 4 2 7.5t5 5.5t5.5 3.5t8 2.5t8 1.5t9 1t7.5 0.5q49 6 98 6q145 2 436 2q37 0 68 -8q22 -4 22 -16v-2q-2 -15 -26 -15q-7 1 -21.5 2t-19.5 2q-58 -3 -346 -18q-74 -4 -113 -4q-50 0 -100 6q-2 0 -10.5 1t-12 1.5t-9.5 3t-8.5 6.5t-2.5 11z" />
<glyph unicode="&#x2013;" horiz-adv-x="1491" d="M203 625q0 4 3 7.5t7.5 5.5t8.5 3.5t12.5 2.5t12 1.5t13.5 1t12 0.5q75 6 150 6q222 2 667 2q57 0 104 -8q34 -4 34 -16v-2q-3 -15 -40 -15q-11 1 -33 2t-30 2q-88 -3 -529 -18q-113 -4 -173 -4q-77 0 -153 6q-3 0 -16 1t-18.5 1.5t-14.5 3t-13 6.5t-4 11z" />
<glyph unicode="&#x2014;" horiz-adv-x="2515" d="M203 625q0 4 6 7.5t15.5 5.5t17 3.5t24.5 2.5t24.5 1.5t27.5 1t23 0.5q150 6 300 6q444 2 1334 2q114 0 209 -8q67 -4 67 -16v-2q-6 -15 -80 -15q-21 1 -65.5 2t-59.5 2q-178 -3 -1059 -18q-227 -4 -346 -4q-153 0 -306 6q-6 0 -32.5 1t-37 1.5t-29 3t-26 6.5t-7.5 11z " />
<glyph unicode="&#x2018;" horiz-adv-x="391" d="M188 1726v35q7 79 68 140q29 25 53 30h8q27 0 35 -20q4 -12 4 -15q0 -12 -14 -26q-16 -14 -57 -60q-24 -21 -33 -55q-4 -20 -4 -24q0 -27 31 -43l14 -7q12 -8 12 -18q0 -1 -1 -3t-1 -3q-5 -15 -27 -15q-34 2 -59 25.5t-29 58.5z" />
<glyph unicode="&#x2019;" horiz-adv-x="483" d="M195 1681q0 6 14 25q51 70 74 117q24 46 24 67q0 22 -16 41q-4 8 -4 11q0 11 10 18q8 8 20 8q9 0 13 -2q22 -8 37.5 -31t15.5 -53v-4q0 -27 -14 -49q-48 -79 -109 -143q-2 -2 -7 -6.5t-7 -6.5q-16 -12 -27 -12q-7 0 -16 6q-8 5 -8 14z" />
<glyph unicode="&#x201a;" horiz-adv-x="464" d="M6 45q0 11 8 23q3 6 43 63q43 64 43 121v12q-2 4 -2 15q0 19 19 24q1 0 4 1t4 1q17 0 31 -18q20 -22 24 -70q-3 -51 -30 -82q-44 -53 -93 -102q-13 -17 -24 -17q-8 0 -15 7q-12 9 -12 22z" />
<glyph unicode="&#x201c;" horiz-adv-x="546" d="M150 1679q0 23 2 37q15 105 81 166q15 14 39 25q4 2 15 2q14 0 26 -15q4 -12 4 -14q0 -12 -10 -22q-8 -10 -25.5 -32t-25.5 -32q-31 -39 -43 -70q0 -1 -1 -4t-1 -4q0 -5 6 -15.5t6 -23.5v-37q0 -12 -2 -16q-3 -8 -20 -12h-11q-40 0 -40 67zM285 1630v8q28 141 112 240 q9 11 29 23q12 4 20 4q16 0 27 -11q8 -8 8 -20q0 -9 -8 -25q-16 -21 -39 -55q-54 -78 -76 -141q-10 -35 -10 -41q0 -19 14 -33q7 -7 7 -16q0 -8 -9 -17q-6 -6 -16 -6q-4 0 -16 4q-43 16 -43 86z" />
<glyph unicode="&#x201d;" horiz-adv-x="624" d="M213 1698q0 3 10 18q38 43 74 117q16 32 16 63q0 26 -12 50l-6 18v8q0 18 12 23q8 4 12 4q11 0 21 -10q7 -6 12 -13.5t8 -14t5.5 -16.5t3.5 -15.5t3 -17.5t3 -16q0 -22 -10 -45q-39 -82 -97 -143q-5 -7 -18 -16t-21 -9q-5 0 -12 7zM322 1681q0 9 12 25q51 70 74 117 q24 46 24 67t-14 41q-4 8 -4 11q0 10 8 18t20 8q9 0 13 -2q24 -8 39.5 -31t15.5 -53v-4q0 -21 -14 -49q-54 -83 -111 -143q-2 -2 -7 -6.5t-7 -6.5q-16 -12 -27 -12q-8 0 -14 6q-8 5 -8 14z" />
<glyph unicode="&#x201e;" horiz-adv-x="468" d="M2 59q0 7 4 11q38 58 55 92q17 38 17 55q0 8 -2 14t-2 17q0 15 16 18h6q20 0 31 -22q10 -20 10 -39q0 -16 -6 -31q-20 -61 -86 -127l-12 -6q-4 -2 -10 -2q-9 0 -17 8q-4 8 -4 12zM115 -8q0 8 10 18q40 61 55 176q3 30 14 40q5 4 11 7q22 11 31 11q24 0 28 -43v-15 q-34 -117 -110 -200q-11 -11 -21 -11q-2 0 -12 5q-6 6 -6 12z" />
<glyph unicode="&#x2022;" horiz-adv-x="835" d="M258 571q3 79 66 136q25 22 59 22q33 0 62 -21.5t38 -54.5q4 -20 4 -32q0 -50 -32 -100.5t-74 -65.5q-8 -4 -27 -4q-22 0 -37 10q-59 36 -59 110z" />
<glyph unicode="&#x202f;" horiz-adv-x="609" />
<glyph unicode="&#x2039;" horiz-adv-x="706" d="M90 563q0 26 43 53q61 37 105 56q136 66 223 123q32 16 35 16t6 -6q2 -2 2 -8q0 -14 -33 -33q-174 -118 -262 -162q-5 -3 -20 -11t-25.5 -15t-18.5 -15q4 -8 11 -15t11.5 -10t16 -9t13.5 -7q1 -1 20 -11t37.5 -20t44 -25t44 -27.5t31.5 -25t13 -20.5v-2q-3 -6 -10 -6 q-5 0 -21 8l-223 119q-43 27 -43 53z" />
<glyph unicode="&#x203a;" horiz-adv-x="686" d="M92 414q0 16 33 35q162 110 262 161q52 27 66 41q-4 8 -11.5 15t-12.5 10t-16 9t-14 7l-19 10q-20 11 -38 21t-43.5 25t-43.5 27.5t-31 25t-13 20.5v2q3 8 10 8q6 0 21 -10l221 -119q45 -26 45 -53q0 -26 -43 -53q-47 -28 -105 -55q-134 -63 -225 -123q-2 -1 -9 -6 t-13.5 -8t-10.5 -3t-8 7q0 1 -1 3t-1 3z" />
<glyph unicode="&#x205f;" horiz-adv-x="761" />
<glyph unicode="&#x20ac;" horiz-adv-x="1179" d="M2 608q0 10 10 17q12 6 37 10q16 1 46 4t44 4q20 4 23 14q44 107 80 183v6q-3 0 -8.5 1t-8.5 1q-13 0 -37 -3.5t-32 -4.5q-6 -1 -17.5 -3t-17.5 -3q-2 0 -6 -1.5t-6 -1.5q-14 0 -17 15v2q0 13 23 18q28 8 43 8q65 9 84 9q23 0 34 22q63 117 144 217q68 82 139 131 q114 74 215 74h8q33 -3 62 -12q73 -24 88 -101q4 -24 4 -36q0 -30 -10 -60q-10 -26 -27 -26h-4q-24 4 -27 30v31q0 19 -2 29q-2 47 -20.5 68t-67.5 30q-10 2 -28 2q-38 0 -76 -12q-90 -27 -176 -109q-108 -103 -197 -264q-2 -2 -2 -8q8 -4 14 -4h13q108 0 161 -8 q21 -3 45 -13q11 -4 11 -10v-2q0 -6 -8 -6h-5q-3 1 -14.5 3.5t-17.5 2.5q-49 6 -97 6q-38 0 -112 -4q-15 -4 -17 -10q-55 -104 -88 -195q8 -2 21 -2h20q62 4 90 4q45 0 88 -6q13 0 29 -4q8 -3 8 -12q0 -8 -10 -8h-12q-18 2 -58 2q-30 0 -86 -4t-77 -5q-27 -3 -37 -28 q-55 -167 -60 -289v-25q0 -83 27 -149q6 -12 8 -14q41 -80 103 -80q20 0 53 10q177 61 305 201q19 22 88 114q13 18 18 19q5 -5 5 -6l-2 -5q-39 -55 -63.5 -87.5t-65 -75.5t-80.5 -72q-99 -70 -195 -104q-37 -15 -70 -15q-73 0 -120 92q-35 74 -35 174v23q3 102 41 229 q14 44 24 80h-10q-17 0 -90 -10h-23q-13 0 -16 12z" />
<glyph unicode="&#x2122;" horiz-adv-x="1097" d="M229 1708v4q0 6 13 19q12 8 18 10q161 33 234 33q32 0 79 -7q13 0 17 -2q2 -1 7.5 -2.5t9 -2.5t7 -2.5t5.5 -4.5t2 -6v-4q-3 -14 -13 -14q-4 0 -22 6q-28 4 -41 4q-10 0 -21.5 -1t-25 -2.5t-21.5 -2.5q-28 0 -41 -29q-24 -58 -68 -164.5t-57 -138.5q-12 -24 -12 -35 q0 -4 4 -16v-7q0 -10 -8 -18q-12 -16 -23 -16q-6 0 -10 2q-10 5 -10 20v8q2 8 6 23.5t6 23.5q10 28 32 93.5t39.5 114t35.5 92.5l8 24q-3 0 -8.5 1t-8.5 1q-17 0 -42 -7.5t-33 -8.5q-20 -4 -31 -4h-6q-14 3 -21 16zM555 1352v6q0 16 6 31q12 39 29 84t30 76.5t34 83t32 77.5 q6 12 8 14q14 25 37 25h8q28 -6 35 -39q0 -3 4 -47t8 -66q0 -4 0.5 -14.5t1.5 -16.5t3.5 -15t7.5 -17q13 19 34 51t38.5 58t33.5 49q10 20 27 34q13 13 24 13t19.5 -9t9.5 -24q2 -8 2 -23q0 -7 -1 -16t-2.5 -20t-2.5 -17q-6 -37 -17.5 -110.5t-17.5 -110.5q-4 -28 -4 -43 q0 -18 6 -39q2 -4 2 -10q0 -7 -8 -10q-1 0 -3 -1t-3 -1q-8 0 -18 10q-13 19 -13 59q0 32 2.5 67t7.5 79t7 67q6 36 6 41q0 15 -2 21q-5 -2 -9.5 -5t-7.5 -6t-6.5 -8t-5 -7.5t-5.5 -8.5t-5 -8q-58 -92 -70 -111q-17 -25 -33 -25h-6q-22 4 -30 35q-3 13 -8.5 39.5t-8.5 40.5 q-5 29 -14 37q-10 -12 -19.5 -28.5t-15 -27.5t-14.5 -32t-13 -29q-37 -96 -49 -127q-17 -34 -20 -37q-6 -6 -15 -6q-5 0 -10 5t-6 12z" />
<glyph unicode="&#x25fc;" horiz-adv-x="911" d="M0 0v911h911v-911h-911z" />
</font>
</defs>
</svg>
